Italic_opsz7.ufo
<glyph name="comma" format="2">
  <advance width="339"/>
  <unicode hex="002C"/>
  <outline>
    <contour>
      <point x="112" y="58" type="curve" smooth="yes"/>
      <point x="112" y="26"/>
      <point x="135" y="0"/>
      <point x="170" y="0" type="curve" smooth="yes"/>
      <point x="194" y="0"/>
      <point x="210" y="15"/>
      <point x="211" y="16" type="curve"/>
      <point x="211" y="16" type="line"/>
      <point x="211" y="16" type="line"/>
      <point x="211" y="-39"/>
      <point x="201" y="-103"/>
      <point x="133" y="-167" type="curve" smooth="yes"/>
      <point x="129" y="-171"/>
      <point x="126" y="-174"/>
      <point x="126" y="-179" type="curve" smooth="yes"/>
      <point x="126" y="-186"/>
      <point x="134" y="-193"/>
      <point x="140" y="-193" type="curve" smooth="yes"/>
      <point x="154" y="-193"/>
      <point x="239" y="-113"/>
      <point x="239" y="6" type="curve" smooth="yes"/>
      <point x="239" y="68"/>
      <point x="215" y="115"/>
      <point x="169" y="115" type="curve" smooth="yes"/>
      <point x="136" y="115"/>
      <point x="112" y="89"/>
    </contour>
  </outline>
</glyph>
<glyph name="period" format="2">
  <advance width="339"/>
  <unicode hex="002E"/>
  <outline>
    <contour>
      <point x="227" y="57" type="curve" smooth="yes"/>
      <point x="227" y="93"/>
      <point x="197" y="115"/>
      <point x="170" y="115" type="curve" smooth="yes"/>
      <point x="137" y="115"/>
      <point x="112" y="88"/>
      <point x="112" y="58" type="curve" smooth="yes"/>
      <point x="112" y="22"/>
      <point x="142" y="0"/>
      <point x="169" y="0" type="curve" smooth="yes"/>
      <point x="202" y="0"/>
      <point x="227" y="27"/>
    </contour>
  </outline>
</glyph>
<glyph name="slash" format="2">
  <advance width="585"/>
  <unicode hex="002F"/>
  <outline>
    <contour>
      <point x="501" y="706" type="line"/>
      <point x="507" y="719"/>
      <point x="507" y="721"/>
      <point x="507" y="725" type="curve" smooth="yes"/>
      <point x="507" y="741"/>
      <point x="494" y="750"/>
      <point x="483" y="750" type="curve" smooth="yes"/>
      <point x="466" y="750"/>
      <point x="461" y="738"/>
      <point x="456" y="725" type="curve" smooth="yes"/>
      <point x="83" y="-206" type="line"/>
      <point x="77" y="-219"/>
      <point x="77" y="-221"/>
      <point x="77" y="-225" type="curve" smooth="yes"/>
      <point x="77" y="-241"/>
      <point x="90" y="-250"/>
      <point x="101" y="-250" type="curve" smooth="yes"/>
      <point x="118" y="-250"/>
      <point x="123" y="-238"/>
      <point x="128" y="-225" type="curve" smooth="yes"/>
    </contour>
  </outline>
</glyph>
<glyph name="one" format="2">
  <advance width="585"/>
  <unicode hex="0031"/>
  <outline>
    <contour>
      <point x="263" y="385" type="curve"/>
      <point x="263" y="83" type="line" smooth="yes"/>
      <point x="263" y="54"/>
      <point x="262" y="44"/>
      <point x="239" y="40" type="curve" smooth="yes"/>
      <point x="214" y="36"/>
      <point x="185" y="36"/>
      <point x="160" y="36" type="curve" smooth="yes"/>
      <point x="133" y="36"/>
      <point x="125" y="36"/>
      <point x="125" y="18" type="curve" smooth="yes"/>
      <point x="125" y="0"/>
      <point x="137" y="0"/>
      <point x="144" y="0" type="curve" smooth="yes"/>
      <point x="170" y="0"/>
      <point x="199" y="3"/>
      <point x="225" y="3" type="curve" smooth="yes"/>
      <point x="278" y="4"/>
      <point x="335" y="5"/>
      <point x="386" y="3" type="curve" smooth="yes"/>
      <point x="410" y="2"/>
      <point x="438" y="0"/>
      <point x="462" y="0" type="curve" smooth="yes"/>
      <point x="469" y="0"/>
      <point x="481" y="0"/>
      <point x="481" y="18" type="curve" smooth="yes"/>
      <point x="481" y="36"/>
      <point x="474" y="36"/>
      <point x="440" y="36" type="curve" smooth="yes"/>
      <point x="411" y="36"/>
      <point x="383" y="38"/>
      <point x="370" y="40" type="curve" smooth="yes"/>
      <point x="346" y="44"/>
      <point x="343" y="50"/>
      <point x="343" y="83" type="curve" smooth="yes"/>
      <point x="343" y="421" type="line" smooth="yes"/>
      <point x="343" y="439"/>
      <point x="343" y="451"/>
      <point x="328" y="451" type="curve" smooth="yes"/>
      <point x="325" y="451"/>
      <point x="323" y="450"/>
      <point x="315" y="445" type="curve" smooth="yes"/>
      <point x="297" y="435"/>
      <point x="252" y="409"/>
      <point x="153" y="408" type="curve" smooth="yes"/>
      <point x="127" y="408"/>
      <point x="119" y="408"/>
      <point x="119" y="390" type="curve" smooth="yes"/>
      <point x="119" y="372"/>
      <point x="128" y="372"/>
      <point x="150" y="372" type="curve" smooth="yes"/>
      <point x="156" y="372"/>
      <point x="210" y="372"/>
    </contour>
  </outline>
</glyph>
<glyph name="two" format="2">
  <advance width="585"/>
  <unicode hex="0032"/>
  <outline>
    <contour>
      <point x="96" y="0" type="curve" smooth="yes"/>
      <point x="453" y="0" type="line" smooth="yes"/>
      <point x="472" y="0"/>
      <point x="479" y="0"/>
      <point x="482" y="11" type="curve"/>
      <point x="485" y="18"/>
      <point x="513" y="124"/>
      <point x="513" y="128" type="curve" smooth="yes"/>
      <point x="513" y="131"/>
      <point x="511" y="142"/>
      <point x="496" y="142" type="curve" smooth="yes"/>
      <point x="483" y="142"/>
      <point x="481" y="136"/>
      <point x="478" y="126" type="curve" smooth="yes"/>
      <point x="474" y="110"/>
      <point x="466" y="80"/>
      <point x="455" y="79" type="curve" smooth="yes"/>
      <point x="430" y="77"/>
      <point x="404" y="77"/>
      <point x="379" y="77" type="curve" smooth="yes"/>
      <point x="198" y="77" type="line"/>
      <point x="308" y="137"/>
      <point x="322" y="144"/>
      <point x="369" y="165" type="curve" smooth="yes"/>
      <point x="443" y="198"/>
      <point x="513" y="230"/>
      <point x="513" y="310" type="curve" smooth="yes"/>
      <point x="513" y="406"/>
      <point x="415" y="451"/>
      <point x="279" y="451" type="curve" smooth="yes"/>
      <point x="151" y="451"/>
      <point x="77" y="401"/>
      <point x="77" y="330" type="curve" smooth="yes"/>
      <point x="77" y="295"/>
      <point x="106" y="287"/>
      <point x="118" y="287" type="curve" smooth="yes"/>
      <point x="134" y="287"/>
      <point x="158" y="299"/>
      <point x="158" y="328" type="curve" smooth="yes"/>
      <point x="158" y="336"/>
      <point x="156" y="360"/>
      <point x="126" y="367" type="curve"/>
      <point x="158" y="411"/>
      <point x="234" y="415"/>
      <point x="258" y="415" type="curve" smooth="yes"/>
      <point x="348" y="415"/>
      <point x="418" y="378"/>
      <point x="418" y="309" type="curve" smooth="yes"/>
      <point x="418" y="244"/>
      <point x="351" y="204"/>
      <point x="293" y="169" type="curve" smooth="yes"/>
      <point x="72" y="34" type="line" smooth="yes"/>
      <point x="65" y="30"/>
      <point x="65" y="23"/>
      <point x="65" y="19" type="curve" smooth="yes"/>
      <point x="65" y="0"/>
      <point x="74" y="0"/>
    </contour>
  </outline>
</glyph>
<glyph name="seven" format="2">
  <advance width="585"/>
  <unicode hex="0037"/>
  <outline>
    <contour>
      <point x="261" y="-214" type="curve" smooth="yes"/>
      <point x="308" y="-214"/>
      <point x="308" y="-170"/>
      <point x="308" y="-155" type="curve" smooth="yes"/>
      <point x="308" y="-129" type="line" smooth="yes"/>
      <point x="308" y="-44"/>
      <point x="315" y="19"/>
      <point x="327" y="69" type="curve" smooth="yes"/>
      <point x="349" y="155"/>
      <point x="385" y="199"/>
      <point x="424" y="247" type="curve" smooth="yes"/>
      <point x="464" y="295"/>
      <point x="503" y="344"/>
      <point x="543" y="392" type="curve" smooth="yes"/>
      <point x="552" y="403"/>
      <point x="553" y="404"/>
      <point x="553" y="413" type="curve" smooth="yes"/>
      <point x="553" y="431"/>
      <point x="544" y="431"/>
      <point x="523" y="431" type="curve" smooth="yes"/>
      <point x="279" y="431" type="line" smooth="yes"/>
      <point x="258" y="431"/>
      <point x="232" y="432"/>
      <point x="211" y="433" type="curve" smooth="yes"/>
      <point x="189" y="435"/>
      <point x="160" y="436"/>
      <point x="147" y="444" type="curve"/>
      <point x="147" y="450"/>
      <point x="147" y="463"/>
      <point x="130" y="463" type="curve" smooth="yes"/>
      <point x="116" y="463"/>
      <point x="114" y="455"/>
      <point x="111" y="439" type="curve" smooth="yes"/>
      <point x="106" y="416"/>
      <point x="77" y="275"/>
      <point x="77" y="265" type="curve" smooth="yes"/>
      <point x="77" y="255"/>
      <point x="84" y="250"/>
      <point x="94" y="250" type="curve" smooth="yes"/>
      <point x="108" y="250"/>
      <point x="110" y="258"/>
      <point x="112" y="268" type="curve" smooth="yes"/>
      <point x="119" y="301"/>
      <point x="127" y="342"/>
      <point x="139" y="344" type="curve"/>
      <point x="162" y="346"/>
      <point x="210" y="347"/>
      <point x="235" y="347" type="curve" smooth="yes"/>
      <point x="462" y="347" type="line"/>
      <point x="434" y="313"/>
      <point x="406" y="278"/>
      <point x="378" y="244" type="curve" smooth="yes"/>
      <point x="326" y="181"/>
      <point x="283" y="112"/>
      <point x="254" y="37" type="curve" smooth="yes"/>
      <point x="229" y="-25"/>
      <point x="215" y="-91"/>
      <point x="215" y="-159" type="curve" smooth="yes"/>
      <point x="215" y="-204"/>
      <point x="239" y="-214"/>
    </contour>
  </outline>
</glyph>
<glyph name="less" format="2">
  <advance width="892"/>
  <unicode hex="003C"/>
  <outline>
    <contour>
      <point x="762" y="526" type="line" smooth="yes"/>
      <point x="774" y="532"/>
      <point x="784" y="539"/>
      <point x="784" y="552" type="curve" smooth="yes"/>
      <point x="784" y="566"/>
      <point x="773" y="577"/>
      <point x="759" y="577" type="curve" smooth="yes"/>
      <point x="758" y="577"/>
      <point x="753" y="577"/>
      <point x="741" y="571" type="curve" smooth="yes"/>
      <point x="130" y="277" type="line" smooth="yes"/>
      <point x="118" y="271"/>
      <point x="108" y="264"/>
      <point x="108" y="251" type="curve" smooth="yes"/>
      <point x="108" y="235"/>
      <point x="119" y="230"/>
      <point x="129" y="225" type="curve" smooth="yes"/>
      <point x="739" y="-69" type="line" smooth="yes"/>
      <point x="753" y="-76"/>
      <point x="757" y="-76"/>
      <point x="759" y="-76" type="curve" smooth="yes"/>
      <point x="773" y="-76"/>
      <point x="784" y="-65"/>
      <point x="784" y="-51" type="curve" smooth="yes"/>
      <point x="784" y="-36"/>
      <point x="772" y="-30"/>
      <point x="763" y="-26" type="curve" smooth="yes"/>
      <point x="189" y="250" type="line"/>
    </contour>
  </outline>
</glyph>
<glyph name="greater" format="2">
  <advance width="892"/>
  <unicode hex="003E"/>
  <outline>
    <contour>
      <point x="762" y="224" type="line" smooth="yes"/>
      <point x="774" y="230"/>
      <point x="784" y="237"/>
      <point x="784" y="250" type="curve" smooth="yes"/>
      <point x="784" y="266"/>
      <point x="773" y="271"/>
      <point x="763" y="276" type="curve" smooth="yes"/>
      <point x="153" y="570" type="line" smooth="yes"/>
      <point x="139" y="577"/>
      <point x="135" y="577"/>
      <point x="133" y="577" type="curve" smooth="yes"/>
      <point x="119" y="577"/>
      <point x="108" y="566"/>
      <point x="108" y="552" type="curve" smooth="yes"/>
      <point x="108" y="537"/>
      <point x="120" y="531"/>
      <point x="129" y="527" type="curve" smooth="yes"/>
      <point x="703" y="251" type="line"/>
      <point x="130" y="-25" type="line" smooth="yes"/>
      <point x="118" y="-31"/>
      <point x="108" y="-38"/>
      <point x="108" y="-51" type="curve" smooth="yes"/>
      <point x="108" y="-65"/>
      <point x="119" y="-76"/>
      <point x="133" y="-76" type="curve" smooth="yes"/>
      <point x="134" y="-76"/>
      <point x="139" y="-76"/>
      <point x="151" y="-70" type="curve" smooth="yes"/>
    </contour>
  </outline>
</glyph>
<glyph name="A" format="2">
  <advance width="859"/>
  <unicode hex="0041"/>
  <outline>
    <contour>
      <point x="206" y="120" type="line" smooth="yes"/>
      <point x="171" y="66"/>
      <point x="139" y="40"/>
      <point x="80" y="36" type="curve" smooth="yes"/>
      <point x="70" y="35"/>
      <point x="57" y="35"/>
      <point x="57" y="15" type="curve" smooth="yes"/>
      <point x="57" y="4"/>
      <point x="66" y="0"/>
      <point x="71" y="0" type="curve" smooth="yes"/>
      <point x="97" y="0"/>
      <point x="130" y="4"/>
      <point x="157" y="4" type="curve" smooth="yes"/>
      <point x="189" y="4"/>
      <point x="230" y="0"/>
      <point x="260" y="0" type="curve" smooth="yes"/>
      <point x="265" y="0"/>
      <point x="280" y="0"/>
      <point x="280" y="22" type="curve" smooth="yes"/>
      <point x="280" y="35"/>
      <point x="267" y="36"/>
      <point x="263" y="36" type="curve"/>
      <point x="255" y="37"/>
      <point x="219" y="39"/>
      <point x="219" y="66" type="curve" smooth="yes"/>
      <point x="219" y="78"/>
      <point x="229" y="95"/>
      <point x="234" y="104" type="curve"/>
      <point x="314" y="228" type="line"/>
      <point x="600" y="228" type="line"/>
      <point x="624" y="62" type="line"/>
      <point x="620" y="52"/>
      <point x="614" y="36"/>
      <point x="555" y="36" type="curve" smooth="yes"/>
      <point x="543" y="36"/>
      <point x="529" y="36"/>
      <point x="529" y="14" type="curve" smooth="yes"/>
      <point x="529" y="10"/>
      <point x="532" y="0"/>
      <point x="545" y="0" type="curve" smooth="yes"/>
      <point x="574" y="0"/>
      <point x="645" y="4"/>
      <point x="674" y="4" type="curve" smooth="yes"/>
      <point x="692" y="4"/>
      <point x="715" y="3"/>
      <point x="733" y="3" type="curve"/>
      <point x="751" y="2"/>
      <point x="772" y="0"/>
      <point x="790" y="0" type="curve" smooth="yes"/>
      <point x="803" y="0"/>
      <point x="810" y="8"/>
      <point x="810" y="21" type="curve" smooth="yes"/>
      <point x="810" y="36"/>
      <point x="798" y="36"/>
      <point x="782" y="36" type="curve" smooth="yes"/>
      <point x="724" y="36"/>
      <point x="722" y="44"/>
      <point x="719" y="68" type="curve" smooth="yes"/>
      <point x="631" y="685" type="line" smooth="yes"/>
      <point x="628" y="706"/>
      <point x="626" y="713"/>
      <point x="607" y="713" type="curve" smooth="yes"/>
      <point x="588" y="713"/>
      <point x="582" y="704"/>
      <point x="573" y="690" type="curve" smooth="yes"/>
    </contour>
    <contour>
      <point x="338" y="264" type="line"/>
      <point x="548" y="591" type="line"/>
      <point x="595" y="264" type="line"/>
    </contour>
  </outline>
</glyph>
<glyph name="C" format="2">
  <advance width="819"/>
  <unicode hex="0043"/>
  <outline>
    <contour>
      <point x="70" y="262" type="curve" smooth="yes"/>
      <point x="70" y="99"/>
      <point x="198" y="-20"/>
      <point x="377" y="-20" type="curve" smooth="yes"/>
      <point x="431" y="-20"/>
      <point x="527" y="-9"/>
      <point x="630" y="78" type="curve" smooth="yes"/>
      <point x="709" y="145"/>
      <point x="731" y="232"/>
      <point x="731" y="240" type="curve" smooth="yes"/>
      <point x="731" y="253"/>
      <point x="719" y="253"/>
      <point x="714" y="253" type="curve" smooth="yes"/>
      <point x="701" y="253"/>
      <point x="699" y="248"/>
      <point x="696" y="237" type="curve" smooth="yes"/>
      <point x="680.11578" y="183.92346"/>
      <point x="649.3722286164" y="138.8019155892"/>
      <point x="610.6309888333096" y="103.43800178884915" type="curve" smooth="yes"/>
      <point x="549.3741908716" y="47.52135753760001"/>
      <point x="468.12218" y="16.000000000000014"/>
      <point x="394" y="16" type="curve" smooth="yes"/>
      <point x="288" y="16"/>
      <point x="170" y="73"/>
      <point x="170" y="231" type="curve" smooth="yes"/>
      <point x="170" y="260"/>
      <point x="177" y="418"/>
      <point x="292" y="544" type="curve" smooth="yes"/>
      <point x="361" y="621"/>
      <point x="466" y="667"/>
      <point x="561" y="667" type="curve" smooth="yes"/>
      <point x="677" y="667"/>
      <point x="745" y="583"/>
      <point x="745" y="471" type="curve" smooth="yes"/>
      <point x="745" y="443"/>
      <point x="742" y="436"/>
      <point x="742" y="430" type="curve" smooth="yes"/>
      <point x="742" y="417"/>
      <point x="755" y="417"/>
      <point x="760" y="417" type="curve" smooth="yes"/>
      <point x="776" y="417"/>
      <point x="776" y="420"/>
      <point x="781" y="439" type="curve" smooth="yes"/>
      <point x="843" y="690" type="line"/>
      <point x="843" y="690" type="line"/>
      <point x="843" y="695"/>
      <point x="840" y="703"/>
      <point x="830" y="703" type="curve" smooth="yes"/>
      <point x="823" y="703"/>
      <point x="821" y="701"/>
      <point x="812" y="691" type="curve" smooth="yes"/>
      <point x="739" y="614" type="line"/>
      <point x="739" y="614" type="line"/>
      <point x="739" y="614" type="line"/>
      <point x="730" y="626"/>
      <point x="674" y="703"/>
      <point x="551" y="703" type="curve" smooth="yes"/>
      <point x="308" y="703"/>
      <point x="70" y="488"/>
    </contour>
  </outline>
</glyph>
<glyph name="D" format="2">
  <advance width="934"/>
  <unicode hex="0044"/>
  <outline>
    <contour>
      <point x="893" y="422" type="curve" smooth="yes"/>
      <point x="893" y="568"/>
      <point x="792" y="683"/>
      <point x="629" y="683" type="curve" smooth="yes"/>
      <point x="265" y="683" type="line" smooth="yes"/>
      <point x="245" y="683"/>
      <point x="233" y="683"/>
      <point x="233" y="661" type="curve" smooth="yes"/>
      <point x="233" y="647"/>
      <point x="244" y="647"/>
      <point x="266" y="647" type="curve" smooth="yes"/>
      <point x="282" y="647"/>
      <point x="286" y="647"/>
      <point x="304" y="645" type="curve" smooth="yes"/>
      <point x="324" y="643"/>
      <point x="326" y="641"/>
      <point x="326" y="631" type="curve" smooth="yes"/>
      <point x="326" y="629"/>
      <point x="326" y="624"/>
      <point x="322" y="609" type="curve" smooth="yes"/>
      <point x="189" y="78" type="line" smooth="yes"/>
      <point x="181" y="44"/>
      <point x="179" y="36"/>
      <point x="101" y="36" type="curve" smooth="yes"/>
      <point x="83" y="36"/>
      <point x="71" y="36"/>
      <point x="71" y="14" type="curve" smooth="yes"/>
      <point x="71" y="0"/>
      <point x="83" y="0"/>
      <point x="101" y="0" type="curve" smooth="yes"/>
      <point x="458" y="0" type="line" smooth="yes"/>
      <point x="680" y="0"/>
      <point x="893" y="204"/>
    </contour>
    <contour>
      <point x="413" y="613" type="line" smooth="yes"/>
      <point x="421" y="644"/>
      <point x="422" y="647"/>
      <point x="464" y="647" type="curve" smooth="yes"/>
      <point x="592" y="647" type="line" smooth="yes"/>
      <point x="704" y="647"/>
      <point x="798" y="591"/>
      <point x="798" y="455" type="curve" smooth="yes"/>
      <point x="798" y="432"/>
      <point x="788" y="259"/>
      <point x="688" y="145" type="curve" smooth="yes"/>
      <point x="649" y="100"/>
      <point x="563" y="36"/>
      <point x="440" y="36" type="curve" smooth="yes"/>
      <point x="304" y="36" type="line" smooth="yes"/>
      <point x="270" y="36"/>
      <point x="268" y="35"/>
      <point x="276" y="67" type="curve" smooth="yes"/>
    </contour>
  </outline>
</glyph>
<glyph name="F" format="2">
  <advance width="724"/>
  <unicode hex="0046"/>
  <outline>
    <contour>
      <point x="342" y="322" type="line"/>
      <point x="449" y="322" type="line" smooth="yes"/>
      <point x="525" y="322"/>
      <point x="538" y="310"/>
      <point x="538" y="277" type="curve" smooth="yes"/>
      <point x="538" y="247"/>
      <point x="528" y="227"/>
      <point x="528" y="220" type="curve" smooth="yes"/>
      <point x="528" y="210"/>
      <point x="535" y="205"/>
      <point x="545" y="205" type="curve" smooth="yes"/>
      <point x="558" y="205"/>
      <point x="559" y="210"/>
      <point x="564" y="228" type="curve" smooth="yes"/>
      <point x="621" y="455" type="line" smooth="yes"/>
      <point x="625" y="469"/>
      <point x="618" y="475"/>
      <point x="605" y="475" type="curve" smooth="yes"/>
      <point x="591" y="475"/>
      <point x="590" y="469"/>
      <point x="585" y="451" type="curve" smooth="yes"/>
      <point x="565" y="373"/>
      <point x="536" y="358"/>
      <point x="451" y="358" type="curve" smooth="yes"/>
      <point x="351" y="358" type="line"/>
      <point x="414" y="609" type="line" smooth="yes"/>
      <point x="422" y="640"/>
      <point x="423" y="643"/>
      <point x="465" y="643" type="curve" smooth="yes"/>
      <point x="618" y="643" type="line" smooth="yes"/>
      <point x="751" y="643"/>
      <point x="776" y="611"/>
      <point x="776" y="528" type="curve" smooth="yes"/>
      <point x="776" y="495"/>
      <point x="772" y="474"/>
      <point x="772" y="466" type="curve" smooth="yes"/>
      <point x="772" y="458"/>
      <point x="775" y="449"/>
      <point x="789" y="449" type="curve" smooth="yes"/>
      <point x="804" y="449"/>
      <point x="805" y="458"/>
      <point x="807" y="475" type="curve" smooth="yes"/>
      <point x="825" y="649" type="line" smooth="yes"/>
      <point x="828" y="679"/>
      <point x="821" y="679"/>
      <point x="796" y="679" type="curve" smooth="yes"/>
      <point x="262" y="679" type="line" smooth="yes"/>
      <point x="243" y="679"/>
      <point x="230" y="679"/>
      <point x="230" y="657" type="curve" smooth="yes"/>
      <point x="230" y="643"/>
      <point x="242" y="643"/>
      <point x="262" y="643" type="curve" smooth="yes"/>
      <point x="263" y="643"/>
      <point x="282" y="643"/>
      <point x="300" y="641" type="curve" smooth="yes"/>
      <point x="321" y="639"/>
      <point x="323" y="637"/>
      <point x="323" y="627" type="curve" smooth="yes"/>
      <point x="323" y="620"/>
      <point x="320" y="610"/>
      <point x="319" y="605" type="curve" smooth="yes"/>
      <point x="188" y="82" type="line" smooth="yes"/>
      <point x="178" y="43"/>
      <point x="177" y="36"/>
      <point x="99" y="36" type="curve" smooth="yes"/>
      <point x="82" y="36"/>
      <point x="69" y="36"/>
      <point x="69" y="15" type="curve" smooth="yes"/>
      <point x="69" y="5"/>
      <point x="76" y="0"/>
      <point x="85" y="0" type="curve" smooth="yes"/>
      <point x="114" y="0"/>
      <point x="158" y="2"/>
      <point x="187" y="3" type="curve" smooth="yes"/>
      <point x="213" y="4"/>
      <point x="259" y="3"/>
      <point x="285" y="2" type="curve" smooth="yes"/>
      <point x="311" y="1"/>
      <point x="348" y="0"/>
      <point x="373" y="0" type="curve" smooth="yes"/>
      <point x="380" y="0"/>
      <point x="395" y="0"/>
      <point x="395" y="22" type="curve" smooth="yes"/>
      <point x="395" y="36"/>
      <point x="383" y="36"/>
      <point x="360" y="36" type="curve" smooth="yes"/>
      <point x="358" y="36"/>
      <point x="333" y="36"/>
      <point x="308" y="38" type="curve" smooth="yes"/>
      <point x="287" y="40"/>
      <point x="277" y="41"/>
      <point x="277" y="55" type="curve" smooth="yes"/>
      <point x="277" y="59"/>
      <point x="277" y="62"/>
      <point x="280" y="73" type="curve" smooth="yes"/>
    </contour>
  </outline>
</glyph>
<glyph name="G" format="2">
  <advance width="889"/>
  <unicode hex="0047"/>
  <outline>
    <contour>
      <point x="843" y="690" type="line"/>
      <point x="843" y="695"/>
      <point x="840" y="703"/>
      <point x="830" y="703" type="curve" smooth="yes"/>
      <point x="823" y="703"/>
      <point x="821" y="701"/>
      <point x="812" y="691" type="curve" smooth="yes"/>
      <point x="739" y="614" type="line"/>
      <point x="730" y="626"/>
      <point x="674" y="703"/>
      <point x="551" y="703" type="curve" smooth="yes"/>
      <point x="308" y="703"/>
      <point x="70" y="488"/>
      <point x="70" y="262" type="curve" smooth="yes"/>
      <point x="70" y="107"/>
      <point x="188" y="-20"/>
      <point x="380" y="-20" type="curve" smooth="yes"/>
      <point x="468" y="-20"/>
      <point x="561" y="3"/>
      <point x="613" y="59" type="curve"/>
      <point x="623" y="37"/>
      <point x="650" y="1"/>
      <point x="662" y="1" type="curve" smooth="yes"/>
      <point x="671" y="1"/>
      <point x="673" y="5"/>
      <point x="678" y="26" type="curve" smooth="yes"/>
      <point x="697" y="103" type="line" smooth="yes"/>
      <point x="702" y="121"/>
      <point x="716" y="181"/>
      <point x="719" y="193" type="curve" smooth="yes"/>
      <point x="731" y="238"/>
      <point x="732" y="239"/>
      <point x="791" y="240" type="curve" smooth="yes"/>
      <point x="798" y="240"/>
      <point x="813" y="240"/>
      <point x="813" y="261" type="curve" smooth="yes"/>
      <point x="813" y="271"/>
      <point x="806" y="276"/>
      <point x="798" y="276" type="curve" smooth="yes"/>
      <point x="765" y="276"/>
      <point x="723" y="272"/>
      <point x="688" y="272" type="curve" smooth="yes"/>
      <point x="663" y="272"/>
      <point x="630" y="272"/>
      <point x="605" y="273" type="curve" smooth="yes"/>
      <point x="580" y="274"/>
      <point x="551" y="276"/>
      <point x="526" y="276" type="curve" smooth="yes"/>
      <point x="519" y="276"/>
      <point x="504" y="276"/>
      <point x="504" y="254" type="curve" smooth="yes"/>
      <point x="504" y="240"/>
      <point x="515" y="240"/>
      <point x="540" y="240" type="curve" smooth="yes"/>
      <point x="559" y="240"/>
      <point x="579" y="240"/>
      <point x="598" y="238" type="curve" smooth="yes"/>
      <point x="630" y="235"/>
      <point x="631" y="231"/>
      <point x="631" y="219" type="curve" smooth="yes"/>
      <point x="631" y="215"/>
      <point x="631" y="213"/>
      <point x="624" y="187" type="curve" smooth="yes"/>
      <point x="617" y="159"/>
      <point x="606" y="114"/>
      <point x="602" y="104" type="curve"/>
      <point x="573" y="43"/>
      <point x="480" y="16"/>
      <point x="402" y="16" type="curve" smooth="yes"/>
      <point x="302" y="16"/>
      <point x="171" y="64"/>
      <point x="171" y="233" type="curve" smooth="yes"/>
      <point x="171" y="340"/>
      <point x="221" y="474"/>
      <point x="295" y="549" type="curve" smooth="yes"/>
      <point x="398" y="651"/>
      <point x="505" y="667"/>
      <point x="561" y="667" type="curve" smooth="yes"/>
      <point x="677" y="667"/>
      <point x="745" y="583"/>
      <point x="745" y="471" type="curve" smooth="yes"/>
      <point x="745" y="443"/>
      <point x="742" y="436"/>
      <point x="742" y="430" type="curve" smooth="yes"/>
      <point x="742" y="417"/>
      <point x="755" y="417"/>
      <point x="760" y="417" type="curve" smooth="yes"/>
      <point x="776" y="417"/>
      <point x="776" y="420"/>
      <point x="781" y="439" type="curve" smooth="yes"/>
    </contour>
  </outline>
</glyph>
<glyph name="H" format="2">
  <advance width="935"/>
  <unicode hex="0048"/>
  <outline>
    <contour>
      <point x="841" y="602" type="line" smooth="yes"/>
      <point x="850" y="639"/>
      <point x="852" y="647"/>
      <point x="926" y="647" type="curve" smooth="yes"/>
      <point x="948" y="647"/>
      <point x="960" y="647"/>
      <point x="960" y="669" type="curve" smooth="yes"/>
      <point x="960" y="673"/>
      <point x="957" y="683"/>
      <point x="944" y="683" type="curve" smooth="yes"/>
      <point x="915" y="683"/>
      <point x="842" y="679"/>
      <point x="813" y="679" type="curve" smooth="yes"/>
      <point x="796" y="679"/>
      <point x="761" y="679"/>
      <point x="744" y="680" type="curve" smooth="yes"/>
      <point x="724" y="681"/>
      <point x="700" y="683"/>
      <point x="681" y="683" type="curve" smooth="yes"/>
      <point x="675" y="683"/>
      <point x="660" y="683"/>
      <point x="660" y="661" type="curve" smooth="yes"/>
      <point x="660" y="647"/>
      <point x="672" y="647"/>
      <point x="692" y="647" type="curve" smooth="yes"/>
      <point x="693" y="647"/>
      <point x="712" y="647"/>
      <point x="730" y="645" type="curve" smooth="yes"/>
      <point x="751" y="643"/>
      <point x="753" y="641"/>
      <point x="753" y="631" type="curve" smooth="yes"/>
      <point x="753" y="630"/>
      <point x="753" y="624"/>
      <point x="749" y="609" type="curve" smooth="yes"/>
      <point x="690" y="373" type="line"/>
      <point x="355" y="373" type="line"/>
      <point x="413" y="605" type="line" smooth="yes"/>
      <point x="422" y="639"/>
      <point x="424" y="647"/>
      <point x="501" y="647" type="curve" smooth="yes"/>
      <point x="518" y="647"/>
      <point x="531" y="647"/>
      <point x="531" y="669" type="curve" smooth="yes"/>
      <point x="531" y="673"/>
      <point x="528" y="683"/>
      <point x="515" y="683" type="curve" smooth="yes"/>
      <point x="486" y="683"/>
      <point x="413" y="679"/>
      <point x="384" y="679" type="curve" smooth="yes"/>
      <point x="367" y="679"/>
      <point x="332" y="679"/>
      <point x="315" y="680" type="curve" smooth="yes"/>
      <point x="295" y="681"/>
      <point x="271" y="683"/>
      <point x="252" y="683" type="curve" smooth="yes"/>
      <point x="246" y="683"/>
      <point x="231" y="683"/>
      <point x="231" y="661" type="curve" smooth="yes"/>
      <point x="231" y="647"/>
      <point x="243" y="647"/>
      <point x="263" y="647" type="curve" smooth="yes"/>
      <point x="264" y="647"/>
      <point x="283" y="647"/>
      <point x="301" y="645" type="curve" smooth="yes"/>
      <point x="322" y="643"/>
      <point x="324" y="641"/>
      <point x="324" y="631" type="curve" smooth="yes"/>
      <point x="324" y="629"/>
      <point x="324" y="624"/>
      <point x="320" y="609" type="curve" smooth="yes"/>
      <point x="187" y="78" type="line" smooth="yes"/>
      <point x="179" y="44"/>
      <point x="177" y="36"/>
      <point x="99" y="36" type="curve" smooth="yes"/>
      <point x="82" y="36"/>
      <point x="69" y="36"/>
      <point x="69" y="15" type="curve" smooth="yes"/>
      <point x="69" y="5"/>
      <point x="76" y="0"/>
      <point x="85" y="0" type="curve" smooth="yes"/>
      <point x="114" y="0"/>
      <point x="186" y="4"/>
      <point x="215" y="4" type="curve" smooth="yes"/>
      <point x="232" y="4"/>
      <point x="267" y="4"/>
      <point x="284" y="3" type="curve" smooth="yes"/>
      <point x="304" y="2"/>
      <point x="329" y="0"/>
      <point x="348" y="0" type="curve" smooth="yes"/>
      <point x="353" y="0"/>
      <point x="369" y="0"/>
      <point x="369" y="21" type="curve" smooth="yes"/>
      <point x="369" y="36"/>
      <point x="359" y="36"/>
      <point x="336" y="36" type="curve" smooth="yes"/>
      <point x="320" y="36"/>
      <point x="316" y="36"/>
      <point x="298" y="38" type="curve" smooth="yes"/>
      <point x="276" y="41"/>
      <point x="276" y="43"/>
      <point x="276" y="53" type="curve" smooth="yes"/>
      <point x="276" y="54"/>
      <point x="276" y="60"/>
      <point x="280" y="75" type="curve" smooth="yes"/>
      <point x="346" y="337" type="line"/>
      <point x="681" y="337" type="line"/>
      <point x="616" y="78" type="line" smooth="yes"/>
      <point x="608" y="44"/>
      <point x="606" y="36"/>
      <point x="528" y="36" type="curve" smooth="yes"/>
      <point x="511" y="36"/>
      <point x="498" y="36"/>
      <point x="498" y="15" type="curve" smooth="yes"/>
      <point x="498" y="5"/>
      <point x="505" y="0"/>
      <point x="514" y="0" type="curve" smooth="yes"/>
      <point x="543" y="0"/>
      <point x="615" y="4"/>
      <point x="644" y="4" type="curve" smooth="yes"/>
      <point x="661" y="4"/>
      <point x="696" y="4"/>
      <point x="713" y="3" type="curve" smooth="yes"/>
      <point x="733" y="2"/>
      <point x="758" y="0"/>
      <point x="777" y="0" type="curve" smooth="yes"/>
      <point x="782" y="0"/>
      <point x="798" y="0"/>
      <point x="798" y="21" type="curve" smooth="yes"/>
      <point x="798" y="36"/>
      <point x="788" y="36"/>
      <point x="765" y="36" type="curve" smooth="yes"/>
      <point x="749" y="36"/>
      <point x="745" y="36"/>
      <point x="727" y="38" type="curve" smooth="yes"/>
      <point x="705" y="41"/>
      <point x="705" y="43"/>
      <point x="705" y="53" type="curve" smooth="yes"/>
      <point x="705" y="59"/>
      <point x="708" y="69"/>
      <point x="709" y="75" type="curve"/>
    </contour>
  </outline>
</glyph>
<glyph name="J" format="2">
  <advance width="632"/>
  <unicode hex="004A"/>
  <outline>
    <contour>
      <point x="247" y="-20" type="curve" smooth="yes"/>
      <point x="345" y="-20"/>
      <point x="456" y="43"/>
      <point x="481" y="143" type="curve" smooth="yes"/>
      <point x="597" y="606" type="line" smooth="yes"/>
      <point x="606" y="641"/>
      <point x="607" y="647"/>
      <point x="663" y="647" type="curve" smooth="yes"/>
      <point x="675" y="647"/>
      <point x="689" y="647"/>
      <point x="689" y="668" type="curve" smooth="yes"/>
      <point x="689" y="679"/>
      <point x="681" y="683"/>
      <point x="674" y="683" type="curve" smooth="yes"/>
      <point x="650" y="683"/>
      <point x="590" y="679"/>
      <point x="566" y="679" type="curve" smooth="yes"/>
      <point x="545" y="679"/>
      <point x="511" y="680"/>
      <point x="489" y="680" type="curve" smooth="yes"/>
      <point x="464" y="681"/>
      <point x="435" y="683"/>
      <point x="410" y="683" type="curve" smooth="yes"/>
      <point x="403" y="683"/>
      <point x="388" y="683"/>
      <point x="388" y="662" type="curve" smooth="yes"/>
      <point x="388" y="647"/>
      <point x="397" y="647"/>
      <point x="427" y="647" type="curve" smooth="yes"/>
      <point x="450" y="647"/>
      <point x="454" y="647"/>
      <point x="479" y="645" type="curve" smooth="yes"/>
      <point x="508" y="642"/>
      <point x="511" y="639"/>
      <point x="511" y="627" type="curve" smooth="yes"/>
      <point x="511" y="620"/>
      <point x="511" y="618"/>
      <point x="507" y="604" type="curve" smooth="yes"/>
      <point x="392" y="146" type="line" smooth="yes"/>
      <point x="373" y="71"/>
      <point x="309" y="8"/>
      <point x="244" y="8" type="curve" smooth="yes"/>
      <point x="230" y="8"/>
      <point x="167" y="11"/>
      <point x="144" y="60" type="curve"/>
      <point x="202" y="60"/>
      <point x="215" y="107"/>
      <point x="215" y="125" type="curve" smooth="yes"/>
      <point x="215" y="153"/>
      <point x="191" y="168"/>
      <point x="169" y="168" type="curve" smooth="yes"/>
      <point x="142" y="168"/>
      <point x="102" y="146"/>
      <point x="102" y="90" type="curve" smooth="yes"/>
      <point x="102" y="25"/>
      <point x="163" y="-20"/>
    </contour>
  </outline>
</glyph>
<glyph name="K" format="2">
  <advance width="959"/>
  <unicode hex="004B"/>
  <outline>
    <contour>
      <point x="572" y="402" type="line" smooth="yes"/>
      <point x="568" y="410"/>
      <point x="566" y="413"/>
      <point x="566" y="414" type="curve" smooth="yes"/>
      <point x="566" y="416"/>
      <point x="567" y="417"/>
      <point x="590" y="433" type="curve" smooth="yes"/>
      <point x="691" y="504" type="line" smooth="yes"/>
      <point x="823" y="597"/>
      <point x="885" y="641"/>
      <point x="956" y="647" type="curve" smooth="yes"/>
      <point x="967" y="648"/>
      <point x="979" y="649"/>
      <point x="979" y="669" type="curve" smooth="yes"/>
      <point x="979" y="677"/>
      <point x="972" y="682"/>
      <point x="966" y="682" type="curve" smooth="yes"/>
      <point x="945" y="682"/>
      <point x="919" y="679"/>
      <point x="897" y="679" type="curve" smooth="yes"/>
      <point x="870" y="679"/>
      <point x="803" y="683"/>
      <point x="776" y="683" type="curve" smooth="yes"/>
      <point x="770" y="683"/>
      <point x="755" y="683"/>
      <point x="755" y="661" type="curve" smooth="yes"/>
      <point x="755" y="660"/>
      <point x="755" y="648"/>
      <point x="770" y="647" type="curve" smooth="yes"/>
      <point x="782" y="646"/>
      <point x="795" y="644"/>
      <point x="795" y="633" type="curve" smooth="yes"/>
      <point x="795" y="615"/>
      <point x="764" y="593"/>
      <point x="751" y="584" type="curve" smooth="yes"/>
      <point x="334" y="290" type="line"/>
      <point x="413" y="605" type="line" smooth="yes"/>
      <point x="422" y="639"/>
      <point x="423" y="647"/>
      <point x="501" y="647" type="curve" smooth="yes"/>
      <point x="517" y="647"/>
      <point x="531" y="647"/>
      <point x="531" y="668" type="curve" smooth="yes"/>
      <point x="531" y="677"/>
      <point x="525" y="683"/>
      <point x="515" y="683" type="curve" smooth="yes"/>
      <point x="486" y="683"/>
      <point x="413" y="679"/>
      <point x="384" y="679" type="curve" smooth="yes"/>
      <point x="367" y="679"/>
      <point x="332" y="679"/>
      <point x="315" y="680" type="curve" smooth="yes"/>
      <point x="295" y="681"/>
      <point x="271" y="683"/>
      <point x="252" y="683" type="curve" smooth="yes"/>
      <point x="246" y="683"/>
      <point x="231" y="683"/>
      <point x="231" y="661" type="curve" smooth="yes"/>
      <point x="231" y="647"/>
      <point x="242" y="647"/>
      <point x="264" y="647" type="curve" smooth="yes"/>
      <point x="280" y="647"/>
      <point x="284" y="647"/>
      <point x="302" y="645" type="curve" smooth="yes"/>
      <point x="322" y="643"/>
      <point x="324" y="641"/>
      <point x="324" y="631" type="curve" smooth="yes"/>
      <point x="324" y="629"/>
      <point x="324" y="624"/>
      <point x="320" y="609" type="curve" smooth="yes"/>
      <point x="187" y="78" type="line" smooth="yes"/>
      <point x="179" y="44"/>
      <point x="177" y="36"/>
      <point x="99" y="36" type="curve" smooth="yes"/>
      <point x="81" y="36"/>
      <point x="69" y="36"/>
      <point x="69" y="14" type="curve" smooth="yes"/>
      <point x="69" y="13"/>
      <point x="69" y="0"/>
      <point x="85" y="0" type="curve" smooth="yes"/>
      <point x="114" y="0"/>
      <point x="186" y="4"/>
      <point x="215" y="4" type="curve" smooth="yes"/>
      <point x="232" y="4"/>
      <point x="267" y="4"/>
      <point x="284" y="3" type="curve" smooth="yes"/>
      <point x="304" y="2"/>
      <point x="329" y="0"/>
      <point x="348" y="0" type="curve" smooth="yes"/>
      <point x="354" y="0"/>
      <point x="369" y="0"/>
      <point x="369" y="22" type="curve" smooth="yes"/>
      <point x="369" y="36"/>
      <point x="357" y="36"/>
      <point x="337" y="36" type="curve" smooth="yes"/>
      <point x="336" y="36"/>
      <point x="317" y="36"/>
      <point x="299" y="38" type="curve" smooth="yes"/>
      <point x="276" y="40"/>
      <point x="276" y="43"/>
      <point x="276" y="53" type="curve" smooth="yes"/>
      <point x="276" y="61"/>
      <point x="286" y="98"/>
      <point x="323" y="245" type="curve"/>
      <point x="489" y="362" type="line"/>
      <point x="634" y="81" type="line" smooth="yes"/>
      <point x="641" y="68"/>
      <point x="641" y="67"/>
      <point x="641" y="62" type="curve" smooth="yes"/>
      <point x="641" y="39"/>
      <point x="613" y="36"/>
      <point x="595" y="36" type="curve" smooth="yes"/>
      <point x="583" y="36"/>
      <point x="569" y="36"/>
      <point x="569" y="14" type="curve" smooth="yes"/>
      <point x="569" y="13"/>
      <point x="570" y="0"/>
      <point x="586" y="0" type="curve" smooth="yes"/>
      <point x="614" y="0"/>
      <point x="686" y="4"/>
      <point x="714" y="4" type="curve" smooth="yes"/>
      <point x="744" y="4"/>
      <point x="784" y="0"/>
      <point x="812" y="0" type="curve" smooth="yes"/>
      <point x="825" y="0"/>
      <point x="832" y="7"/>
      <point x="832" y="21" type="curve" smooth="yes"/>
      <point x="832" y="36"/>
      <point x="819" y="36"/>
      <point x="809" y="36" type="curve" smooth="yes"/>
      <point x="791" y="36"/>
      <point x="760" y="37"/>
      <point x="743" y="69" type="curve" smooth="yes"/>
    </contour>
  </outline>
</glyph>
<glyph name="M" format="2">
  <advance width="1089"/>
  <unicode hex="004D"/>
  <outline>
    <contour>
      <point x="1021" y="602" type="line" smooth="yes"/>
      <point x="1030" y="639"/>
      <point x="1032" y="647"/>
      <point x="1106" y="647" type="curve" smooth="yes"/>
      <point x="1127" y="647"/>
      <point x="1140" y="647"/>
      <point x="1140" y="668" type="curve" smooth="yes"/>
      <point x="1140" y="683"/>
      <point x="1128" y="683"/>
      <point x="1110" y="683" type="curve" smooth="yes"/>
      <point x="974" y="683" type="line" smooth="yes"/>
      <point x="945" y="683"/>
      <point x="944" y="682"/>
      <point x="931" y="663" type="curve" smooth="yes"/>
      <point x="545" y="93" type="line"/>
      <point x="446" y="656" type="line" smooth="yes"/>
      <point x="441" y="682"/>
      <point x="441" y="683"/>
      <point x="411" y="683" type="curve" smooth="yes"/>
      <point x="268" y="683" type="line" smooth="yes"/>
      <point x="248" y="683"/>
      <point x="235" y="683"/>
      <point x="235" y="661" type="curve" smooth="yes"/>
      <point x="235" y="647"/>
      <point x="247" y="647"/>
      <point x="269" y="647" type="curve" smooth="yes"/>
      <point x="285" y="647"/>
      <point x="289" y="647"/>
      <point x="307" y="645" type="curve" smooth="yes"/>
      <point x="327" y="643"/>
      <point x="329" y="641"/>
      <point x="329" y="631" type="curve" smooth="yes"/>
      <point x="329" y="630"/>
      <point x="329" y="624"/>
      <point x="325" y="609" type="curve" smooth="yes"/>
      <point x="199" y="107" type="line" smooth="yes"/>
      <point x="190" y="73"/>
      <point x="175" y="39"/>
      <point x="95" y="36" type="curve"/>
      <point x="87" y="36"/>
      <point x="74" y="35"/>
      <point x="74" y="14" type="curve" smooth="yes"/>
      <point x="74" y="13"/>
      <point x="75" y="0"/>
      <point x="89" y="0" type="curve" smooth="yes"/>
      <point x="119" y="0"/>
      <point x="161" y="4"/>
      <point x="193" y="4" type="curve" smooth="yes"/>
      <point x="217" y="4"/>
      <point x="275" y="0"/>
      <point x="299" y="0" type="curve" smooth="yes"/>
      <point x="304" y="0"/>
      <point x="319" y="0"/>
      <point x="319" y="22" type="curve" smooth="yes"/>
      <point x="319" y="35"/>
      <point x="306" y="36"/>
      <point x="297" y="36" type="curve" smooth="yes"/>
      <point x="233" y="38"/>
      <point x="233" y="64"/>
      <point x="233" y="78" type="curve" smooth="yes"/>
      <point x="233" y="82"/>
      <point x="233" y="87"/>
      <point x="237" y="103" type="curve" smooth="yes"/>
      <point x="370" y="635" type="line"/>
      <point x="371" y="635" type="line"/>
      <point x="478" y="27" type="line" smooth="yes"/>
      <point x="481" y="9"/>
      <point x="483" y="0"/>
      <point x="498" y="0" type="curve" smooth="yes"/>
      <point x="512" y="0"/>
      <point x="520" y="11"/>
      <point x="527" y="22" type="curve" smooth="yes"/>
      <point x="947" y="645" type="line"/>
      <point x="948" y="644" type="line"/>
      <point x="807" y="78" type="line" smooth="yes"/>
      <point x="799" y="44"/>
      <point x="797" y="36"/>
      <point x="719" y="36" type="curve" smooth="yes"/>
      <point x="701" y="36"/>
      <point x="689" y="36"/>
      <point x="689" y="14" type="curve" smooth="yes"/>
      <point x="689" y="13"/>
      <point x="689" y="0"/>
      <point x="705" y="0" type="curve" smooth="yes"/>
      <point x="724" y="0"/>
      <point x="747" y="3"/>
      <point x="767" y="3" type="curve" smooth="yes"/>
      <point x="787" y="3"/>
      <point x="810" y="4"/>
      <point x="830" y="4" type="curve" smooth="yes"/>
      <point x="858" y="4"/>
      <point x="929" y="0"/>
      <point x="957" y="0" type="curve" smooth="yes"/>
      <point x="963" y="0"/>
      <point x="978" y="0"/>
      <point x="978" y="22" type="curve" smooth="yes"/>
      <point x="978" y="36"/>
      <point x="966" y="36"/>
      <point x="946" y="36" type="curve" smooth="yes"/>
      <point x="945" y="36"/>
      <point x="926" y="36"/>
      <point x="908" y="38" type="curve" smooth="yes"/>
      <point x="885" y="40"/>
      <point x="885" y="43"/>
      <point x="885" y="53" type="curve" smooth="yes"/>
      <point x="885" y="59"/>
      <point x="888" y="69"/>
      <point x="889" y="75" type="curve"/>
    </contour>
  </outline>
</glyph>
<glyph name="N" format="2">
  <advance width="904"/>
  <unicode hex="004E"/>
  <outline>
    <contour>
      <point x="834" y="574" type="line" smooth="yes"/>
      <point x="844" y="612"/>
      <point x="860" y="645"/>
      <point x="940" y="647" type="curve" smooth="yes"/>
      <point x="945" y="647"/>
      <point x="960" y="648"/>
      <point x="960" y="669" type="curve" smooth="yes"/>
      <point x="960" y="675"/>
      <point x="955" y="683"/>
      <point x="945" y="683" type="curve" smooth="yes"/>
      <point x="912" y="683"/>
      <point x="875" y="679"/>
      <point x="841" y="679" type="curve" smooth="yes"/>
      <point x="817" y="679"/>
      <point x="759" y="683"/>
      <point x="735" y="683" type="curve" smooth="yes"/>
      <point x="730" y="683"/>
      <point x="715" y="683"/>
      <point x="715" y="661" type="curve" smooth="yes"/>
      <point x="715" y="648"/>
      <point x="728" y="647"/>
      <point x="737" y="647" type="curve" smooth="yes"/>
      <point x="784" y="646"/>
      <point x="801" y="631"/>
      <point x="801" y="606" type="curve" smooth="yes"/>
      <point x="801" y="598"/>
      <point x="800" y="593"/>
      <point x="797" y="582" type="curve" smooth="yes"/>
      <point x="688" y="146" type="line"/>
      <point x="434" y="666" type="line" smooth="yes"/>
      <point x="426" y="683"/>
      <point x="424" y="683"/>
      <point x="400" y="683" type="curve" smooth="yes"/>
      <point x="263" y="683" type="line" smooth="yes"/>
      <point x="244" y="683"/>
      <point x="231" y="683"/>
      <point x="231" y="661" type="curve" smooth="yes"/>
      <point x="231" y="647"/>
      <point x="243" y="647"/>
      <point x="264" y="647" type="curve" smooth="yes"/>
      <point x="285" y="647"/>
      <point x="307" y="646"/>
      <point x="328" y="642" type="curve"/>
      <point x="194" y="107" type="line" smooth="yes"/>
      <point x="185" y="69"/>
      <point x="168" y="39"/>
      <point x="90" y="36" type="curve"/>
      <point x="83" y="36"/>
      <point x="69" y="35"/>
      <point x="69" y="15" type="curve" smooth="yes"/>
      <point x="69" y="4"/>
      <point x="77" y="0"/>
      <point x="84" y="0" type="curve" smooth="yes"/>
      <point x="117" y="0"/>
      <point x="154" y="4"/>
      <point x="188" y="4" type="curve" smooth="yes"/>
      <point x="212" y="4"/>
      <point x="270" y="0"/>
      <point x="294" y="0" type="curve" smooth="yes"/>
      <point x="304" y="0"/>
      <point x="314" y="5"/>
      <point x="314" y="21" type="curve" smooth="yes"/>
      <point x="314" y="35"/>
      <point x="302" y="36"/>
      <point x="291" y="36" type="curve" smooth="yes"/>
      <point x="228" y="38"/>
      <point x="228" y="64"/>
      <point x="228" y="78" type="curve" smooth="yes"/>
      <point x="228" y="82"/>
      <point x="228" y="87"/>
      <point x="232" y="103" type="curve" smooth="yes"/>
      <point x="360" y="615" type="line"/>
      <point x="652" y="17" type="line" smooth="yes"/>
      <point x="660" y="1"/>
      <point x="664" y="0"/>
      <point x="674" y="0" type="curve" smooth="yes"/>
      <point x="690" y="0"/>
      <point x="690" y="3"/>
      <point x="695" y="21" type="curve" smooth="yes"/>
    </contour>
  </outline>
</glyph>
<glyph name="P" format="2">
  <advance width="727"/>
  <unicode hex="0050"/>
  <outline>
    <contour>
      <point x="190" y="82" type="line" smooth="yes"/>
      <point x="180" y="43"/>
      <point x="179" y="36"/>
      <point x="101" y="36" type="curve" smooth="yes"/>
      <point x="83" y="36"/>
      <point x="71" y="36"/>
      <point x="71" y="14" type="curve" smooth="yes"/>
      <point x="71" y="13"/>
      <point x="71" y="0"/>
      <point x="87" y="0" type="curve" smooth="yes"/>
      <point x="116" y="0"/>
      <point x="188" y="4"/>
      <point x="217" y="4" type="curve" smooth="yes"/>
      <point x="234" y="4"/>
      <point x="269" y="4"/>
      <point x="286" y="3" type="curve" smooth="yes"/>
      <point x="306" y="2"/>
      <point x="331" y="0"/>
      <point x="350" y="0" type="curve" smooth="yes"/>
      <point x="356" y="0"/>
      <point x="371" y="0"/>
      <point x="371" y="22" type="curve" smooth="yes"/>
      <point x="371" y="36"/>
      <point x="359" y="36"/>
      <point x="339" y="36" type="curve" smooth="yes"/>
      <point x="338" y="36"/>
      <point x="319" y="36"/>
      <point x="301" y="38" type="curve" smooth="yes"/>
      <point x="278" y="40"/>
      <point x="278" y="43"/>
      <point x="278" y="53" type="curve" smooth="yes"/>
      <point x="278" y="54"/>
      <point x="278" y="60"/>
      <point x="282" y="75" type="curve" smooth="yes"/>
      <point x="341" y="310" type="line"/>
      <point x="522" y="310" type="line" smooth="yes"/>
      <point x="691" y="310"/>
      <point x="834" y="418"/>
      <point x="834" y="527" type="curve" smooth="yes"/>
      <point x="834" y="611"/>
      <point x="752" y="683"/>
      <point x="615" y="683" type="curve" smooth="yes"/>
      <point x="265" y="683" type="line" smooth="yes"/>
      <point x="245" y="683"/>
      <point x="233" y="683"/>
      <point x="233" y="661" type="curve" smooth="yes"/>
      <point x="233" y="647"/>
      <point x="244" y="647"/>
      <point x="266" y="647" type="curve" smooth="yes"/>
      <point x="282" y="647"/>
      <point x="286" y="647"/>
      <point x="304" y="645" type="curve" smooth="yes"/>
      <point x="324" y="643"/>
      <point x="326" y="641"/>
      <point x="326" y="631" type="curve" smooth="yes"/>
      <point x="326" y="629"/>
      <point x="326" y="624"/>
      <point x="322" y="609" type="curve" smooth="yes"/>
    </contour>
    <contour>
      <point x="345" y="342" type="line"/>
      <point x="413" y="613" type="line" smooth="yes"/>
      <point x="421" y="644"/>
      <point x="422" y="647"/>
      <point x="464" y="647" type="curve" smooth="yes"/>
      <point x="581" y="647" type="line" smooth="yes"/>
      <point x="674" y="647"/>
      <point x="732" y="619"/>
      <point x="732" y="548" type="curve" smooth="yes"/>
      <point x="732" y="517"/>
      <point x="720" y="438"/>
      <point x="670" y="393" type="curve" smooth="yes"/>
      <point x="634" y="361"/>
      <point x="577" y="342"/>
      <point x="505" y="342" type="curve" smooth="yes"/>
    </contour>
  </outline>
</glyph>
<glyph name="Q" format="2">
  <advance width="899"/>
  <unicode hex="0051"/>
  <outline>
    <contour>
      <point x="465" y="-60" type="line" smooth="yes"/>
      <point x="465" y="-125"/>
      <point x="478" y="-194"/>
      <point x="560" y="-194" type="curve" smooth="yes"/>
      <point x="681" y="-194"/>
      <point x="739" y="-22"/>
      <point x="739" y="0" type="curve" smooth="yes"/>
      <point x="739" y="7"/>
      <point x="733" y="14"/>
      <point x="725" y="14" type="curve" smooth="yes"/>
      <point x="715" y="14"/>
      <point x="712" y="5"/>
      <point x="711" y="1" type="curve"/>
      <point x="687" y="-69"/>
      <point x="621" y="-89"/>
      <point x="587" y="-89" type="curve" smooth="yes"/>
      <point x="547" y="-89"/>
      <point x="526" y="-72"/>
      <point x="508" y="8" type="curve"/>
      <point x="686" y="71"/>
      <point x="829" y="248"/>
      <point x="829" y="425" type="curve" smooth="yes"/>
      <point x="829" y="582"/>
      <point x="716" y="703"/>
      <point x="539" y="703" type="curve" smooth="yes"/>
      <point x="300" y="703"/>
      <point x="69" y="479"/>
      <point x="69" y="254" type="curve" smooth="yes"/>
      <point x="69" y="93"/>
      <point x="188" y="-20"/>
      <point x="360" y="-20" type="curve" smooth="yes"/>
      <point x="379" y="-20"/>
      <point x="413" y="-19"/>
      <point x="465" y="-6" type="curve"/>
    </contour>
    <contour>
      <point x="292" y="25" type="curve"/>
      <point x="240" y="43"/>
      <point x="166" y="95"/>
      <point x="166" y="229" type="curve" smooth="yes"/>
      <point x="166" y="293"/>
      <point x="187" y="426"/>
      <point x="278" y="539" type="curve" smooth="yes"/>
      <point x="341" y="616"/>
      <point x="438" y="671"/>
      <point x="531" y="671" type="curve" smooth="yes"/>
      <point x="640" y="671"/>
      <point x="732" y="598"/>
      <point x="732" y="452" type="curve" smooth="yes"/>
      <point x="732" y="352"/>
      <point x="683" y="137"/>
      <point x="500" y="46" type="curve"/>
      <point x="484" y="109"/>
      <point x="458" y="151"/>
      <point x="399" y="151" type="curve" smooth="yes"/>
      <point x="343" y="151"/>
      <point x="288" y="104"/>
      <point x="288" y="51" type="curve" smooth="yes"/>
      <point x="288" y="33"/>
      <point x="289" y="32"/>
    </contour>
    <contour>
      <point x="465" y="30" type="curve"/>
      <point x="443" y="22"/>
      <point x="406" y="12"/>
      <point x="367" y="12" type="curve" smooth="yes"/>
      <point x="351" y="12"/>
      <point x="316" y="12"/>
      <point x="316" y="51" type="curve" smooth="yes"/>
      <point x="316" y="89"/>
      <point x="357" y="123"/>
      <point x="399" y="123" type="curve" smooth="yes"/>
      <point x="435" y="123"/>
      <point x="462" y="107"/>
    </contour>
  </outline>
</glyph>
<glyph name="S" format="2">
  <advance width="701"/>
  <unicode hex="0053"/>
  <outline>
    <contour>
      <point x="200" y="474" type="curve" smooth="yes"/>
      <point x="200" y="459"/>
      <point x="203" y="419"/>
      <point x="233" y="382" type="curve" smooth="yes"/>
      <point x="267" y="342"/>
      <point x="304" y="333"/>
      <point x="372" y="317" type="curve" smooth="yes"/>
      <point x="392" y="312"/>
      <point x="442" y="301"/>
      <point x="457" y="297" type="curve" smooth="yes"/>
      <point x="489" y="289"/>
      <point x="550" y="267"/>
      <point x="550" y="192" type="curve" smooth="yes"/>
      <point x="550" y="111"/>
      <point x="465" y="16"/>
      <point x="351" y="16" type="curve" smooth="yes"/>
      <point x="263" y="16"/>
      <point x="157" y="47"/>
      <point x="157" y="158" type="curve" smooth="yes"/>
      <point x="157" y="185"/>
      <point x="164" y="209"/>
      <point x="164" y="214" type="curve" smooth="yes"/>
      <point x="164" y="227"/>
      <point x="152" y="227"/>
      <point x="148" y="227" type="curve" smooth="yes"/>
      <point x="134" y="227"/>
      <point x="134" y="225"/>
      <point x="129" y="207" type="curve" smooth="yes"/>
      <point x="111.684" y="139.06799999999998"/>
      <point x="94.368" y="71.136"/>
      <point x="77" y="3" type="curve" smooth="yes"/>
      <point x="74" y="-8"/>
      <point x="74" y="-20"/>
      <point x="87" y="-20" type="curve" smooth="yes"/>
      <point x="94" y="-20"/>
      <point x="96" y="-19"/>
      <point x="109" y="-6" type="curve" smooth="yes"/>
      <point x="120" y="6"/>
      <point x="146" y="37"/>
      <point x="157" y="50" type="curve"/>
      <point x="210" y="-8"/>
      <point x="288" y="-20"/>
      <point x="348" y="-20" type="curve" smooth="yes"/>
      <point x="499" y="-20"/>
      <point x="621" y="110"/>
      <point x="621" y="228" type="curve" smooth="yes"/>
      <point x="621" y="272"/>
      <point x="603" y="312"/>
      <point x="581" y="335" type="curve" smooth="yes"/>
      <point x="546" y="371"/>
      <point x="531" y="375"/>
      <point x="402" y="405" type="curve" smooth="yes"/>
      <point x="381" y="410"/>
      <point x="348" y="418"/>
      <point x="339" y="421" type="curve" smooth="yes"/>
      <point x="314" y="430"/>
      <point x="272" y="455"/>
      <point x="272" y="512" type="curve" smooth="yes"/>
      <point x="272" y="591"/>
      <point x="361" y="671"/>
      <point x="465" y="671" type="curve" smooth="yes"/>
      <point x="573" y="671"/>
      <point x="625" y="610"/>
      <point x="625" y="515" type="curve" smooth="yes"/>
      <point x="625" y="502"/>
      <point x="621" y="479"/>
      <point x="621" y="470" type="curve" smooth="yes"/>
      <point x="621" y="456"/>
      <point x="633" y="456"/>
      <point x="638" y="456" type="curve" smooth="yes"/>
      <point x="653" y="456"/>
      <point x="654" y="461"/>
      <point x="658" y="478" type="curve" smooth="yes"/>
      <point x="710" y="690" type="line"/>
      <point x="710" y="695"/>
      <point x="707" y="703"/>
      <point x="697" y="703" type="curve" smooth="yes"/>
      <point x="691" y="703"/>
      <point x="690" y="702"/>
      <point x="677" y="689" type="curve"/>
      <point x="660.683" y="670.019"/>
      <point x="644.366" y="651.038"/>
      <point x="628" y="632" type="curve"/>
      <point x="590" y="685"/>
      <point x="527" y="703"/>
      <point x="466" y="703" type="curve" smooth="yes"/>
      <point x="325" y="703"/>
      <point x="200" y="589"/>
    </contour>
  </outline>
</glyph>
<glyph name="T" format="2">
  <advance width="674"/>
  <unicode hex="0054"/>
  <outline>
    <contour>
      <point x="261" y="83" type="line" smooth="yes"/>
      <point x="253.99998" y="54.222139999999996"/>
      <point x="250.6296103704" y="41.7777066668"/>
      <point x="200.0736407395852" y="37.668003182645826" type="curve" smooth="yes"/>
      <point x="185.6292637032" y="36.493817284"/>
      <point x="167.3331" y="36.0"/>
      <point x="144" y="36" type="curve" smooth="yes"/>
      <point x="108" y="36"/>
      <point x="99" y="36"/>
      <point x="99" y="14" type="curve" smooth="yes"/>
      <point x="99" y="11"/>
      <point x="101" y="0"/>
      <point x="116" y="0" type="curve" smooth="yes"/>
      <point x="144" y="0"/>
      <point x="174" y="3"/>
      <point x="202" y="3" type="curve" smooth="yes"/>
      <point x="259" y="4"/>
      <point x="322.0" y="5.0"/>
      <point x="378" y="3" type="curve" smooth="yes"/>
      <point x="405" y="2"/>
      <point x="435" y="0"/>
      <point x="462" y="0" type="curve" smooth="yes"/>
      <point x="470" y="0"/>
      <point x="485" y="0"/>
      <point x="485" y="22" type="curve" smooth="yes"/>
      <point x="485" y="36"/>
      <point x="475" y="36"/>
      <point x="444" y="36" type="curve" smooth="yes"/>
      <point x="425" y="36"/>
      <point x="405" y="37"/>
      <point x="386" y="38" type="curve" smooth="yes"/>
      <point x="352" y="40"/>
      <point x="343.14286" y="42.0"/>
      <point x="354" y="80" type="curve" smooth="yes"/>
      <point x="486" y="605" type="line" smooth="yes"/>
      <point x="493" y="634"/>
      <point x="495" y="639"/>
      <point x="521" y="639" type="curve" smooth="yes"/>
      <point x="559.125" y="639.625"/>
      <point x="602" y="641"/>
      <point x="637.42578125" y="639.3125" type="curve" smooth="yes"/>
      <point x="735" y="635"/>
      <point x="736.0" y="598.96442"/>
      <point x="736" y="553" type="curve" smooth="yes"/>
      <point x="736" y="537"/>
      <point x="735" y="511"/>
      <point x="728" y="466" type="curve" smooth="yes"/>
      <point x="726" y="451"/>
      <point x="732" y="446"/>
      <point x="744" y="446" type="curve" smooth="yes"/>
      <point x="759" y="446"/>
      <point x="761" y="455"/>
      <point x="763" y="471" type="curve" smooth="yes"/>
      <point x="790" y="659" type="line" smooth="yes"/>
      <point x="792" y="676"/>
      <point x="778" y="676"/>
      <point x="762" y="676" type="curve" smooth="yes"/>
      <point x="145" y="676" type="line" smooth="yes"/>
      <point x="120" y="676"/>
      <point x="118" y="676"/>
      <point x="111" y="655" type="curve" smooth="yes"/>
      <point x="48" y="478" type="line" smooth="yes"/>
      <point x="47" y="474"/>
      <point x="43" y="465"/>
      <point x="43" y="460" type="curve" smooth="yes"/>
      <point x="43" y="456"/>
      <point x="45" y="446"/>
      <point x="60" y="446" type="curve" smooth="yes"/>
      <point x="73" y="446"/>
      <point x="75" y="451"/>
      <point x="81" y="470" type="curve" smooth="yes"/>
      <point x="139" y="630"/>
      <point x="172" y="640"/>
      <point x="324" y="640" type="curve" smooth="yes"/>
      <point x="366" y="640" type="line" smooth="yes"/>
      <point x="396" y="640"/>
      <point x="397" y="639"/>
      <point x="397" y="630" type="curve" smooth="yes"/>
      <point x="397" y="629"/>
      <point x="397" y="624"/>
      <point x="393" y="609" type="curve" smooth="yes"/>
    </contour>
  </outline>
</glyph>
<glyph name="V" format="2">
  <advance width="674"/>
  <unicode hex="0056"/>
  <outline>
    <contour>
      <point x="299" y="-20" type="curve" smooth="yes"/>
      <point x="318" y="-20"/>
      <point x="323" y="-13"/>
      <point x="333" y="2" type="curve" smooth="yes"/>
      <point x="715" y="564" type="line" smooth="yes"/>
      <point x="752" y="618"/>
      <point x="784" y="643"/>
      <point x="838" y="647" type="curve" smooth="yes"/>
      <point x="850" y="648"/>
      <point x="861" y="649"/>
      <point x="861" y="669" type="curve" smooth="yes"/>
      <point x="861" y="672"/>
      <point x="859" y="683"/>
      <point x="847" y="683" type="curve" smooth="yes"/>
      <point x="823" y="683"/>
      <point x="792" y="679"/>
      <point x="767" y="679" type="curve" smooth="yes"/>
      <point x="735" y="679"/>
      <point x="693" y="683"/>
      <point x="663" y="683" type="curve" smooth="yes"/>
      <point x="654" y="683"/>
      <point x="643" y="680"/>
      <point x="643" y="661" type="curve" smooth="yes"/>
      <point x="643" y="648"/>
      <point x="657" y="647"/>
      <point x="661" y="647" type="curve" smooth="yes"/>
      <point x="693" y="647"/>
      <point x="702" y="633"/>
      <point x="702" y="618" type="curve" smooth="yes"/>
      <point x="702" y="604"/>
      <point x="695" y="594"/>
      <point x="684" y="578" type="curve" smooth="yes"/>
      <point x="356" y="94" type="line"/>
      <point x="265" y="605" type="line" smooth="yes"/>
      <point x="263" y="614"/>
      <point x="263" y="616"/>
      <point x="263" y="620" type="curve" smooth="yes"/>
      <point x="263" y="647"/>
      <point x="319" y="647"/>
      <point x="326" y="647" type="curve" smooth="yes"/>
      <point x="343" y="647"/>
      <point x="356" y="647"/>
      <point x="356" y="669" type="curve" smooth="yes"/>
      <point x="356" y="670"/>
      <point x="355" y="683"/>
      <point x="339" y="683" type="curve" smooth="yes"/>
      <point x="323" y="683"/>
      <point x="294" y="682"/>
      <point x="267" y="681" type="curve" smooth="yes"/>
      <point x="230" y="679"/>
      <point x="207" y="679"/>
      <point x="170" y="680" type="curve" smooth="yes"/>
      <point x="144" y="681"/>
      <point x="115" y="683"/>
      <point x="99" y="683" type="curve" smooth="yes"/>
      <point x="90" y="683"/>
      <point x="79" y="680"/>
      <point x="79" y="661" type="curve" smooth="yes"/>
      <point x="79" y="647"/>
      <point x="93" y="647"/>
      <point x="104" y="647" type="curve" smooth="yes"/>
      <point x="160" y="647"/>
      <point x="161" y="641"/>
      <point x="166" y="615" type="curve" smooth="yes"/>
      <point x="275" y="7" type="line" smooth="yes"/>
      <point x="279" y="-14"/>
      <point x="280" y="-20"/>
    </contour>
  </outline>
</glyph>
<glyph name="W" format="2">
  <advance width="1074"/>
  <unicode hex="0057"/>
  <outline>
    <contour>
      <point x="586" y="514" type="line"/>
      <point x="641" y="6" type="line" smooth="yes"/>
      <point x="643" y="-15"/>
      <point x="648" y="-20"/>
      <point x="663" y="-20" type="curve" smooth="yes"/>
      <point x="680" y="-20"/>
      <point x="686" y="-11"/>
      <point x="693" y="1" type="curve" smooth="yes"/>
      <point x="1036" y="565" type="line"/>
      <point x="1073" y="621"/>
      <point x="1099" y="643"/>
      <point x="1148" y="647" type="curve" smooth="yes"/>
      <point x="1159" y="648"/>
      <point x="1171" y="649"/>
      <point x="1171" y="669" type="curve" smooth="yes"/>
      <point x="1171" y="676"/>
      <point x="1165" y="683"/>
      <point x="1157" y="683" type="curve" smooth="yes"/>
      <point x="1134" y="683"/>
      <point x="1105" y="679"/>
      <point x="1081" y="679" type="curve" smooth="yes"/>
      <point x="1046" y="679"/>
      <point x="1003" y="683"/>
      <point x="970" y="683" type="curve" smooth="yes"/>
      <point x="965" y="683"/>
      <point x="949" y="683"/>
      <point x="949" y="661" type="curve" smooth="yes"/>
      <point x="949" y="648"/>
      <point x="963" y="647"/>
      <point x="967" y="647" type="curve" smooth="yes"/>
      <point x="989" y="646"/>
      <point x="1022" y="640"/>
      <point x="1022" y="612" type="curve" smooth="yes"/>
      <point x="1022" y="601"/>
      <point x="1011" y="583"/>
      <point x="1007" y="576" type="curve" smooth="yes"/>
      <point x="725" y="113" type="line"/>
      <point x="670" y="616" type="line" smooth="yes"/>
      <point x="667" y="646"/>
      <point x="728" y="647"/>
      <point x="740" y="647" type="curve" smooth="yes"/>
      <point x="753" y="647"/>
      <point x="767" y="647"/>
      <point x="767" y="669" type="curve" smooth="yes"/>
      <point x="767" y="670"/>
      <point x="766" y="683"/>
      <point x="750" y="683" type="curve" smooth="yes"/>
      <point x="731" y="683"/>
      <point x="707" y="681"/>
      <point x="688" y="680" type="curve" smooth="yes"/>
      <point x="668" y="679"/>
      <point x="620" y="679"/>
      <point x="597" y="680" type="curve" smooth="yes"/>
      <point x="574" y="681"/>
      <point x="540" y="683"/>
      <point x="517" y="683" type="curve" smooth="yes"/>
      <point x="512" y="683"/>
      <point x="497" y="683"/>
      <point x="497" y="661" type="curve" smooth="yes"/>
      <point x="497" y="647"/>
      <point x="510" y="647"/>
      <point x="523" y="647" type="curve" smooth="yes"/>
      <point x="566" y="647"/>
      <point x="571" y="640"/>
      <point x="574" y="630" type="curve" smooth="yes"/>
      <point x="575" y="624"/>
      <point x="578" y="594"/>
      <point x="581" y="565" type="curve"/>
      <point x="581" y="565" type="line"/>
      <point x="306" y="113" type="line"/>
      <point x="251" y="617" type="line" smooth="yes"/>
      <point x="248" y="646"/>
      <point x="313" y="647"/>
      <point x="321" y="647" type="curve" smooth="yes"/>
      <point x="334" y="647"/>
      <point x="348" y="647"/>
      <point x="348" y="669" type="curve" smooth="yes"/>
      <point x="348" y="673"/>
      <point x="345" y="683"/>
      <point x="332" y="683" type="curve" smooth="yes"/>
      <point x="315" y="683"/>
      <point x="285" y="681"/>
      <point x="256" y="680" type="curve" smooth="yes"/>
      <point x="212" y="679"/>
      <point x="188" y="679"/>
      <point x="159" y="680" type="curve" smooth="yes"/>
      <point x="138" y="681"/>
      <point x="116" y="683"/>
      <point x="98" y="683" type="curve" smooth="yes"/>
      <point x="88" y="683"/>
      <point x="78" y="679"/>
      <point x="78" y="662" type="curve" smooth="yes"/>
      <point x="78" y="647"/>
      <point x="90" y="647"/>
      <point x="106" y="647" type="curve" smooth="yes"/>
      <point x="153" y="647"/>
      <point x="153" y="641"/>
      <point x="156" y="616" type="curve" smooth="yes"/>
      <point x="223" y="7" type="line" smooth="yes"/>
      <point x="225" y="-13"/>
      <point x="226" y="-20"/>
      <point x="244" y="-20" type="curve" smooth="yes"/>
      <point x="261" y="-20"/>
      <point x="268" y="-11"/>
      <point x="274" y="0" type="curve" smooth="yes"/>
    </contour>
  </outline>
</glyph>
<glyph name="X" format="2">
  <advance width="936"/>
  <unicode hex="0058"/>
  <outline>
    <contour>
      <point x="556" y="382" type="curve"/>
      <point x="587.635" y="413.635"/>
      <point x="619.27" y="445.27"/>
      <point x="651" y="477" type="curve" smooth="yes"/>
      <point x="779" y="603"/>
      <point x="818" y="642"/>
      <point x="908" y="647" type="curve" smooth="yes"/>
      <point x="921" y="648"/>
      <point x="933" y="648"/>
      <point x="933" y="668" type="curve" smooth="yes"/>
      <point x="933" y="680"/>
      <point x="922" y="683"/>
      <point x="919" y="683" type="curve" smooth="yes"/>
      <point x="890" y="683"/>
      <point x="855" y="679"/>
      <point x="825" y="679" type="curve" smooth="yes"/>
      <point x="799" y="679"/>
      <point x="735" y="683"/>
      <point x="709" y="683" type="curve" smooth="yes"/>
      <point x="701" y="683"/>
      <point x="689" y="680"/>
      <point x="689" y="661" type="curve" smooth="yes"/>
      <point x="689" y="660"/>
      <point x="689" y="648"/>
      <point x="704" y="647" type="curve" smooth="yes"/>
      <point x="713" y="646"/>
      <point x="738" y="644"/>
      <point x="738" y="622" type="curve" smooth="yes"/>
      <point x="738" y="607"/>
      <point x="723" y="591"/>
      <point x="713" y="581" type="curve" smooth="yes"/>
      <point x="541" y="412" type="line"/>
      <point x="440" y="608" type="line" smooth="yes"/>
      <point x="437" y="614"/>
      <point x="435" y="618"/>
      <point x="435" y="622" type="curve" smooth="yes"/>
      <point x="435" y="629"/>
      <point x="454" y="647"/>
      <point x="488" y="647" type="curve" smooth="yes"/>
      <point x="495" y="647"/>
      <point x="509" y="648"/>
      <point x="509" y="669" type="curve" smooth="yes"/>
      <point x="509" y="670"/>
      <point x="508" y="683"/>
      <point x="492" y="683" type="curve" smooth="yes"/>
      <point x="471" y="683"/>
      <point x="446" y="681"/>
      <point x="425" y="680" type="curve" smooth="yes"/>
      <point x="387" y="679"/>
      <point x="341.23529" y="677.76471"/>
      <point x="301" y="680" type="curve" smooth="yes"/>
      <point x="284" y="681"/>
      <point x="263" y="683"/>
      <point x="247" y="683" type="curve" smooth="yes"/>
      <point x="242" y="683"/>
      <point x="226" y="683"/>
      <point x="226" y="661" type="curve" smooth="yes"/>
      <point x="226" y="647"/>
      <point x="239" y="647"/>
      <point x="255" y="647" type="curve" smooth="yes"/>
      <point x="313" y="647"/>
      <point x="318" y="637"/>
      <point x="328" y="617" type="curve" smooth="yes"/>
      <point x="374.62" y="525.092"/>
      <point x="421.24" y="433.18399999999997"/>
      <point x="468" y="341" type="curve"/>
      <point x="393" y="266"/>
      <point x="346" y="222"/>
      <point x="328" y="203" type="curve" smooth="yes"/>
      <point x="206" y="82"/>
      <point x="165" y="40"/>
      <point x="75" y="36" type="curve" smooth="yes"/>
      <point x="61" y="35"/>
      <point x="50" y="35"/>
      <point x="50" y="14" type="curve" smooth="yes"/>
      <point x="50" y="10"/>
      <point x="53" y="0"/>
      <point x="64" y="0" type="curve" smooth="yes"/>
      <point x="93" y="0"/>
      <point x="127" y="4"/>
      <point x="167" y="4" type="curve" smooth="yes"/>
      <point x="222" y="4"/>
      <point x="239.94145" y="0"/>
      <point x="273" y="0" type="curve" smooth="yes"/>
      <point x="278" y="0"/>
      <point x="294" y="0"/>
      <point x="294" y="21" type="curve" smooth="yes"/>
      <point x="294" y="35"/>
      <point x="282" y="36"/>
      <point x="276" y="36" type="curve" smooth="yes"/>
      <point x="266" y="36"/>
      <point x="245" y="40"/>
      <point x="245" y="61" type="curve" smooth="yes"/>
      <point x="245" y="77"/>
      <point x="258" y="90"/>
      <point x="280" y="112" type="curve" smooth="yes"/>
      <point x="347.599" y="178.267"/>
      <point x="415.198" y="244.53400000000002"/>
      <point x="483" y="311" type="curve"/>
      <point x="604" y="74" type="line" smooth="yes"/>
      <point x="609" y="64"/>
      <point x="610" y="62"/>
      <point x="610" y="61" type="curve" smooth="yes"/>
      <point x="610" y="55"/>
      <point x="592" y="39"/>
      <point x="557" y="36" type="curve" smooth="yes"/>
      <point x="548" y="35"/>
      <point x="535" y="35"/>
      <point x="535" y="14" type="curve" smooth="yes"/>
      <point x="535" y="13"/>
      <point x="536" y="0"/>
      <point x="552" y="0" type="curve" smooth="yes"/>
      <point x="573" y="0"/>
      <point x="598" y="3"/>
      <point x="619" y="3" type="curve" smooth="yes"/>
      <point x="657" y="3"/>
      <point x="702.76471" y="5.23529"/>
      <point x="743" y="3" type="curve" smooth="yes"/>
      <point x="760" y="2"/>
      <point x="781" y="0"/>
      <point x="797" y="0" type="curve" smooth="yes"/>
      <point x="802" y="0"/>
      <point x="818" y="0"/>
      <point x="818" y="22" type="curve" smooth="yes"/>
      <point x="818" y="36"/>
      <point x="805" y="36"/>
      <point x="789" y="36" type="curve" smooth="yes"/>
      <point x="731" y="36"/>
      <point x="726" y="47"/>
      <point x="717" y="64" type="curve" smooth="yes"/>
      <point x="663.387" y="169.894"/>
      <point x="609.774" y="275.788"/>
    </contour>
  </outline>
</glyph>
<glyph name="Y" format="2">
  <advance width="671"/>
  <unicode hex="0059"/>
  <outline>
    <contour>
      <point x="401" y="319" type="line"/>
      <point x="269" y="612" type="line" smooth="yes"/>
      <point x="262" y="626"/>
      <point x="262" y="628"/>
      <point x="262" y="629" type="curve" smooth="yes"/>
      <point x="262" y="647"/>
      <point x="310" y="647"/>
      <point x="316" y="647" type="curve" smooth="yes"/>
      <point x="329" y="647"/>
      <point x="342" y="647"/>
      <point x="342" y="669" type="curve" smooth="yes"/>
      <point x="342" y="670"/>
      <point x="342" y="683"/>
      <point x="326" y="683" type="curve" smooth="yes"/>
      <point x="309.8807" y="683.0"/>
      <point x="281.05851041159997" y="681.8451918556"/>
      <point x="253.18421044428646" y="680.7765554949352" type="curve" smooth="yes"/>
      <point x="216" y="679"/>
      <point x="195.55936" y="678.43916"/>
      <point x="159.10446810466803" y="679.9447468610597" type="curve" smooth="yes"/>
      <point x="130.4680896399" y="681.1274267036"/>
      <point x="95.10525000000001" y="683.0"/>
      <point x="78" y="683" type="curve" smooth="yes"/>
      <point x="70" y="683"/>
      <point x="58" y="680"/>
      <point x="58" y="661" type="curve" smooth="yes"/>
      <point x="58" y="647"/>
      <point x="71" y="647"/>
      <point x="85" y="647" type="curve" smooth="yes"/>
      <point x="143" y="647"/>
      <point x="147" y="638"/>
      <point x="157" y="616" type="curve" smooth="yes"/>
      <point x="312" y="274" type="line"/>
      <point x="312.0" y="274.0"/>
      <point x="312.0" y="274.0"/>
      <point x="312" y="274" type="curve"/>
      <point x="297.015" y="213.061"/>
      <point x="282.03" y="152.122"/>
      <point x="267" y="91" type="curve" smooth="yes"/>
      <point x="254" y="40"/>
      <point x="253" y="37"/>
      <point x="175" y="36" type="curve" smooth="yes"/>
      <point x="158" y="36"/>
      <point x="145" y="36"/>
      <point x="145" y="15" type="curve" smooth="yes"/>
      <point x="145" y="5"/>
      <point x="152" y="0"/>
      <point x="161" y="0" type="curve" smooth="yes"/>
      <point x="180" y="0"/>
      <point x="203" y="3"/>
      <point x="223" y="3" type="curve" smooth="yes"/>
      <point x="263" y="4"/>
      <point x="313" y="4"/>
      <point x="353" y="3" type="curve" smooth="yes"/>
      <point x="374" y="2"/>
      <point x="399" y="0"/>
      <point x="420" y="0" type="curve" smooth="yes"/>
      <point x="426" y="0"/>
      <point x="442" y="0"/>
      <point x="442" y="22" type="curve" smooth="yes"/>
      <point x="442" y="36"/>
      <point x="430" y="36"/>
      <point x="408" y="36" type="curve" smooth="yes"/>
      <point x="392" y="36"/>
      <point x="388" y="36"/>
      <point x="370" y="38" type="curve" smooth="yes"/>
      <point x="351" y="40"/>
      <point x="348" y="42"/>
      <point x="348" y="52" type="curve" smooth="yes"/>
      <point x="348" y="58"/>
      <point x="360" y="106"/>
      <point x="367" y="133" type="curve" smooth="yes"/>
      <point x="377.323" y="173.959"/>
      <point x="387.646" y="214.918"/>
      <point x="398" y="256" type="curve" smooth="yes"/>
      <point x="402" y="271"/>
      <point x="402" y="273"/>
      <point x="412" y="283" type="curve" smooth="yes"/>
      <point x="678" y="563" type="line" smooth="yes"/>
      <point x="697" y="583"/>
      <point x="717" y="601"/>
      <point x="739" y="616" type="curve" smooth="yes"/>
      <point x="780" y="644"/>
      <point x="817" y="646"/>
      <point x="830" y="647" type="curve" smooth="yes"/>
      <point x="841" y="648"/>
      <point x="853" y="648"/>
      <point x="853" y="669" type="curve" smooth="yes"/>
      <point x="853" y="676"/>
      <point x="847" y="683"/>
      <point x="839" y="683" type="curve" smooth="yes"/>
      <point x="814" y="683"/>
      <point x="784" y="679"/>
      <point x="758" y="679" type="curve" smooth="yes"/>
      <point x="726" y="679"/>
      <point x="684" y="683"/>
      <point x="654" y="683" type="curve" smooth="yes"/>
      <point x="649" y="683"/>
      <point x="634" y="683"/>
      <point x="634" y="661" type="curve" smooth="yes"/>
      <point x="634" y="648"/>
      <point x="647" y="647"/>
      <point x="652" y="647" type="curve" smooth="yes"/>
      <point x="681" y="646"/>
      <point x="681" y="634"/>
      <point x="681" y="628" type="curve" smooth="yes"/>
      <point x="681" y="614"/>
      <point x="659" y="588"/>
      <point x="651" y="580" type="curve" smooth="yes"/>
    </contour>
  </outline>
</glyph>
<glyph name="Z" format="2">
  <advance width="778"/>
  <unicode hex="005A"/>
  <outline>
    <contour>
      <point x="783" y="644" type="line" smooth="yes"/>
      <point x="791" y="652"/>
      <point x="797" y="659"/>
      <point x="797" y="672" type="curve" smooth="yes"/>
      <point x="797" y="683"/>
      <point x="789" y="683"/>
      <point x="770" y="683" type="curve" smooth="yes"/>
      <point x="303" y="683" type="line" smooth="yes"/>
      <point x="277" y="683"/>
      <point x="276" y="682"/>
      <point x="270" y="663" type="curve" smooth="yes"/>
      <point x="214" y="483" type="line" smooth="yes"/>
      <point x="210" y="471"/>
      <point x="210" y="470"/>
      <point x="210" y="467" type="curve" smooth="yes"/>
      <point x="210" y="462"/>
      <point x="214" y="453"/>
      <point x="227" y="453" type="curve" smooth="yes"/>
      <point x="240" y="453"/>
      <point x="242" y="459"/>
      <point x="245" y="469" type="curve" smooth="yes"/>
      <point x="293" y="610"/>
      <point x="371" y="647"/>
      <point x="500" y="647" type="curve" smooth="yes"/>
      <point x="680" y="647" type="line"/>
      <point x="97" y="44" type="line" smooth="yes"/>
      <point x="90" y="37"/>
      <point x="80" y="27"/>
      <point x="80" y="11" type="curve" smooth="yes"/>
      <point x="80" y="0"/>
      <point x="89" y="0"/>
      <point x="107" y="0" type="curve" smooth="yes"/>
      <point x="591" y="0" type="line" smooth="yes"/>
      <point x="617" y="0"/>
      <point x="618" y="1"/>
      <point x="624" y="20" type="curve" smooth="yes"/>
      <point x="696" y="243" type="line" smooth="yes"/>
      <point x="700" y="256"/>
      <point x="700" y="258"/>
      <point x="700" y="259" type="curve" smooth="yes"/>
      <point x="700" y="260"/>
      <point x="700" y="273"/>
      <point x="684" y="273" type="curve" smooth="yes"/>
      <point x="671" y="273"/>
      <point x="669" y="269"/>
      <point x="662" y="247" type="curve" smooth="yes"/>
      <point x="616" y="110"/>
      <point x="565" y="40"/>
      <point x="391" y="40" type="curve" smooth="yes"/>
      <point x="200" y="40" type="line"/>
    </contour>
  </outline>
</glyph>
<glyph name="b" format="2">
  <advance width="502"/>
  <unicode hex="0062"/>
  <outline>
    <contour>
      <point x="264" y="664" type="line"/>
      <point x="265" y="666"/>
      <point x="268" y="679"/>
      <point x="268" y="680" type="curve" smooth="yes"/>
      <point x="268" y="685"/>
      <point x="264" y="694"/>
      <point x="252" y="694" type="curve" smooth="yes"/>
      <point x="232" y="694"/>
      <point x="149" y="686"/>
      <point x="124" y="684" type="curve" smooth="yes"/>
      <point x="116" y="683"/>
      <point x="102" y="682"/>
      <point x="102" y="661" type="curve" smooth="yes"/>
      <point x="102" y="647"/>
      <point x="116" y="647"/>
      <point x="128" y="647" type="curve" smooth="yes"/>
      <point x="176" y="647"/>
      <point x="176" y="640"/>
      <point x="176" y="632" type="curve" smooth="yes"/>
      <point x="176" y="625"/>
      <point x="166" y="585"/>
      <point x="160" y="562" type="curve" smooth="yes"/>
      <point x="137" y="470" type="line" smooth="yes"/>
      <point x="128" y="436"/>
      <point x="73" y="217"/>
      <point x="71" y="204" type="curve"/>
      <point x="66" y="180"/>
      <point x="66" y="167"/>
      <point x="66" y="155" type="curve" smooth="yes"/>
      <point x="66" y="54"/>
      <point x="130" y="-10"/>
      <point x="213" y="-10" type="curve" smooth="yes"/>
      <point x="338" y="-10"/>
      <point x="471" y="126"/>
      <point x="471" y="274" type="curve" smooth="yes"/>
      <point x="471" y="391"/>
      <point x="390" y="441"/>
      <point x="321" y="441" type="curve" smooth="yes"/>
      <point x="269" y="441"/>
      <point x="225" y="412"/>
      <point x="195" y="386" type="curve"/>
    </contour>
    <contour>
      <point x="214" y="18" type="curve" smooth="yes"/>
      <point x="165" y="18"/>
      <point x="137" y="61"/>
      <point x="137" y="120" type="curve" smooth="yes"/>
      <point x="137" y="157"/>
      <point x="146" y="191"/>
      <point x="174" y="304" type="curve"/>
      <point x="180" y="323"/>
      <point x="180" y="325"/>
      <point x="199" y="347" type="curve" smooth="yes"/>
      <point x="237" y="391"/>
      <point x="282" y="413"/>
      <point x="318" y="413" type="curve" smooth="yes"/>
      <point x="357" y="413"/>
      <point x="391" y="384"/>
      <point x="391" y="316" type="curve" smooth="yes"/>
      <point x="391" y="275"/>
      <point x="369" y="173"/>
      <point x="339" y="115" type="curve" smooth="yes"/>
      <point x="315" y="66"/>
      <point x="265" y="18"/>
    </contour>
  </outline>
</glyph>
<glyph name="c" format="2">
  <advance width="510"/>
  <unicode hex="0063"/>
  <outline>
    <contour>
      <point x="62" y="164" type="curve" smooth="yes"/>
      <point x="62" y="78"/>
      <point x="122" y="-10"/>
      <point x="247" y="-10" type="curve" smooth="yes"/>
      <point x="309.69393" y="-10.0"/>
      <point x="360.002173319" y="3.624255349100002"/>
      <point x="398.4863066244284" y="21.479119973952173" type="curve" smooth="yes"/>
      <point x="463.7413794689" y="51.75446702350001"/>
      <point x="495.0" y="94.19358000000003"/>
      <point x="495" y="103" type="curve" smooth="yes"/>
      <point x="495" y="109"/>
      <point x="486" y="120"/>
      <point x="478" y="120" type="curve" smooth="yes"/>
      <point x="472" y="120"/>
      <point x="470" y="118"/>
      <point x="462" y="110" type="curve"/>
      <point x="384" y="18"/>
      <point x="267" y="18"/>
      <point x="249" y="18" type="curve" smooth="yes"/>
      <point x="177" y="18"/>
      <point x="145" y="67"/>
      <point x="145" y="129" type="curve" smooth="yes"/>
      <point x="145" y="158"/>
      <point x="159" y="267"/>
      <point x="211" y="336" type="curve" smooth="yes"/>
      <point x="249" y="385"/>
      <point x="301" y="413"/>
      <point x="351" y="413" type="curve" smooth="yes"/>
      <point x="365" y="413"/>
      <point x="413" y="411"/>
      <point x="438" y="383" type="curve"/>
      <point x="426.00012" y="381.00002"/>
      <point x="416.33352666689996" y="376.5556444442"/>
      <point x="408.7780044450778" y="370.70387925883705" type="curve" smooth="yes"/>
      <point x="393.6667333335" y="359.0001733334"/>
      <point x="387.0" y="341.66674"/>
      <point x="387" y="327" type="curve" smooth="yes"/>
      <point x="387" y="300"/>
      <point x="408" y="290"/>
      <point x="426" y="290" type="curve" smooth="yes"/>
      <point x="448" y="290"/>
      <point x="483" y="306"/>
      <point x="483" y="354" type="curve" smooth="yes"/>
      <point x="483" y="422"/>
      <point x="405" y="441"/>
      <point x="351" y="441" type="curve" smooth="yes"/>
      <point x="201" y="441"/>
      <point x="62" y="303"/>
    </contour>
  </outline>
</glyph>
<glyph name="d" format="2">
  <advance width="594"/>
  <unicode hex="0064"/>
  <outline>
    <contour>
      <point x="571" y="664" type="line"/>
      <point x="572" y="666"/>
      <point x="575" y="679"/>
      <point x="575" y="680" type="curve" smooth="yes"/>
      <point x="575" y="685"/>
      <point x="571" y="694"/>
      <point x="559" y="694" type="curve" smooth="yes"/>
      <point x="539" y="694"/>
      <point x="456" y="686"/>
      <point x="431" y="684" type="curve" smooth="yes"/>
      <point x="423" y="683"/>
      <point x="409" y="682"/>
      <point x="409" y="661" type="curve" smooth="yes"/>
      <point x="409" y="647"/>
      <point x="423" y="647"/>
      <point x="435" y="647" type="curve" smooth="yes"/>
      <point x="483" y="647"/>
      <point x="483" y="640"/>
      <point x="483" y="632" type="curve" smooth="yes"/>
      <point x="483" y="625"/>
      <point x="481" y="619"/>
      <point x="479" y="610" type="curve" smooth="yes"/>
      <point x="422" y="382" type="line"/>
      <point x="401" y="415"/>
      <point x="367" y="441"/>
      <point x="319" y="441" type="curve" smooth="yes"/>
      <point x="191" y="441"/>
      <point x="61" y="300"/>
      <point x="61" y="156" type="curve" smooth="yes"/>
      <point x="61" y="59"/>
      <point x="126" y="-10"/>
      <point x="212" y="-10" type="curve" smooth="yes"/>
      <point x="266" y="-10"/>
      <point x="314" y="21"/>
      <point x="354" y="60" type="curve"/>
      <point x="373" y="0"/>
      <point x="431" y="-10"/>
      <point x="457" y="-10" type="curve" smooth="yes"/>
      <point x="493" y="-10"/>
      <point x="518" y="12"/>
      <point x="536" y="43" type="curve" smooth="yes"/>
      <point x="558" y="82"/>
      <point x="571" y="139"/>
      <point x="571" y="143" type="curve" smooth="yes"/>
      <point x="571" y="156"/>
      <point x="558" y="156"/>
      <point x="555" y="156" type="curve" smooth="yes"/>
      <point x="541" y="156"/>
      <point x="540" y="152"/>
      <point x="533" y="125" type="curve" smooth="yes"/>
      <point x="521" y="77"/>
      <point x="502" y="18"/>
      <point x="460" y="18" type="curve" smooth="yes"/>
      <point x="434" y="18"/>
      <point x="427" y="40"/>
      <point x="427" y="67" type="curve" smooth="yes"/>
      <point x="427" y="86"/>
      <point x="429" y="95"/>
      <point x="432" y="108" type="curve" smooth="yes"/>
    </contour>
    <contour>
      <point x="358" y="125" type="line" smooth="yes"/>
      <point x="351" y="97"/>
      <point x="329" y="77"/>
      <point x="307" y="58" type="curve" smooth="yes"/>
      <point x="298" y="50"/>
      <point x="258" y="18"/>
      <point x="215" y="18" type="curve" smooth="yes"/>
      <point x="178" y="18"/>
      <point x="142" y="44"/>
      <point x="142" y="115" type="curve" smooth="yes"/>
      <point x="142" y="168"/>
      <point x="171" y="278"/>
      <point x="194" y="318" type="curve" smooth="yes"/>
      <point x="240" y="398"/>
      <point x="291" y="413"/>
      <point x="319" y="413" type="curve" smooth="yes"/>
      <point x="389" y="413"/>
      <point x="408" y="337"/>
      <point x="408" y="326" type="curve" smooth="yes"/>
      <point x="408" y="322"/>
      <point x="406" y="315"/>
      <point x="405" y="312" type="curve"/>
    </contour>
  </outline>
</glyph>
<glyph name="e" format="2">
  <advance width="542"/>
  <unicode hex="0065"/>
  <outline>
    <contour>
      <point x="67" y="178" type="curve" smooth="yes"/>
      <point x="67" y="77"/>
      <point x="130" y="-10"/>
      <point x="247" y="-10" type="curve" smooth="yes"/>
      <point x="314.46311000000003" y="-10.0"/>
      <point x="367.58448095100005" y="5.775912953899999"/>
      <point x="407.06384470767415" y="25.623133292605146" type="curve" smooth="yes"/>
      <point x="466.4831601681" y="55.494644231500004"/>
      <point x="495.0" y="94.58866"/>
      <point x="495" y="103" type="curve" smooth="yes"/>
      <point x="495" y="109"/>
      <point x="486" y="120"/>
      <point x="478" y="120" type="curve" smooth="yes"/>
      <point x="472" y="120"/>
      <point x="470" y="118"/>
      <point x="462" y="110" type="curve"/>
      <point x="384" y="18"/>
      <point x="267" y="18"/>
      <point x="249" y="18" type="curve" smooth="yes"/>
      <point x="189" y="18"/>
      <point x="149" y="58"/>
      <point x="149" y="139" type="curve" smooth="yes"/>
      <point x="149" y="153"/>
      <point x="149" y="173"/>
      <point x="161" y="228" type="curve"/>
      <point x="181.979" y="228.0"/>
      <point x="202.958" y="228.0"/>
      <point x="224" y="228" type="curve" smooth="yes"/>
      <point x="252" y="228"/>
      <point x="331" y="230"/>
      <point x="385" y="249" type="curve" smooth="yes"/>
      <point x="459" y="275"/>
      <point x="473" y="323"/>
      <point x="473" y="353" type="curve" smooth="yes"/>
      <point x="473" y="408"/>
      <point x="418" y="441"/>
      <point x="349" y="441" type="curve" smooth="yes"/>
      <point x="229" y="441"/>
      <point x="67" y="349"/>
    </contour>
    <contour>
      <point x="169" y="256" type="curve"/>
      <point x="210" y="401"/>
      <point x="321" y="413"/>
      <point x="349" y="413" type="curve" smooth="yes"/>
      <point x="393" y="413"/>
      <point x="430" y="391"/>
      <point x="430" y="353" type="curve" smooth="yes"/>
      <point x="430" y="256"/>
      <point x="261" y="256"/>
      <point x="218" y="256" type="curve" smooth="yes"/>
      <point x="201.683" y="256"/>
      <point x="185.36599999999999" y="256"/>
    </contour>
  </outline>
</glyph>
<glyph name="f" format="2">
  <advance width="557"/>
  <unicode hex="0066"/>
  <outline>
    <contour>
      <point x="407" y="395" type="curve"/>
      <point x="505" y="395" type="line" smooth="yes"/>
      <point x="525" y="395"/>
      <point x="538" y="395"/>
      <point x="538" y="417" type="curve" smooth="yes"/>
      <point x="538" y="431"/>
      <point x="525" y="431"/>
      <point x="507" y="431" type="curve" smooth="yes"/>
      <point x="414" y="431" type="line"/>
      <point x="437" y="558"/>
      <point x="445" y="604"/>
      <point x="453" y="633" type="curve" smooth="yes"/>
      <point x="455.2549" y="642.92156"/>
      <point x="460.96731032680003" y="652.6397370396"/>
      <point x="468.7614062681821" y="660.3200981691762" type="curve" smooth="yes"/>
      <point x="478.24988592079995" y="669.6701178316"/>
      <point x="490.82352" y="676"/>
      <point x="504" y="676" type="curve" smooth="yes"/>
      <point x="505" y="676"/>
      <point x="532" y="676"/>
      <point x="551" y="664" type="curve"/>
      <point x="510" y="651"/>
      <point x="507" y="615"/>
      <point x="507" y="609" type="curve" smooth="yes"/>
      <point x="507" y="587"/>
      <point x="524" y="572"/>
      <point x="547" y="572" type="curve" smooth="yes"/>
      <point x="574" y="572"/>
      <point x="604" y="595"/>
      <point x="604" y="633" type="curve" smooth="yes"/>
      <point x="604" y="679"/>
      <point x="555" y="704"/>
      <point x="504" y="704" type="curve" smooth="yes"/>
      <point x="460" y="704"/>
      <point x="411" y="679"/>
      <point x="384" y="629" type="curve" smooth="yes"/>
      <point x="364" y="592"/>
      <point x="356" y="547"/>
      <point x="335" y="431" type="curve"/>
      <point x="256" y="431" type="line" smooth="yes"/>
      <point x="236" y="431"/>
      <point x="223" y="431"/>
      <point x="223" y="409" type="curve" smooth="yes"/>
      <point x="223" y="395"/>
      <point x="236" y="395"/>
      <point x="254" y="395" type="curve" smooth="yes"/>
      <point x="328" y="395" type="line"/>
      <point x="327.51136" y="392.06816"/>
      <point x="312.21903892480003" y="304.6120764416"/>
      <point x="293.90691972245094" y="203.4517191215022" type="curve" smooth="yes"/>
      <point x="274.7433529344" y="97.58776954880001"/>
      <point x="252.27263999999997" y="-23.284479999999974"/>
      <point x="240" y="-78" type="curve" smooth="yes"/>
      <point x="235" y="-100"/>
      <point x="218" y="-176"/>
      <point x="170" y="-176" type="curve" smooth="yes"/>
      <point x="169" y="-176"/>
      <point x="145" y="-176"/>
      <point x="126" y="-164" type="curve"/>
      <point x="167" y="-151"/>
      <point x="170" y="-115"/>
      <point x="170" y="-109" type="curve" smooth="yes"/>
      <point x="170" y="-87"/>
      <point x="153" y="-72"/>
      <point x="130" y="-72" type="curve" smooth="yes"/>
      <point x="103" y="-72"/>
      <point x="73" y="-95"/>
      <point x="73" y="-133" type="curve" smooth="yes"/>
      <point x="73" y="-178"/>
      <point x="120" y="-204"/>
      <point x="170" y="-204" type="curve" smooth="yes"/>
      <point x="234" y="-204"/>
      <point x="278" y="-138"/>
      <point x="290" y="-116" type="curve" smooth="yes"/>
      <point x="326" y="-49"/>
      <point x="349" y="74"/>
      <point x="351" y="86" type="curve" smooth="yes"/>
      <point x="369.648" y="188.897"/>
      <point x="388.296" y="291.794"/>
    </contour>
  </outline>
</glyph>
<glyph name="g" format="2">
  <advance width="557"/>
  <unicode hex="0067"/>
  <outline>
    <contour>
      <point x="97" y="164" type="curve" smooth="yes"/>
      <point x="97" y="61"/>
      <point x="167" y="0"/>
      <point x="249" y="0" type="curve" smooth="yes"/>
      <point x="295" y="0"/>
      <point x="339" y="23"/>
      <point x="374" y="54" type="curve"/>
      <point x="374" y="54" type="line"/>
      <point x="352" y="-36" type="line" smooth="yes"/>
      <point x="342" y="-78"/>
      <point x="334" y="-105"/>
      <point x="296" y="-139" type="curve" smooth="yes"/>
      <point x="252" y="-176"/>
      <point x="209" y="-176"/>
      <point x="184" y="-176" type="curve" smooth="yes"/>
      <point x="138" y="-176"/>
      <point x="125" y="-173"/>
      <point x="107" y="-169" type="curve"/>
      <point x="132" y="-157"/>
      <point x="139" y="-133"/>
      <point x="139" y="-119" type="curve" smooth="yes"/>
      <point x="139" y="-95"/>
      <point x="120" y="-82"/>
      <point x="100" y="-82" type="curve" smooth="yes"/>
      <point x="72" y="-82"/>
      <point x="43" y="-105"/>
      <point x="43" y="-143" type="curve" smooth="yes"/>
      <point x="43" y="-203"/>
      <point x="129" y="-204"/>
      <point x="185" y="-204" type="curve" smooth="yes"/>
      <point x="342" y="-204"/>
      <point x="409" y="-124"/>
      <point x="423" y="-67" type="curve" smooth="yes"/>
      <point x="532" y="369" type="line" smooth="yes"/>
      <point x="536" y="384"/>
      <point x="536" y="389"/>
      <point x="536" y="390" type="curve" smooth="yes"/>
      <point x="536" y="412"/>
      <point x="518" y="422"/>
      <point x="502" y="422" type="curve" smooth="yes"/>
      <point x="479" y="422"/>
      <point x="460" y="403"/>
      <point x="456" y="384" type="curve"/>
      <point x="439" y="411"/>
      <point x="405" y="441"/>
      <point x="353" y="441" type="curve" smooth="yes"/>
      <point x="228" y="441"/>
      <point x="97" y="307"/>
    </contour>
    <contour>
      <point x="394" y="133" type="line" smooth="yes"/>
      <point x="390" y="118"/>
      <point x="390" y="116"/>
      <point x="373" y="96" type="curve" smooth="yes"/>
      <point x="338" y="54"/>
      <point x="290" y="28"/>
      <point x="252" y="28" type="curve" smooth="yes"/>
      <point x="201" y="28"/>
      <point x="177" y="71"/>
      <point x="177" y="123" type="curve" smooth="yes"/>
      <point x="177" y="167"/>
      <point x="204" y="279"/>
      <point x="230" y="323" type="curve" smooth="yes"/>
      <point x="272" y="393"/>
      <point x="319" y="413"/>
      <point x="353" y="413" type="curve" smooth="yes"/>
      <point x="423" y="413"/>
      <point x="442" y="338"/>
      <point x="442" y="328" type="curve" smooth="yes"/>
      <point x="442" y="326"/>
      <point x="442" y="324"/>
      <point x="439" y="313" type="curve" smooth="yes"/>
    </contour>
  </outline>
</glyph>
<glyph name="i" format="2">
  <advance width="404"/>
  <unicode hex="0069"/>
  <outline>
    <contour>
      <point x="324" y="625" type="curve" smooth="yes"/>
      <point x="324" y="641"/>
      <point x="312" y="663"/>
      <point x="284" y="663" type="curve" smooth="yes"/>
      <point x="257" y="663"/>
      <point x="228" y="637"/>
      <point x="228" y="608" type="curve" smooth="yes"/>
      <point x="228" y="591"/>
      <point x="241" y="570"/>
      <point x="268" y="570" type="curve" smooth="yes"/>
      <point x="297" y="570"/>
      <point x="324" y="598"/>
    </contour>
    <contour>
      <point x="111" y="75" type="curve" smooth="yes"/>
      <point x="111" y="28"/>
      <point x="151" y="-10"/>
      <point x="206" y="-10" type="curve" smooth="yes"/>
      <point x="306" y="-10"/>
      <point x="350" y="128"/>
      <point x="350" y="143" type="curve" smooth="yes"/>
      <point x="350" y="156"/>
      <point x="337" y="156"/>
      <point x="334" y="156" type="curve" smooth="yes"/>
      <point x="320" y="156"/>
      <point x="319" y="150"/>
      <point x="315" y="139" type="curve"/>
      <point x="292" y="59"/>
      <point x="248" y="18"/>
      <point x="209" y="18" type="curve" smooth="yes"/>
      <point x="189" y="18"/>
      <point x="184" y="31"/>
      <point x="184" y="53" type="curve" smooth="yes"/>
      <point x="184" y="76"/>
      <point x="191" y="95"/>
      <point x="200" y="117" type="curve" smooth="yes"/>
      <point x="219" y="169"/>
      <point x="272.59439" y="298.78316"/>
      <point x="281" y="324" type="curve" smooth="yes"/>
      <point x="284" y="334"/>
      <point x="287" y="346"/>
      <point x="287" y="356" type="curve" smooth="yes"/>
      <point x="287" y="403"/>
      <point x="247" y="441"/>
      <point x="192" y="441" type="curve" smooth="yes"/>
      <point x="93" y="441"/>
      <point x="47" y="305"/>
      <point x="47" y="288" type="curve" smooth="yes"/>
      <point x="47" y="275"/>
      <point x="61" y="275"/>
      <point x="64" y="275" type="curve" smooth="yes"/>
      <point x="78" y="275"/>
      <point x="79" y="280"/>
      <point x="82" y="291" type="curve" smooth="yes"/>
      <point x="108" y="377"/>
      <point x="152" y="413"/>
      <point x="189" y="413" type="curve" smooth="yes"/>
      <point x="205" y="413"/>
      <point x="214" y="405"/>
      <point x="214" y="378" type="curve" smooth="yes"/>
      <point x="214" y="355"/>
      <point x="208" y="340"/>
      <point x="183" y="278" type="curve" smooth="yes"/>
      <point x="120" y="117" type="line" smooth="yes"/>
      <point x="115" y="104"/>
      <point x="111" y="92"/>
    </contour>
  </outline>
</glyph>
<glyph name="j" format="2">
  <advance width="472"/>
  <unicode hex="006A"/>
  <outline>
    <contour>
      <point x="439" y="625" type="curve" smooth="yes"/>
      <point x="439" y="642"/>
      <point x="426" y="663"/>
      <point x="399" y="663" type="curve" smooth="yes"/>
      <point x="370" y="663"/>
      <point x="343" y="635"/>
      <point x="343" y="608" type="curve" smooth="yes"/>
      <point x="343" y="592"/>
      <point x="355" y="570"/>
      <point x="383" y="570" type="curve" smooth="yes"/>
      <point x="410" y="570"/>
      <point x="439" y="596"/>
    </contour>
    <contour>
      <point x="227" y="-49" type="line" smooth="yes"/>
      <point x="210" y="-118"/>
      <point x="157" y="-176"/>
      <point x="98" y="-176" type="curve" smooth="yes"/>
      <point x="85" y="-176"/>
      <point x="73" y="-174"/>
      <point x="62" y="-170" type="curve"/>
      <point x="88" y="-158"/>
      <point x="96" y="-134"/>
      <point x="96" y="-119" type="curve" smooth="yes"/>
      <point x="96" y="-95"/>
      <point x="77" y="-82"/>
      <point x="57" y="-82" type="curve" smooth="yes"/>
      <point x="26" y="-82"/>
      <point x="0" y="-109"/>
      <point x="0" y="-141" type="curve" smooth="yes"/>
      <point x="0" y="-179"/>
      <point x="39" y="-204"/>
      <point x="99" y="-204" type="curve" smooth="yes"/>
      <point x="159" y="-204"/>
      <point x="276" y="-168"/>
      <point x="307" y="-46" type="curve" smooth="yes"/>
      <point x="397" y="312" type="line" smooth="yes"/>
      <point x="400" y="323"/>
      <point x="402" y="332"/>
      <point x="402" y="347" type="curve" smooth="yes"/>
      <point x="402" y="402"/>
      <point x="355" y="441"/>
      <point x="295" y="441" type="curve" smooth="yes"/>
      <point x="184" y="441"/>
      <point x="120" y="302"/>
      <point x="120" y="288" type="curve" smooth="yes"/>
      <point x="120" y="275"/>
      <point x="134" y="275"/>
      <point x="137" y="275" type="curve" smooth="yes"/>
      <point x="149" y="275"/>
      <point x="150" y="278"/>
      <point x="157" y="293" type="curve" smooth="yes"/>
      <point x="182" y="351"/>
      <point x="234" y="413"/>
      <point x="292" y="413" type="curve" smooth="yes"/>
      <point x="317" y="413"/>
      <point x="326" y="396"/>
      <point x="326" y="364" type="curve" smooth="yes"/>
      <point x="326" y="353"/>
      <point x="324" y="339"/>
      <point x="323" y="334" type="curve" smooth="yes"/>
    </contour>
  </outline>
</glyph>
<glyph name="k" format="2">
  <advance width="607"/>
  <unicode hex="006B"/>
  <outline>
    <contour>
      <point x="313" y="664" type="line"/>
      <point x="314" y="666"/>
      <point x="317" y="679"/>
      <point x="317" y="680" type="curve" smooth="yes"/>
      <point x="317" y="685"/>
      <point x="313" y="694"/>
      <point x="301" y="694" type="curve" smooth="yes"/>
      <point x="281" y="694"/>
      <point x="198" y="686"/>
      <point x="173" y="684" type="curve" smooth="yes"/>
      <point x="165" y="683"/>
      <point x="151" y="682"/>
      <point x="151" y="661" type="curve" smooth="yes"/>
      <point x="151" y="647"/>
      <point x="165" y="647"/>
      <point x="177" y="647" type="curve" smooth="yes"/>
      <point x="225" y="647"/>
      <point x="225" y="640"/>
      <point x="225" y="632" type="curve" smooth="yes"/>
      <point x="225" y="625"/>
      <point x="223" y="619"/>
      <point x="221" y="610" type="curve" smooth="yes"/>
      <point x="80" y="44" type="line" smooth="yes"/>
      <point x="75" y="26"/>
      <point x="75" y="24"/>
      <point x="75" y="22" type="curve" smooth="yes"/>
      <point x="75" y="7"/>
      <point x="87" y="-10"/>
      <point x="109" y="-10" type="curve" smooth="yes"/>
      <point x="136" y="-10"/>
      <point x="149" y="10"/>
      <point x="155" y="32" type="curve"/>
      <point x="157" y="36"/>
      <point x="200" y="212"/>
      <point x="204" y="226" type="curve"/>
      <point x="275" y="219"/>
      <point x="332" y="196"/>
      <point x="332" y="144" type="curve" smooth="yes"/>
      <point x="332" y="139"/>
      <point x="332" y="134"/>
      <point x="330" y="124" type="curve"/>
      <point x="326" y="109"/>
      <point x="326" y="104"/>
      <point x="326" y="93" type="curve" smooth="yes"/>
      <point x="326" y="22"/>
      <point x="384" y="-10"/>
      <point x="432" y="-10" type="curve" smooth="yes"/>
      <point x="529" y="-10"/>
      <point x="559" y="142"/>
      <point x="559" y="143" type="curve" smooth="yes"/>
      <point x="559" y="156"/>
      <point x="546" y="156"/>
      <point x="543" y="156" type="curve" smooth="yes"/>
      <point x="529" y="156"/>
      <point x="528" y="151"/>
      <point x="523" y="132" type="curve" smooth="yes"/>
      <point x="511" y="89"/>
      <point x="484" y="18"/>
      <point x="435" y="18" type="curve" smooth="yes"/>
      <point x="408" y="18"/>
      <point x="400" y="43"/>
      <point x="400" y="70" type="curve" smooth="yes"/>
      <point x="400" y="87"/>
      <point x="400" y="89"/>
      <point x="406" y="115" type="curve"/>
      <point x="407" y="118"/>
      <point x="411" y="135"/>
      <point x="411" y="146" type="curve" smooth="yes"/>
      <point x="411" y="235"/>
      <point x="291" y="249"/>
      <point x="249" y="252" type="curve"/>
      <point x="278" y="270"/>
      <point x="315" y="303"/>
      <point x="332" y="318" type="curve" smooth="yes"/>
      <point x="383" y="366"/>
      <point x="433" y="413"/>
      <point x="489" y="413" type="curve" smooth="yes"/>
      <point x="501" y="413"/>
      <point x="514" y="410"/>
      <point x="522" y="400" type="curve"/>
      <point x="479" y="393"/>
      <point x="470" y="359"/>
      <point x="470" y="344" type="curve" smooth="yes"/>
      <point x="470" y="322"/>
      <point x="487" y="307"/>
      <point x="510" y="307" type="curve" smooth="yes"/>
      <point x="537" y="307"/>
      <point x="567" y="329"/>
      <point x="567" y="371" type="curve" smooth="yes"/>
      <point x="567" y="404"/>
      <point x="543" y="441"/>
      <point x="490" y="441" type="curve" smooth="yes"/>
      <point x="433" y="441"/>
      <point x="381" y="400"/>
      <point x="330" y="353" type="curve" smooth="yes"/>
      <point x="288" y="313"/>
      <point x="255" y="282"/>
      <point x="214" y="265" type="curve"/>
    </contour>
  </outline>
</glyph>
<glyph name="m" format="2">
  <advance width="1013"/>
  <unicode hex="006D"/>
  <outline>
    <contour>
      <point x="434" y="81" type="line" smooth="yes"/>
      <point x="429" y="61"/>
      <point x="420" y="27"/>
      <point x="420" y="22" type="curve" smooth="yes"/>
      <point x="420" y="0"/>
      <point x="438" y="-10"/>
      <point x="454" y="-10" type="curve" smooth="yes"/>
      <point x="472" y="-10"/>
      <point x="488" y="3"/>
      <point x="493" y="12" type="curve" smooth="yes"/>
      <point x="498" y="21"/>
      <point x="506" y="53"/>
      <point x="511" y="74" type="curve" smooth="yes"/>
      <point x="516" y="93"/>
      <point x="527" y="139"/>
      <point x="533" y="164" type="curve" smooth="yes"/>
      <point x="539" y="186"/>
      <point x="545" y="208"/>
      <point x="550" y="231" type="curve" smooth="yes"/>
      <point x="561" y="274"/>
      <point x="561" y="276"/>
      <point x="581" y="307" type="curve" smooth="yes"/>
      <point x="613" y="356"/>
      <point x="663" y="413"/>
      <point x="741" y="413" type="curve" smooth="yes"/>
      <point x="797" y="413"/>
      <point x="800" y="367"/>
      <point x="800" y="343" type="curve" smooth="yes"/>
      <point x="800" y="283"/>
      <point x="757" y="172"/>
      <point x="741" y="130" type="curve" smooth="yes"/>
      <point x="730" y="102"/>
      <point x="726" y="93"/>
      <point x="726" y="76" type="curve" smooth="yes"/>
      <point x="726" y="23"/>
      <point x="770" y="-10"/>
      <point x="821" y="-10" type="curve" smooth="yes"/>
      <point x="921" y="-10"/>
      <point x="965" y="128"/>
      <point x="965" y="143" type="curve" smooth="yes"/>
      <point x="965" y="156"/>
      <point x="952" y="156"/>
      <point x="949" y="156" type="curve" smooth="yes"/>
      <point x="935" y="156"/>
      <point x="934" y="150"/>
      <point x="930" y="139" type="curve"/>
      <point x="907" y="59"/>
      <point x="864" y="18"/>
      <point x="824" y="18" type="curve" smooth="yes"/>
      <point x="803" y="18"/>
      <point x="799" y="32"/>
      <point x="799" y="53" type="curve" smooth="yes"/>
      <point x="799" y="76"/>
      <point x="804" y="89"/>
      <point x="822" y="134" type="curve" smooth="yes"/>
      <point x="834" y="165"/>
      <point x="875" y="271"/>
      <point x="875" y="327" type="curve" smooth="yes"/>
      <point x="875" y="343"/>
      <point x="875" y="385"/>
      <point x="838" y="414" type="curve" smooth="yes"/>
      <point x="821" y="427"/>
      <point x="792" y="441"/>
      <point x="745" y="441" type="curve" smooth="yes"/>
      <point x="655" y="441"/>
      <point x="600" y="382"/>
      <point x="568" y="340" type="curve"/>
      <point x="560" y="425"/>
      <point x="489" y="441"/>
      <point x="438" y="441" type="curve" smooth="yes"/>
      <point x="355" y="441"/>
      <point x="299" y="390"/>
      <point x="269" y="350" type="curve"/>
      <point x="262" y="419"/>
      <point x="203" y="441"/>
      <point x="162" y="441" type="curve" smooth="yes"/>
      <point x="119" y="441"/>
      <point x="96" y="410"/>
      <point x="83" y="387" type="curve" smooth="yes"/>
      <point x="61" y="350"/>
      <point x="47" y="293"/>
      <point x="47" y="288" type="curve" smooth="yes"/>
      <point x="47" y="275"/>
      <point x="61" y="275"/>
      <point x="64" y="275" type="curve" smooth="yes"/>
      <point x="78" y="275"/>
      <point x="79" y="278"/>
      <point x="86" y="305" type="curve" smooth="yes"/>
      <point x="101" y="364"/>
      <point x="120" y="413"/>
      <point x="159" y="413" type="curve" smooth="yes"/>
      <point x="185" y="413"/>
      <point x="192" y="391"/>
      <point x="192" y="364" type="curve" smooth="yes"/>
      <point x="192" y="345"/>
      <point x="183" y="308"/>
      <point x="176" y="281" type="curve" smooth="yes"/>
      <point x="169" y="254"/>
      <point x="159" y="213"/>
      <point x="154" y="191" type="curve" smooth="yes"/>
      <point x="122" y="63" type="line"/>
      <point x="118" y="50"/>
      <point x="112" y="25"/>
      <point x="112" y="22" type="curve" smooth="yes"/>
      <point x="112" y="0"/>
      <point x="130" y="-10"/>
      <point x="146" y="-10" type="curve" smooth="yes"/>
      <point x="164" y="-10"/>
      <point x="180" y="3"/>
      <point x="185" y="12" type="curve" smooth="yes"/>
      <point x="190" y="21"/>
      <point x="198" y="53"/>
      <point x="203" y="74" type="curve" smooth="yes"/>
      <point x="208" y="93"/>
      <point x="219" y="139"/>
      <point x="225" y="164" type="curve" smooth="yes"/>
      <point x="231" y="186"/>
      <point x="237" y="208"/>
      <point x="242" y="231" type="curve" smooth="yes"/>
      <point x="253" y="272"/>
      <point x="255" y="280"/>
      <point x="284" y="321" type="curve" smooth="yes"/>
      <point x="312" y="361"/>
      <point x="359" y="413"/>
      <point x="434" y="413" type="curve" smooth="yes"/>
      <point x="492" y="413"/>
      <point x="493" y="362"/>
      <point x="493" y="343" type="curve" smooth="yes"/>
      <point x="493" y="318"/>
      <point x="490" y="305"/>
      <point x="476" y="249" type="curve" smooth="yes"/>
    </contour>
  </outline>
</glyph>
<glyph name="n" format="2">
  <advance width="706"/>
  <unicode hex="006E"/>
  <outline>
    <contour>
      <point x="122" y="63" type="line"/>
      <point x="118" y="50"/>
      <point x="112" y="25"/>
      <point x="112" y="22" type="curve" smooth="yes"/>
      <point x="112" y="0"/>
      <point x="130" y="-10"/>
      <point x="146" y="-10" type="curve" smooth="yes"/>
      <point x="164" y="-10"/>
      <point x="180" y="3"/>
      <point x="185" y="12" type="curve" smooth="yes"/>
      <point x="190" y="21"/>
      <point x="198" y="53"/>
      <point x="203" y="74" type="curve" smooth="yes"/>
      <point x="208" y="93"/>
      <point x="219" y="139"/>
      <point x="225" y="164" type="curve" smooth="yes"/>
      <point x="231" y="186"/>
      <point x="237" y="208"/>
      <point x="242" y="231" type="curve" smooth="yes"/>
      <point x="253" y="272"/>
      <point x="255" y="280"/>
      <point x="284" y="321" type="curve" smooth="yes"/>
      <point x="312" y="361"/>
      <point x="359" y="413"/>
      <point x="434" y="413" type="curve" smooth="yes"/>
      <point x="492" y="413"/>
      <point x="493" y="362"/>
      <point x="493" y="343" type="curve" smooth="yes"/>
      <point x="493" y="283"/>
      <point x="450" y="172"/>
      <point x="434" y="130" type="curve" smooth="yes"/>
      <point x="423" y="102"/>
      <point x="419" y="93"/>
      <point x="419" y="76" type="curve" smooth="yes"/>
      <point x="419" y="23"/>
      <point x="463" y="-10"/>
      <point x="514" y="-10" type="curve" smooth="yes"/>
      <point x="614" y="-10"/>
      <point x="658" y="128"/>
      <point x="658" y="143" type="curve" smooth="yes"/>
      <point x="658" y="156"/>
      <point x="645" y="156"/>
      <point x="642" y="156" type="curve" smooth="yes"/>
      <point x="628" y="156"/>
      <point x="627" y="150"/>
      <point x="623" y="139" type="curve"/>
      <point x="600" y="59"/>
      <point x="557" y="18"/>
      <point x="517" y="18" type="curve" smooth="yes"/>
      <point x="496" y="18"/>
      <point x="492" y="32"/>
      <point x="492" y="53" type="curve" smooth="yes"/>
      <point x="492" y="76"/>
      <point x="497" y="89"/>
      <point x="515" y="134" type="curve" smooth="yes"/>
      <point x="527" y="165"/>
      <point x="568" y="271"/>
      <point x="568" y="327" type="curve" smooth="yes"/>
      <point x="568" y="424"/>
      <point x="491" y="441"/>
      <point x="438" y="441" type="curve" smooth="yes"/>
      <point x="355" y="441"/>
      <point x="299" y="390"/>
      <point x="269" y="350" type="curve"/>
      <point x="262" y="419"/>
      <point x="203" y="441"/>
      <point x="162" y="441" type="curve" smooth="yes"/>
      <point x="119" y="441"/>
      <point x="96" y="410"/>
      <point x="83" y="387" type="curve" smooth="yes"/>
      <point x="61" y="350"/>
      <point x="47" y="293"/>
      <point x="47" y="288" type="curve" smooth="yes"/>
      <point x="47" y="275"/>
      <point x="61" y="275"/>
      <point x="64" y="275" type="curve" smooth="yes"/>
      <point x="78" y="275"/>
      <point x="79" y="278"/>
      <point x="86" y="305" type="curve" smooth="yes"/>
      <point x="101" y="364"/>
      <point x="120" y="413"/>
      <point x="159" y="413" type="curve" smooth="yes"/>
      <point x="185" y="413"/>
      <point x="192" y="391"/>
      <point x="192" y="364" type="curve" smooth="yes"/>
      <point x="192" y="345"/>
      <point x="183" y="308"/>
      <point x="176" y="281" type="curve" smooth="yes"/>
      <point x="169" y="254"/>
      <point x="159" y="213"/>
      <point x="154" y="191" type="curve" smooth="yes"/>
    </contour>
  </outline>
</glyph>
<glyph name="o" format="2">
  <advance width="563"/>
  <unicode hex="006F"/>
  <outline>
    <contour>
      <point x="531" y="266" type="curve" smooth="yes"/>
      <point x="531" y="377"/>
      <point x="448" y="441"/>
      <point x="350" y="441" type="curve" smooth="yes"/>
      <point x="202" y="441"/>
      <point x="62" y="302"/>
      <point x="62" y="165" type="curve" smooth="yes"/>
      <point x="62" y="65"/>
      <point x="135" y="-10"/>
      <point x="244" y="-10" type="curve" smooth="yes"/>
      <point x="387" y="-10"/>
      <point x="531" y="122"/>
    </contour>
    <contour>
      <point x="245" y="18" type="curve" smooth="yes"/>
      <point x="195" y="18"/>
      <point x="145" y="50"/>
      <point x="145" y="129" type="curve" smooth="yes"/>
      <point x="145" y="170"/>
      <point x="164" y="268"/>
      <point x="203" y="325" type="curve" smooth="yes"/>
      <point x="246" y="387"/>
      <point x="304" y="413"/>
      <point x="349" y="413" type="curve" smooth="yes"/>
      <point x="403" y="413"/>
      <point x="449" y="376"/>
      <point x="449" y="302" type="curve" smooth="yes"/>
      <point x="449" y="278"/>
      <point x="437" y="179"/>
      <point x="393" y="109" type="curve" smooth="yes"/>
      <point x="355" y="50"/>
      <point x="295" y="18"/>
    </contour>
  </outline>
</glyph>
<glyph name="q" format="2">
  <advance width="523"/>
  <unicode hex="0071"/>
  <outline>
    <contour>
      <point x="318" y="-190" type="curve" smooth="yes"/>
      <point x="352" y="-190"/>
      <point x="394" y="-194"/>
      <point x="425" y="-194" type="curve" smooth="yes"/>
      <point x="434" y="-194"/>
      <point x="445" y="-191"/>
      <point x="445" y="-172" type="curve" smooth="yes"/>
      <point x="445" y="-158"/>
      <point x="431" y="-158"/>
      <point x="419" y="-158" type="curve" smooth="yes"/>
      <point x="397" y="-158"/>
      <point x="370" y="-158"/>
      <point x="370" y="-146" type="curve" smooth="yes"/>
      <point x="370" y="-143"/>
      <point x="370" y="-141"/>
      <point x="375" y="-124" type="curve" smooth="yes"/>
      <point x="509" y="412" type="line" smooth="yes"/>
      <point x="510" y="416"/>
      <point x="511" y="422"/>
      <point x="511" y="427" type="curve" smooth="yes"/>
      <point x="511" y="433"/>
      <point x="507" y="441"/>
      <point x="498" y="441" type="curve" smooth="yes"/>
      <point x="488" y="441"/>
      <point x="446" y="407"/>
      <point x="426" y="375" type="curve"/>
      <point x="416" y="395"/>
      <point x="383" y="441"/>
      <point x="319" y="441" type="curve" smooth="yes"/>
      <point x="191" y="441"/>
      <point x="61" y="300"/>
      <point x="61" y="156" type="curve" smooth="yes"/>
      <point x="61" y="59"/>
      <point x="126" y="-10"/>
      <point x="212" y="-10" type="curve" smooth="yes"/>
      <point x="269" y="-10"/>
      <point x="316" y="26"/>
      <point x="338" y="45" type="curve"/>
      <point x="338" y="45" type="line"/>
      <point x="337" y="42"/>
      <point x="306" y="-84"/>
      <point x="302" y="-101" type="curve" smooth="yes"/>
      <point x="288" y="-156"/>
      <point x="287" y="-157"/>
      <point x="225" y="-158" type="curve"/>
      <point x="213" y="-158"/>
      <point x="199" y="-158"/>
      <point x="199" y="-180" type="curve" smooth="yes"/>
      <point x="199" y="-186"/>
      <point x="204" y="-194"/>
      <point x="214" y="-194" type="curve" smooth="yes"/>
      <point x="247" y="-194"/>
      <point x="284" y="-190"/>
    </contour>
    <contour>
      <point x="215" y="18" type="curve" smooth="yes"/>
      <point x="178" y="18"/>
      <point x="142" y="44"/>
      <point x="142" y="115" type="curve" smooth="yes"/>
      <point x="142" y="168"/>
      <point x="171" y="278"/>
      <point x="194" y="318" type="curve" smooth="yes"/>
      <point x="240" y="398"/>
      <point x="291" y="413"/>
      <point x="319" y="413" type="curve" smooth="yes"/>
      <point x="389" y="413"/>
      <point x="408" y="336"/>
      <point x="408" y="326" type="curve" smooth="yes"/>
      <point x="408" y="321"/>
      <point x="406" y="315"/>
      <point x="405" y="311" type="curve" smooth="yes"/>
      <point x="358" y="126" type="line" smooth="yes"/>
      <point x="353" y="109"/>
      <point x="353" y="107"/>
      <point x="340" y="91" type="curve" smooth="yes"/>
      <point x="301" y="45"/>
      <point x="254" y="18"/>
    </contour>
  </outline>
</glyph>
<glyph name="s" format="2">
  <advance width="539"/>
  <unicode hex="0073"/>
  <outline>
    <contour>
      <point x="431" y="376" type="curve"/>
      <point x="405" y="370"/>
      <point x="389" y="349"/>
      <point x="389" y="329" type="curve" smooth="yes"/>
      <point x="389" y="306"/>
      <point x="409" y="297"/>
      <point x="422" y="297" type="curve" smooth="yes"/>
      <point x="432" y="297"/>
      <point x="470" y="303"/>
      <point x="470" y="354" type="curve" smooth="yes"/>
      <point x="470" y="419"/>
      <point x="398" y="441"/>
      <point x="337" y="441" type="curve" smooth="yes"/>
      <point x="181" y="441"/>
      <point x="153" y="326"/>
      <point x="153" y="295" type="curve" smooth="yes"/>
      <point x="153" y="258"/>
      <point x="174" y="234"/>
      <point x="188" y="222" type="curve"/>
      <point x="214" y="202"/>
      <point x="232" y="198"/>
      <point x="301" y="186" type="curve" smooth="yes"/>
      <point x="322" y="182"/>
      <point x="386" y="170"/>
      <point x="386" y="120" type="curve" smooth="yes"/>
      <point x="386" y="103"/>
      <point x="375" y="65"/>
      <point x="333" y="40" type="curve" smooth="yes"/>
      <point x="294" y="18"/>
      <point x="245" y="18"/>
      <point x="233" y="18" type="curve" smooth="yes"/>
      <point x="193" y="18"/>
      <point x="136" y="27"/>
      <point x="113" y="60" type="curve"/>
      <point x="146" y="64"/>
      <point x="168" y="89"/>
      <point x="168" y="117" type="curve" smooth="yes"/>
      <point x="168" y="142"/>
      <point x="150" y="154"/>
      <point x="129" y="154" type="curve" smooth="yes"/>
      <point x="100" y="154"/>
      <point x="71" y="131"/>
      <point x="71" y="87" type="curve" smooth="yes"/>
      <point x="71" y="27"/>
      <point x="135" y="-10"/>
      <point x="232" y="-10" type="curve" smooth="yes"/>
      <point x="416" y="-10"/>
      <point x="450" y="116"/>
      <point x="450" y="155" type="curve" smooth="yes"/>
      <point x="450" y="247"/>
      <point x="349" y="265"/>
      <point x="312" y="272" type="curve" smooth="yes"/>
      <point x="303" y="274"/>
      <point x="278" y="278"/>
      <point x="272" y="280" type="curve"/>
      <point x="235" y="287"/>
      <point x="217" y="308"/>
      <point x="217" y="330" type="curve" smooth="yes"/>
      <point x="217" y="353"/>
      <point x="235" y="380"/>
      <point x="257" y="394" type="curve" smooth="yes"/>
      <point x="284" y="411"/>
      <point x="319" y="413"/>
      <point x="336" y="413" type="curve" smooth="yes"/>
      <point x="357" y="413"/>
      <point x="409" y="410"/>
    </contour>
  </outline>
</glyph>
<glyph name="t" format="2">
  <advance width="431"/>
  <unicode hex="0074"/>
  <outline>
    <contour>
      <point x="246" y="395" type="line"/>
      <point x="348" y="395" type="line" smooth="yes"/>
      <point x="367" y="395"/>
      <point x="380" y="395"/>
      <point x="380" y="417" type="curve" smooth="yes"/>
      <point x="380" y="431"/>
      <point x="367" y="431"/>
      <point x="350" y="431" type="curve" smooth="yes"/>
      <point x="255" y="431" type="line"/>
      <point x="292" y="579" type="line" smooth="yes"/>
      <point x="293" y="584"/>
      <point x="295" y="589"/>
      <point x="295" y="593" type="curve" smooth="yes"/>
      <point x="295" y="611"/>
      <point x="281" y="625"/>
      <point x="261" y="625" type="curve" smooth="yes"/>
      <point x="236" y="625"/>
      <point x="221" y="608"/>
      <point x="214" y="582" type="curve" smooth="yes"/>
      <point x="207" y="557"/>
      <point x="220" y="605"/>
      <point x="176" y="431" type="curve"/>
      <point x="74" y="431" type="line" smooth="yes"/>
      <point x="55" y="431"/>
      <point x="42" y="431"/>
      <point x="42" y="409" type="curve" smooth="yes"/>
      <point x="42" y="395"/>
      <point x="54" y="395"/>
      <point x="72" y="395" type="curve" smooth="yes"/>
      <point x="167" y="395" type="line"/>
      <point x="108" y="159" type="line" smooth="yes"/>
      <point x="102" y="134"/>
      <point x="93" y="98"/>
      <point x="93" y="85" type="curve" smooth="yes"/>
      <point x="93" y="26"/>
      <point x="143" y="-10"/>
      <point x="200" y="-10" type="curve" smooth="yes"/>
      <point x="311" y="-10"/>
      <point x="374" y="130"/>
      <point x="374" y="143" type="curve" smooth="yes"/>
      <point x="374" y="156"/>
      <point x="361" y="156"/>
      <point x="358" y="156" type="curve" smooth="yes"/>
      <point x="346" y="156"/>
      <point x="345" y="154"/>
      <point x="337" y="137" type="curve" smooth="yes"/>
      <point x="309" y="74"/>
      <point x="258" y="18"/>
      <point x="203" y="18" type="curve" smooth="yes"/>
      <point x="182" y="18"/>
      <point x="168" y="31"/>
      <point x="168" y="67" type="curve" smooth="yes"/>
      <point x="168" y="77"/>
      <point x="172" y="98"/>
      <point x="174" y="108" type="curve" smooth="yes"/>
    </contour>
  </outline>
</glyph>
<glyph name="u" format="2">
  <advance width="675"/>
  <unicode hex="0075"/>
  <outline>
    <contour>
      <point x="282" y="-10" type="curve" smooth="yes"/>
      <point x="345" y="-10"/>
      <point x="379" y="24"/>
      <point x="412" y="56" type="curve"/>
      <point x="434" y="-8"/>
      <point x="501" y="-10"/>
      <point x="513" y="-10" type="curve" smooth="yes"/>
      <point x="547" y="-10"/>
      <point x="573" y="10"/>
      <point x="592" y="43" type="curve" smooth="yes"/>
      <point x="614" y="82"/>
      <point x="628" y="140"/>
      <point x="628" y="143" type="curve" smooth="yes"/>
      <point x="628" y="156"/>
      <point x="614" y="156"/>
      <point x="611" y="156" type="curve" smooth="yes"/>
      <point x="597" y="156"/>
      <point x="596" y="152"/>
      <point x="589" y="125" type="curve" smooth="yes"/>
      <point x="577" y="78"/>
      <point x="558" y="18"/>
      <point x="516" y="18" type="curve" smooth="yes"/>
      <point x="490" y="18"/>
      <point x="483" y="41"/>
      <point x="483" y="67" type="curve" smooth="yes"/>
      <point x="483" y="84"/>
      <point x="491" y="120"/>
      <point x="498" y="146" type="curve" smooth="yes"/>
      <point x="505" y="173"/>
      <point x="514.35507" y="214.15658"/>
      <point x="543" y="325" type="curve" smooth="yes"/>
      <point x="549" y="350"/>
      <point x="560" y="394"/>
      <point x="560" y="399" type="curve" smooth="yes"/>
      <point x="560" y="419"/>
      <point x="544" y="431"/>
      <point x="527" y="431" type="curve" smooth="yes"/>
      <point x="490" y="431"/>
      <point x="483" y="402"/>
      <point x="475" y="370" type="curve" smooth="yes"/>
      <point x="423" y="162" type="line" smooth="yes"/>
      <point x="418" y="142"/>
      <point x="409" y="104"/>
      <point x="407" y="103" type="curve"/>
      <point x="388" y="72"/>
      <point x="348" y="18"/>
      <point x="286" y="18" type="curve" smooth="yes"/>
      <point x="217" y="18"/>
      <point x="217" y="83"/>
      <point x="217" y="101" type="curve" smooth="yes"/>
      <point x="217" y="160"/>
      <point x="245" y="231"/>
      <point x="273" y="304" type="curve" smooth="yes"/>
      <point x="281" y="324"/>
      <point x="287" y="339"/>
      <point x="287" y="355" type="curve" smooth="yes"/>
      <point x="287" y="407"/>
      <point x="243" y="441"/>
      <point x="192" y="441" type="curve" smooth="yes"/>
      <point x="92" y="441"/>
      <point x="47" y="304"/>
      <point x="47" y="288" type="curve" smooth="yes"/>
      <point x="47" y="275"/>
      <point x="61" y="275"/>
      <point x="64" y="275" type="curve" smooth="yes"/>
      <point x="78" y="275"/>
      <point x="79" y="280"/>
      <point x="82" y="291" type="curve" smooth="yes"/>
      <point x="106" y="373"/>
      <point x="150" y="413"/>
      <point x="189" y="413" type="curve" smooth="yes"/>
      <point x="206" y="413"/>
      <point x="214" y="402"/>
      <point x="214" y="378" type="curve" smooth="yes"/>
      <point x="214" y="355"/>
      <point x="206" y="334"/>
      <point x="196" y="311" type="curve" smooth="yes"/>
      <point x="142" y="173"/>
      <point x="142" y="144"/>
      <point x="142" y="114" type="curve" smooth="yes"/>
      <point x="142" y="25"/>
      <point x="206" y="-10"/>
    </contour>
  </outline>
</glyph>
<glyph name="v" format="2">
  <advance width="571"/>
  <unicode hex="0076"/>
  <outline>
    <contour>
      <point x="534" y="363" type="curve" smooth="yes"/>
      <point x="534" y="441"/>
      <point x="487" y="442"/>
      <point x="484" y="442" type="curve" smooth="yes"/>
      <point x="458" y="442"/>
      <point x="430" y="415"/>
      <point x="430" y="389" type="curve" smooth="yes"/>
      <point x="430" y="372"/>
      <point x="440" y="364"/>
      <point x="447" y="358" type="curve" smooth="yes"/>
      <point x="464" y="344"/>
      <point x="484" y="318"/>
      <point x="484" y="278" type="curve" smooth="yes"/>
      <point x="484" y="233"/>
      <point x="418" y="18"/>
      <point x="299" y="18" type="curve" smooth="yes"/>
      <point x="218" y="18"/>
      <point x="218" y="90"/>
      <point x="218" y="107" type="curve" smooth="yes"/>
      <point x="218" y="153"/>
      <point x="236" y="209"/>
      <point x="273" y="302" type="curve" smooth="yes"/>
      <point x="281" y="323"/>
      <point x="287" y="338"/>
      <point x="287" y="355" type="curve" smooth="yes"/>
      <point x="287" y="407"/>
      <point x="243" y="441"/>
      <point x="192" y="441" type="curve" smooth="yes"/>
      <point x="92" y="441"/>
      <point x="47" y="304"/>
      <point x="47" y="288" type="curve" smooth="yes"/>
      <point x="47" y="275"/>
      <point x="61" y="275"/>
      <point x="64" y="275" type="curve" smooth="yes"/>
      <point x="78" y="275"/>
      <point x="79" y="280"/>
      <point x="82" y="291" type="curve" smooth="yes"/>
      <point x="106" y="373"/>
      <point x="149" y="413"/>
      <point x="189" y="413" type="curve" smooth="yes"/>
      <point x="206" y="413"/>
      <point x="214" y="402"/>
      <point x="214" y="378" type="curve" smooth="yes"/>
      <point x="214" y="355"/>
      <point x="206" y="334"/>
      <point x="196" y="311" type="curve" smooth="yes"/>
      <point x="153" y="200"/>
      <point x="142" y="157"/>
      <point x="142" y="121" type="curve" smooth="yes"/>
      <point x="142" y="22"/>
      <point x="220" y="-10"/>
      <point x="296" y="-10" type="curve" smooth="yes"/>
      <point x="464" y="-10"/>
      <point x="534" y="281"/>
    </contour>
  </outline>
</glyph>
<glyph name="w" format="2">
  <advance width="826"/>
  <unicode hex="0077"/>
  <outline>
    <contour>
      <point x="420" y="212" type="curve" smooth="yes"/>
      <point x="407" y="157"/>
      <point x="405" y="149"/>
      <point x="404" y="120" type="curve"/>
      <point x="408" y="100"/>
      <point x="400" y="81"/>
      <point x="376" y="51" type="curve" smooth="yes"/>
      <point x="363" y="35"/>
      <point x="343" y="18"/>
      <point x="309" y="18" type="curve" smooth="yes"/>
      <point x="270" y="18"/>
      <point x="219" y="32"/>
      <point x="219" y="110" type="curve" smooth="yes"/>
      <point x="219" y="161"/>
      <point x="247" y="235"/>
      <point x="267" y="286" type="curve" smooth="yes"/>
      <point x="284" y="330"/>
      <point x="288" y="339"/>
      <point x="288" y="356" type="curve" smooth="yes"/>
      <point x="288" y="404"/>
      <point x="247" y="441"/>
      <point x="193" y="441" type="curve" smooth="yes"/>
      <point x="92" y="441"/>
      <point x="47" y="305"/>
      <point x="47" y="288" type="curve" smooth="yes"/>
      <point x="47" y="275"/>
      <point x="61" y="275"/>
      <point x="64" y="275" type="curve" smooth="yes"/>
      <point x="78" y="275"/>
      <point x="79" y="280"/>
      <point x="82" y="291" type="curve" smooth="yes"/>
      <point x="107" y="374"/>
      <point x="150" y="413"/>
      <point x="190" y="413" type="curve" smooth="yes"/>
      <point x="207" y="413"/>
      <point x="215" y="402"/>
      <point x="215" y="378" type="curve" smooth="yes"/>
      <point x="215" y="355"/>
      <point x="206" y="333"/>
      <point x="201" y="320" type="curve" smooth="yes"/>
      <point x="144" y="174"/>
      <point x="144" y="154"/>
      <point x="144" y="123" type="curve" smooth="yes"/>
      <point x="144" y="5"/>
      <point x="251" y="-10"/>
      <point x="305" y="-10" type="curve" smooth="yes"/>
      <point x="324" y="-10"/>
      <point x="373" y="-10"/>
      <point x="418" y="57" type="curve"/>
      <point x="441" y="12"/>
      <point x="496" y="-10"/>
      <point x="557" y="-10" type="curve" smooth="yes"/>
      <point x="646" y="-10"/>
      <point x="690" y="67"/>
      <point x="710" y="108" type="curve" smooth="yes"/>
      <point x="753" y="192"/>
      <point x="780" y="317"/>
      <point x="780" y="363" type="curve" smooth="yes"/>
      <point x="780" y="438"/>
      <point x="737" y="442"/>
      <point x="730" y="442" type="curve" smooth="yes"/>
      <point x="704" y="442"/>
      <point x="676" y="415"/>
      <point x="676" y="389" type="curve" smooth="yes"/>
      <point x="676" y="372"/>
      <point x="686" y="364"/>
      <point x="693" y="358" type="curve" smooth="yes"/>
      <point x="717" y="338"/>
      <point x="730" y="310"/>
      <point x="730" y="278" type="curve" smooth="yes"/>
      <point x="730.0" y="270.30764"/>
      <point x="715.2944325472" y="180.6842613344"/>
      <point x="676.9745388309727" y="108.78365441975146" type="curve" smooth="yes"/>
      <point x="650.5342525359999" y="59.1730619248"/>
      <point x="612.85156" y="18.000000000000007"/>
      <point x="561" y="18" type="curve" smooth="yes"/>
      <point x="480" y="18"/>
      <point x="480" y="90"/>
      <point x="480" y="107" type="curve" smooth="yes"/>
      <point x="480" y="134"/>
      <point x="484" y="150"/>
      <point x="498" y="207" type="curve" smooth="yes"/>
      <point x="526" y="319" type="line" smooth="yes"/>
      <point x="533" y="346"/>
      <point x="545" y="394"/>
      <point x="545" y="399" type="curve" smooth="yes"/>
      <point x="545" y="419"/>
      <point x="529" y="431"/>
      <point x="512" y="431" type="curve" smooth="yes"/>
      <point x="493" y="431"/>
      <point x="475" y="419"/>
      <point x="469" y="402" type="curve" smooth="yes"/>
      <point x="466" y="394"/>
      <point x="456" y="352"/>
      <point x="449" y="327" type="curve" smooth="yes"/>
      <point x="435" y="270"/>
      <point x="435" y="268"/>
    </contour>
  </outline>
</glyph>
<glyph name="x" format="2">
  <advance width="647"/>
  <unicode hex="0078"/>
  <outline>
    <contour>
      <point x="249" y="106" type="line" smooth="yes"/>
      <point x="239" y="72"/>
      <point x="206" y="18"/>
      <point x="155" y="18" type="curve" smooth="yes"/>
      <point x="152" y="18"/>
      <point x="122" y="18"/>
      <point x="101" y="32" type="curve"/>
      <point x="142" y="45"/>
      <point x="145" y="81"/>
      <point x="145" y="87" type="curve" smooth="yes"/>
      <point x="145" y="109"/>
      <point x="128" y="124"/>
      <point x="105" y="124" type="curve" smooth="yes"/>
      <point x="77" y="124"/>
      <point x="48" y="100"/>
      <point x="48" y="63" type="curve" smooth="yes"/>
      <point x="48" y="13"/>
      <point x="104" y="-10"/>
      <point x="153" y="-10" type="curve" smooth="yes"/>
      <point x="199" y="-10"/>
      <point x="240" y="19"/>
      <point x="265" y="61" type="curve"/>
      <point x="289" y="8"/>
      <point x="344" y="-10"/>
      <point x="384" y="-10" type="curve" smooth="yes"/>
      <point x="499" y="-10"/>
      <point x="560" y="115"/>
      <point x="560" y="143" type="curve" smooth="yes"/>
      <point x="560" y="156"/>
      <point x="547" y="156"/>
      <point x="544" y="156" type="curve" smooth="yes"/>
      <point x="530" y="156"/>
      <point x="529" y="151"/>
      <point x="525" y="139" type="curve" smooth="yes"/>
      <point x="504" y="70"/>
      <point x="444" y="18"/>
      <point x="388" y="18" type="curve" smooth="yes"/>
      <point x="348" y="18"/>
      <point x="327" y="45"/>
      <point x="327" y="83" type="curve" smooth="yes"/>
      <point x="327" y="109"/>
      <point x="351" y="200"/>
      <point x="379" y="311" type="curve" smooth="yes"/>
      <point x="399" y="388"/>
      <point x="444" y="413"/>
      <point x="477" y="413" type="curve" smooth="yes"/>
      <point x="479" y="413"/>
      <point x="510" y="413"/>
      <point x="531" y="399" type="curve"/>
      <point x="499" y="390"/>
      <point x="487" y="362"/>
      <point x="487" y="344" type="curve" smooth="yes"/>
      <point x="487" y="322"/>
      <point x="504" y="307"/>
      <point x="527" y="307" type="curve" smooth="yes"/>
      <point x="550" y="307"/>
      <point x="583" y="326"/>
      <point x="583" y="368" type="curve" smooth="yes"/>
      <point x="583" y="424"/>
      <point x="519" y="441"/>
      <point x="479" y="441" type="curve" smooth="yes"/>
      <point x="429" y="441"/>
      <point x="389" y="408"/>
      <point x="367" y="370" type="curve"/>
      <point x="349" y="411"/>
      <point x="303" y="441"/>
      <point x="247" y="441" type="curve" smooth="yes"/>
      <point x="135" y="441"/>
      <point x="71" y="318"/>
      <point x="71" y="288" type="curve" smooth="yes"/>
      <point x="71" y="275"/>
      <point x="85" y="275"/>
      <point x="88" y="275" type="curve" smooth="yes"/>
      <point x="101" y="275"/>
      <point x="102" y="279"/>
      <point x="107" y="292" type="curve"/>
      <point x="132" y="370"/>
      <point x="195" y="413"/>
      <point x="244" y="413" type="curve" smooth="yes"/>
      <point x="277" y="413"/>
      <point x="304" y="395"/>
      <point x="304" y="347" type="curve" smooth="yes"/>
      <point x="304" y="327"/>
      <point x="292" y="277"/>
      <point x="283" y="243" type="curve" smooth="yes"/>
    </contour>
  </outline>
</glyph>
<glyph name="z" format="2">
  <advance width="545"/>
  <unicode hex="007A"/>
  <outline>
    <contour>
      <point x="275" y="441" type="curve" smooth="yes"/>
      <point x="195" y="441"/>
      <point x="141" y="354"/>
      <point x="141" y="324" type="curve" smooth="yes"/>
      <point x="141" y="315"/>
      <point x="151" y="312"/>
      <point x="158" y="312" type="curve" smooth="yes"/>
      <point x="170" y="312"/>
      <point x="172" y="315"/>
      <point x="176" y="326" type="curve"/>
      <point x="191" y="361"/>
      <point x="247" y="363"/>
      <point x="263" y="363" type="curve" smooth="yes"/>
      <point x="286" y="363"/>
      <point x="312" y="357"/>
      <point x="326" y="354" type="curve" smooth="yes"/>
      <point x="381" y="342"/>
      <point x="388" y="342"/>
      <point x="413" y="342" type="curve"/>
      <point x="413" y="342" type="line"/>
      <point x="387" y="315"/>
      <point x="369" y="297"/>
      <point x="274" y="221" type="curve" smooth="yes"/>
      <point x="196" y="159"/>
      <point x="169" y="134"/>
      <point x="150" y="114" type="curve" smooth="yes"/>
      <point x="90" y="55"/>
      <point x="61" y="11"/>
      <point x="61" y="2" type="curve" smooth="yes"/>
      <point x="61" y="-10"/>
      <point x="74" y="-10"/>
      <point x="78" y="-10" type="curve" smooth="yes"/>
      <point x="88" y="-10"/>
      <point x="90" y="-8"/>
      <point x="95" y="0" type="curve"/>
      <point x="122" y="38"/>
      <point x="153" y="61"/>
      <point x="187" y="61" type="curve" smooth="yes"/>
      <point x="199" y="61"/>
      <point x="214" y="60"/>
      <point x="241" y="35" type="curve" smooth="yes"/>
      <point x="272" y="5"/>
      <point x="292" y="-10"/>
      <point x="324" y="-10" type="curve" smooth="yes"/>
      <point x="431" y="-10"/>
      <point x="498" y="111"/>
      <point x="498" y="145" type="curve" smooth="yes"/>
      <point x="498" y="157"/>
      <point x="487" y="158"/>
      <point x="481" y="158" type="curve" smooth="yes"/>
      <point x="469" y="158"/>
      <point x="467" y="153"/>
      <point x="463" y="142" type="curve" smooth="yes"/>
      <point x="444" y="92"/>
      <point x="385" y="68"/>
      <point x="336" y="68" type="curve" smooth="yes"/>
      <point x="313" y="68"/>
      <point x="288" y="73"/>
      <point x="263" y="79" type="curve" smooth="yes"/>
      <point x="217" y="89"/>
      <point x="209" y="89"/>
      <point x="191" y="89" type="curve" smooth="yes"/>
      <point x="189" y="89"/>
      <point x="174" y="89"/>
      <point x="168" y="88" type="curve"/>
      <point x="194" y="114"/>
      <point x="212" y="133"/>
      <point x="297" y="201" type="curve" smooth="yes"/>
      <point x="318" y="218"/>
      <point x="393" y="278"/>
      <point x="422" y="306" type="curve" smooth="yes"/>
      <point x="483" y="366"/>
      <point x="521" y="417"/>
      <point x="521" y="429" type="curve" smooth="yes"/>
      <point x="521" y="441"/>
      <point x="508" y="441"/>
      <point x="504" y="441" type="curve" smooth="yes"/>
      <point x="495" y="441"/>
      <point x="492" y="439"/>
      <point x="487" y="431" type="curve" smooth="yes"/>
      <point x="456" y="385"/>
      <point x="435" y="370"/>
      <point x="411" y="370" type="curve" smooth="yes"/>
      <point x="399" y="370"/>
      <point x="384" y="371"/>
      <point x="354" y="400" type="curve" smooth="yes"/>
      <point x="320" y="434"/>
      <point x="298" y="441"/>
    </contour>
  </outline>
</glyph>
<glyph name="mu" format="2">
  <advance width="694"/>
  <unicode hex="00B5"/>
  <outline>
    <contour>
      <point x="54" y="-161" type="line" smooth="yes"/>
      <point x="50" y="-176"/>
      <point x="50" y="-181"/>
      <point x="50" y="-182" type="curve" smooth="yes"/>
      <point x="50" y="-204"/>
      <point x="68" y="-214"/>
      <point x="84" y="-214" type="curve" smooth="yes"/>
      <point x="120" y="-214"/>
      <point x="128" y="-181"/>
      <point x="132" y="-164" type="curve"/>
      <point x="134" y="-159"/>
      <point x="154" y="-79"/>
      <point x="178" y="19" type="curve"/>
      <point x="209" y="-2"/>
      <point x="249" y="-10"/>
      <point x="285" y="-10" type="curve" smooth="yes"/>
      <point x="371" y="-10"/>
      <point x="427" y="60"/>
      <point x="429" y="62" type="curve"/>
      <point x="448" y="-7"/>
      <point x="517" y="-10"/>
      <point x="532" y="-10" type="curve" smooth="yes"/>
      <point x="568" y="-10"/>
      <point x="593" y="12"/>
      <point x="611" y="43" type="curve" smooth="yes"/>
      <point x="633" y="82"/>
      <point x="646" y="139"/>
      <point x="646" y="143" type="curve" smooth="yes"/>
      <point x="646" y="156"/>
      <point x="633" y="156"/>
      <point x="630" y="156" type="curve" smooth="yes"/>
      <point x="616" y="156"/>
      <point x="615" y="152"/>
      <point x="608" y="125" type="curve" smooth="yes"/>
      <point x="596" y="77"/>
      <point x="577" y="18"/>
      <point x="535" y="18" type="curve" smooth="yes"/>
      <point x="509" y="18"/>
      <point x="502" y="40"/>
      <point x="502" y="67" type="curve" smooth="yes"/>
      <point x="502" y="84"/>
      <point x="510" y="120"/>
      <point x="517" y="146" type="curve" smooth="yes"/>
      <point x="524" y="173"/>
      <point x="534" y="214"/>
      <point x="539" y="236" type="curve" smooth="yes"/>
      <point x="562" y="325" type="line" smooth="yes"/>
      <point x="568" y="350"/>
      <point x="579" y="394"/>
      <point x="579" y="399" type="curve" smooth="yes"/>
      <point x="579" y="419"/>
      <point x="563" y="431"/>
      <point x="546" y="431" type="curve" smooth="yes"/>
      <point x="535" y="431"/>
      <point x="516" y="426"/>
      <point x="505" y="407" type="curve"/>
      <point x="502" y="401"/>
      <point x="494" y="369"/>
      <point x="489" y="349" type="curve" smooth="yes"/>
      <point x="468" y="266" type="line"/>
      <point x="437" y="141" type="line" smooth="yes"/>
      <point x="430" y="116"/>
      <point x="430" y="114"/>
      <point x="421" y="101" type="curve" smooth="yes"/>
      <point x="390" y="57"/>
      <point x="346" y="18"/>
      <point x="289" y="18" type="curve" smooth="yes"/>
      <point x="207" y="18"/>
      <point x="207" y="89"/>
      <point x="207" y="107" type="curve" smooth="yes"/>
      <point x="207" y="133"/>
      <point x="210" y="146"/>
      <point x="224" y="200" type="curve" smooth="yes"/>
      <point x="234" y="244"/>
      <point x="236" y="251"/>
      <point x="246" y="290" type="curve" smooth="yes"/>
      <point x="260" y="346" type="line" smooth="yes"/>
      <point x="265" y="367"/>
      <point x="275" y="405"/>
      <point x="275" y="409" type="curve" smooth="yes"/>
      <point x="275" y="427"/>
      <point x="261" y="441"/>
      <point x="241" y="441" type="curve" smooth="yes"/>
      <point x="205" y="441"/>
      <point x="196" y="406"/>
      <point x="193" y="394" type="curve" smooth="yes"/>
    </contour>
  </outline>
</glyph>
<glyph name="dotlessi" format="2">
  <advance width="398"/>
  <unicode hex="0131"/>
  <outline>
    <contour>
      <point x="120" y="117" type="line"/>
      <point x="116" y="104"/>
      <point x="111" y="92"/>
      <point x="111" y="75" type="curve" smooth="yes"/>
      <point x="111" y="28"/>
      <point x="151" y="-10"/>
      <point x="206" y="-10" type="curve" smooth="yes"/>
      <point x="306" y="-10"/>
      <point x="350" y="128"/>
      <point x="350" y="143" type="curve" smooth="yes"/>
      <point x="350" y="156"/>
      <point x="337" y="156"/>
      <point x="334" y="156" type="curve" smooth="yes"/>
      <point x="320" y="156"/>
      <point x="319" y="150"/>
      <point x="315" y="139" type="curve"/>
      <point x="292" y="59"/>
      <point x="248" y="18"/>
      <point x="209" y="18" type="curve" smooth="yes"/>
      <point x="189" y="18"/>
      <point x="184" y="31"/>
      <point x="184" y="53" type="curve" smooth="yes"/>
      <point x="184" y="76"/>
      <point x="191" y="95"/>
      <point x="200" y="117" type="curve" smooth="yes"/>
      <point x="210" y="144"/>
      <point x="221" y="171"/>
      <point x="232" y="197" type="curve" smooth="yes"/>
      <point x="241" y="221"/>
      <point x="277" y="312"/>
      <point x="281" y="324" type="curve" smooth="yes"/>
      <point x="284" y="334"/>
      <point x="287" y="346"/>
      <point x="287" y="356" type="curve" smooth="yes"/>
      <point x="287" y="403"/>
      <point x="247" y="441"/>
      <point x="192" y="441" type="curve" smooth="yes"/>
      <point x="93" y="441"/>
      <point x="47" y="305"/>
      <point x="47" y="288" type="curve" smooth="yes"/>
      <point x="47" y="275"/>
      <point x="61" y="275"/>
      <point x="64" y="275" type="curve" smooth="yes"/>
      <point x="78" y="275"/>
      <point x="79" y="280"/>
      <point x="82" y="291" type="curve" smooth="yes"/>
      <point x="108" y="377"/>
      <point x="152" y="413"/>
      <point x="189" y="413" type="curve" smooth="yes"/>
      <point x="205" y="413"/>
      <point x="214" y="405"/>
      <point x="214" y="378" type="curve" smooth="yes"/>
      <point x="214" y="355"/>
      <point x="208" y="340"/>
      <point x="183" y="278" type="curve" smooth="yes"/>
    </contour>
  </outline>
</glyph>
<glyph name="Gamma" format="2">
  <advance width="693"/>
  <unicode hex="0393"/>
  <outline>
    <contour>
      <point x="414" y="609" type="line" smooth="yes"/>
      <point x="422" y="640"/>
      <point x="423" y="643"/>
      <point x="465" y="643" type="curve" smooth="yes"/>
      <point x="599" y="643" type="line" smooth="yes"/>
      <point x="715" y="643"/>
      <point x="746" y="617"/>
      <point x="746" y="533" type="curve" smooth="yes"/>
      <point x="746" y="512"/>
      <point x="741" y="486"/>
      <point x="741" y="466" type="curve" smooth="yes"/>
      <point x="741" y="458"/>
      <point x="744" y="449"/>
      <point x="758" y="449" type="curve" smooth="yes"/>
      <point x="773" y="449"/>
      <point x="774" y="458"/>
      <point x="776" y="475" type="curve" smooth="yes"/>
      <point x="794" y="649" type="line" smooth="yes"/>
      <point x="797" y="679"/>
      <point x="790" y="679"/>
      <point x="765" y="679" type="curve" smooth="yes"/>
      <point x="262" y="679" type="line" smooth="yes"/>
      <point x="243" y="679"/>
      <point x="230" y="679"/>
      <point x="230" y="657" type="curve" smooth="yes"/>
      <point x="230" y="643"/>
      <point x="242" y="643"/>
      <point x="262" y="643" type="curve" smooth="yes"/>
      <point x="263" y="643"/>
      <point x="282" y="643"/>
      <point x="300" y="641" type="curve" smooth="yes"/>
      <point x="321" y="639"/>
      <point x="323" y="637"/>
      <point x="323" y="627" type="curve" smooth="yes"/>
      <point x="323" y="620"/>
      <point x="320" y="610"/>
      <point x="319" y="605" type="curve" smooth="yes"/>
      <point x="188" y="82" type="line" smooth="yes"/>
      <point x="178" y="43"/>
      <point x="177" y="36"/>
      <point x="99" y="36" type="curve" smooth="yes"/>
      <point x="82" y="36"/>
      <point x="69" y="36"/>
      <point x="69" y="15" type="curve" smooth="yes"/>
      <point x="69" y="5"/>
      <point x="76" y="0"/>
      <point x="85" y="0" type="curve" smooth="yes"/>
      <point x="114" y="0"/>
      <point x="188" y="4"/>
      <point x="217" y="4" type="curve" smooth="yes"/>
      <point x="294" y="3" type="line" smooth="yes"/>
      <point x="320" y="3"/>
      <point x="348" y="0"/>
      <point x="373" y="0" type="curve" smooth="yes"/>
      <point x="380" y="0"/>
      <point x="395" y="0"/>
      <point x="395" y="22" type="curve" smooth="yes"/>
      <point x="395" y="36"/>
      <point x="383" y="36"/>
      <point x="360" y="36" type="curve" smooth="yes"/>
      <point x="358" y="36"/>
      <point x="333" y="36"/>
      <point x="308" y="38" type="curve" smooth="yes"/>
      <point x="287" y="40"/>
      <point x="277" y="41"/>
      <point x="277" y="55" type="curve" smooth="yes"/>
      <point x="277" y="59"/>
      <point x="277" y="62"/>
      <point x="280" y="73" type="curve" smooth="yes"/>
    </contour>
  </outline>
</glyph>
<glyph name="Theta" format="2">
  <advance width="868"/>
  <unicode hex="0398"/>
  <outline>
    <contour>
      <point x="829" y="425" type="curve" smooth="yes"/>
      <point x="829" y="582"/>
      <point x="716" y="703"/>
      <point x="539" y="703" type="curve" smooth="yes"/>
      <point x="300" y="703"/>
      <point x="69" y="479"/>
      <point x="69" y="254" type="curve" smooth="yes"/>
      <point x="69" y="93"/>
      <point x="188" y="-20"/>
      <point x="360" y="-20" type="curve" smooth="yes"/>
      <point x="598" y="-20"/>
      <point x="829" y="198"/>
    </contour>
    <contour>
      <point x="367" y="10" type="curve" smooth="yes"/>
      <point x="266" y="10"/>
      <point x="163" y="74"/>
      <point x="163" y="229" type="curve" smooth="yes"/>
      <point x="163" y="301"/>
      <point x="188" y="438"/>
      <point x="283" y="549" type="curve" smooth="yes"/>
      <point x="348" y="624"/>
      <point x="443" y="675"/>
      <point x="532" y="675" type="curve" smooth="yes"/>
      <point x="641" y="675"/>
      <point x="735" y="602"/>
      <point x="735" y="452" type="curve" smooth="yes"/>
      <point x="735" y="391"/>
      <point x="714" y="246"/>
      <point x="616" y="133" type="curve" smooth="yes"/>
      <point x="547" y="54"/>
      <point x="452" y="10"/>
    </contour>
    <contour>
      <point x="614" y="302" type="line"/>
      <point x="612" y="297"/>
      <point x="610" y="290"/>
      <point x="610" y="284" type="curve" smooth="yes"/>
      <point x="610" y="268"/>
      <point x="625" y="268"/>
      <point x="627" y="268" type="curve" smooth="yes"/>
      <point x="640" y="268"/>
      <point x="642" y="276"/>
      <point x="645" y="289" type="curve"/>
      <point x="649" y="302"/>
      <point x="673" y="398"/>
      <point x="673" y="402" type="curve" smooth="yes"/>
      <point x="673" y="409"/>
      <point x="668" y="417"/>
      <point x="657" y="417" type="curve" smooth="yes"/>
      <point x="647" y="417"/>
      <point x="642" y="411"/>
      <point x="640" y="406" type="curve" smooth="yes"/>
      <point x="637" y="398"/>
      <point x="634" y="390"/>
      <point x="634" y="383" type="curve"/>
      <point x="285" y="383" type="line"/>
      <point x="287" y="389"/>
      <point x="289" y="399"/>
      <point x="289" y="402" type="curve" smooth="yes"/>
      <point x="289" y="409"/>
      <point x="284" y="417"/>
      <point x="273" y="417" type="curve" smooth="yes"/>
      <point x="259" y="417"/>
      <point x="257" y="408"/>
      <point x="254" y="397" type="curve" smooth="yes"/>
      <point x="250" y="383"/>
      <point x="226" y="290"/>
      <point x="226" y="284" type="curve" smooth="yes"/>
      <point x="226" y="268"/>
      <point x="241" y="268"/>
      <point x="243" y="268" type="curve" smooth="yes"/>
      <point x="262" y="268"/>
      <point x="265" y="300"/>
      <point x="265" y="302" type="curve"/>
    </contour>
  </outline>
</glyph>
<glyph name="Lambda" format="2">
  <advance width="797"/>
  <unicode hex="039B"/>
  <outline>
    <contour>
      <point x="193" y="120" type="line" smooth="yes"/>
      <point x="145" y="42"/>
      <point x="107" y="39"/>
      <point x="72" y="36" type="curve" smooth="yes"/>
      <point x="62" y="35"/>
      <point x="57" y="25"/>
      <point x="57" y="14" type="curve" smooth="yes"/>
      <point x="57" y="9"/>
      <point x="61" y="0"/>
      <point x="70" y="0" type="curve" smooth="yes"/>
      <point x="93" y="0"/>
      <point x="122" y="4"/>
      <point x="146" y="4" type="curve" smooth="yes"/>
      <point x="178" y="4"/>
      <point x="219" y="0"/>
      <point x="249" y="0" type="curve" smooth="yes"/>
      <point x="254" y="0"/>
      <point x="270" y="0"/>
      <point x="270" y="22" type="curve" smooth="yes"/>
      <point x="270" y="35"/>
      <point x="256" y="36"/>
      <point x="252" y="36" type="curve"/>
      <point x="233" y="37"/>
      <point x="207" y="43"/>
      <point x="207" y="67" type="curve" smooth="yes"/>
      <point x="207" y="81"/>
      <point x="218" y="99"/>
      <point x="223" y="107" type="curve" smooth="yes"/>
      <point x="513" y="577" type="line"/>
      <point x="570" y="79" type="line"/>
      <point x="571" y="74"/>
      <point x="572" y="66"/>
      <point x="572" y="64" type="curve" smooth="yes"/>
      <point x="572" y="54"/>
      <point x="562" y="36"/>
      <point x="501" y="36" type="curve" smooth="yes"/>
      <point x="490" y="36"/>
      <point x="476" y="36"/>
      <point x="476" y="14" type="curve" smooth="yes"/>
      <point x="476" y="13"/>
      <point x="476" y="0"/>
      <point x="492" y="0" type="curve" smooth="yes"/>
      <point x="521" y="0"/>
      <point x="593" y="4"/>
      <point x="622" y="4" type="curve" smooth="yes"/>
      <point x="646" y="4"/>
      <point x="705" y="0"/>
      <point x="729" y="0" type="curve" smooth="yes"/>
      <point x="734" y="0"/>
      <point x="749" y="0"/>
      <point x="749" y="22" type="curve" smooth="yes"/>
      <point x="749" y="36"/>
      <point x="737" y="36"/>
      <point x="721" y="36" type="curve" smooth="yes"/>
      <point x="674" y="36"/>
      <point x="673" y="44"/>
      <point x="670" y="67" type="curve" smooth="yes"/>
      <point x="599" y="684" type="line" smooth="yes"/>
      <point x="596" y="707"/>
      <point x="596" y="713"/>
      <point x="576" y="713" type="curve" smooth="yes"/>
      <point x="558" y="713"/>
      <point x="553" y="705"/>
      <point x="545" y="692" type="curve" smooth="yes"/>
    </contour>
  </outline>
</glyph>
<glyph name="Xi" format="2">
  <advance width="844"/>
  <unicode hex="039E"/>
  <outline>
    <contour>
      <point x="205" y="544" type="line"/>
      <point x="205" y="542"/>
      <point x="201" y="531"/>
      <point x="201" y="530" type="curve" smooth="yes"/>
      <point x="201" y="520"/>
      <point x="209" y="516"/>
      <point x="218" y="516" type="curve" smooth="yes"/>
      <point x="231" y="516"/>
      <point x="233" y="522"/>
      <point x="238" y="538" type="curve" smooth="yes"/>
      <point x="243" y="555"/>
      <point x="255" y="589"/>
      <point x="264" y="596" type="curve"/>
      <point x="270" y="602"/>
      <point x="331" y="602"/>
      <point x="342" y="602" type="curve" smooth="yes"/>
      <point x="734" y="602" type="line" smooth="yes"/>
      <point x="755" y="602"/>
      <point x="786" y="601"/>
      <point x="807" y="599" type="curve"/>
      <point x="807" y="582"/>
      <point x="807" y="572"/>
      <point x="801" y="542" type="curve"/>
      <point x="801" y="538"/>
      <point x="800" y="533"/>
      <point x="800" y="530" type="curve" smooth="yes"/>
      <point x="800" y="529"/>
      <point x="800" y="516"/>
      <point x="816" y="516" type="curve" smooth="yes"/>
      <point x="831" y="516"/>
      <point x="831" y="520"/>
      <point x="835" y="540" type="curve" smooth="yes"/>
      <point x="855" y="646" type="line"/>
      <point x="856" y="649"/>
      <point x="857" y="659"/>
      <point x="857" y="662" type="curve" smooth="yes"/>
      <point x="857" y="676"/>
      <point x="845" y="676"/>
      <point x="827" y="676" type="curve" smooth="yes"/>
      <point x="273" y="676" type="line" smooth="yes"/>
      <point x="248" y="676"/>
      <point x="247" y="675"/>
      <point x="240" y="654" type="curve" smooth="yes"/>
    </contour>
    <contour>
      <point x="671" y="0" type="line" smooth="yes"/>
      <point x="694" y="0"/>
      <point x="697" y="0"/>
      <point x="702" y="14" type="curve" smooth="yes"/>
      <point x="708" y="30"/>
      <point x="746" y="150"/>
      <point x="746" y="157" type="curve" smooth="yes"/>
      <point x="746" y="163"/>
      <point x="742" y="171"/>
      <point x="729" y="171" type="curve" smooth="yes"/>
      <point x="716" y="171"/>
      <point x="715" y="166"/>
      <point x="709" y="148" type="curve" smooth="yes"/>
      <point x="705" y="137"/>
      <point x="688" y="85"/>
      <point x="679" y="79" type="curve"/>
      <point x="668" y="74"/>
      <point x="610" y="74"/>
      <point x="597" y="74" type="curve" smooth="yes"/>
      <point x="203" y="74" type="line" smooth="yes"/>
      <point x="158" y="74"/>
      <point x="156" y="74"/>
      <point x="126" y="78" type="curve"/>
      <point x="126" y="92"/>
      <point x="126" y="106"/>
      <point x="131" y="133" type="curve" smooth="yes"/>
      <point x="132" y="138"/>
      <point x="135" y="153"/>
      <point x="135" y="156" type="curve" smooth="yes"/>
      <point x="135" y="166"/>
      <point x="128" y="171"/>
      <point x="118" y="171" type="curve" smooth="yes"/>
      <point x="104" y="171"/>
      <point x="102" y="163"/>
      <point x="100" y="149" type="curve"/>
      <point x="96" y="131"/>
      <point x="75" y="24"/>
      <point x="75" y="15" type="curve" smooth="yes"/>
      <point x="75" y="0"/>
      <point x="87" y="0"/>
      <point x="105" y="0" type="curve" smooth="yes"/>
    </contour>
    <contour>
      <point x="702" y="412" type="line"/>
      <point x="703" y="415"/>
      <point x="705" y="425"/>
      <point x="705" y="426" type="curve" smooth="yes"/>
      <point x="705" y="433"/>
      <point x="700" y="441"/>
      <point x="689" y="441" type="curve" smooth="yes"/>
      <point x="675" y="441"/>
      <point x="673" y="432"/>
      <point x="670" y="421" type="curve" smooth="yes"/>
      <point x="664" y="399"/>
      <point x="667" y="411"/>
      <point x="662" y="389" type="curve"/>
      <point x="302" y="389" type="line"/>
      <point x="305" y="401"/>
      <point x="310" y="420"/>
      <point x="310" y="426" type="curve" smooth="yes"/>
      <point x="310" y="433"/>
      <point x="305" y="441"/>
      <point x="294" y="441" type="curve" smooth="yes"/>
      <point x="280" y="441"/>
      <point x="278" y="433"/>
      <point x="274" y="417" type="curve" smooth="yes"/>
      <point x="240" y="278" type="line"/>
      <point x="240" y="271"/>
      <point x="245" y="263"/>
      <point x="256" y="263" type="curve" smooth="yes"/>
      <point x="270" y="263"/>
      <point x="272" y="272"/>
      <point x="275" y="283" type="curve" smooth="yes"/>
      <point x="281" y="305"/>
      <point x="278" y="293"/>
      <point x="283" y="315" type="curve"/>
      <point x="643" y="315" type="line"/>
      <point x="640" y="303"/>
      <point x="635" y="284"/>
      <point x="635" y="278" type="curve" smooth="yes"/>
      <point x="635" y="271"/>
      <point x="640" y="263"/>
      <point x="651" y="263" type="curve" smooth="yes"/>
      <point x="665" y="263"/>
      <point x="666" y="269"/>
      <point x="670" y="285" type="curve" smooth="yes"/>
    </contour>
  </outline>
</glyph>
<glyph name="Pi" format="2">
  <advance width="935"/>
  <unicode hex="03A0"/>
  <outline>
    <contour>
      <point x="841" y="601" type="line" smooth="yes"/>
      <point x="850" y="635"/>
      <point x="852" y="643"/>
      <point x="929" y="643" type="curve" smooth="yes"/>
      <point x="946" y="643"/>
      <point x="959" y="643"/>
      <point x="959" y="665" type="curve" smooth="yes"/>
      <point x="959" y="679"/>
      <point x="946" y="679"/>
      <point x="929" y="679" type="curve" smooth="yes"/>
      <point x="262" y="679" type="line" smooth="yes"/>
      <point x="243" y="679"/>
      <point x="230" y="679"/>
      <point x="230" y="657" type="curve" smooth="yes"/>
      <point x="230" y="643"/>
      <point x="242" y="643"/>
      <point x="262" y="643" type="curve" smooth="yes"/>
      <point x="263" y="643"/>
      <point x="282" y="643"/>
      <point x="300" y="641" type="curve" smooth="yes"/>
      <point x="321" y="639"/>
      <point x="323" y="637"/>
      <point x="323" y="627" type="curve" smooth="yes"/>
      <point x="323" y="620"/>
      <point x="320" y="610"/>
      <point x="319" y="605" type="curve" smooth="yes"/>
      <point x="188" y="82" type="line" smooth="yes"/>
      <point x="178" y="43"/>
      <point x="177" y="36"/>
      <point x="99" y="36" type="curve" smooth="yes"/>
      <point x="82" y="36"/>
      <point x="69" y="36"/>
      <point x="69" y="15" type="curve" smooth="yes"/>
      <point x="69" y="5"/>
      <point x="76" y="0"/>
      <point x="85" y="0" type="curve" smooth="yes"/>
      <point x="114" y="0"/>
      <point x="186" y="4"/>
      <point x="215" y="4" type="curve" smooth="yes"/>
      <point x="232" y="4"/>
      <point x="267" y="4"/>
      <point x="284" y="3" type="curve" smooth="yes"/>
      <point x="304" y="2"/>
      <point x="329" y="0"/>
      <point x="348" y="0" type="curve" smooth="yes"/>
      <point x="353" y="0"/>
      <point x="369" y="0"/>
      <point x="369" y="21" type="curve" smooth="yes"/>
      <point x="369" y="36"/>
      <point x="359" y="36"/>
      <point x="336" y="36" type="curve" smooth="yes"/>
      <point x="320" y="36"/>
      <point x="316" y="36"/>
      <point x="298" y="38" type="curve" smooth="yes"/>
      <point x="276" y="41"/>
      <point x="276" y="43"/>
      <point x="276" y="53" type="curve" smooth="yes"/>
      <point x="276" y="54"/>
      <point x="276" y="60"/>
      <point x="280" y="75" type="curve" smooth="yes"/>
      <point x="422" y="643" type="line"/>
      <point x="757" y="643" type="line"/>
      <point x="616" y="78" type="line" smooth="yes"/>
      <point x="608" y="44"/>
      <point x="606" y="36"/>
      <point x="528" y="36" type="curve" smooth="yes"/>
      <point x="511" y="36"/>
      <point x="498" y="36"/>
      <point x="498" y="15" type="curve" smooth="yes"/>
      <point x="498" y="5"/>
      <point x="505" y="0"/>
      <point x="514" y="0" type="curve" smooth="yes"/>
      <point x="543" y="0"/>
      <point x="615" y="4"/>
      <point x="644" y="4" type="curve" smooth="yes"/>
      <point x="661" y="4"/>
      <point x="696" y="4"/>
      <point x="713" y="3" type="curve" smooth="yes"/>
      <point x="733" y="2"/>
      <point x="758" y="0"/>
      <point x="777" y="0" type="curve" smooth="yes"/>
      <point x="782" y="0"/>
      <point x="798" y="0"/>
      <point x="798" y="21" type="curve" smooth="yes"/>
      <point x="798" y="36"/>
      <point x="788" y="36"/>
      <point x="765" y="36" type="curve" smooth="yes"/>
      <point x="749" y="36"/>
      <point x="745" y="36"/>
      <point x="727" y="38" type="curve" smooth="yes"/>
      <point x="705" y="41"/>
      <point x="705" y="43"/>
      <point x="705" y="53" type="curve" smooth="yes"/>
      <point x="705" y="54"/>
      <point x="705" y="60"/>
      <point x="709" y="75" type="curve" smooth="yes"/>
    </contour>
  </outline>
</glyph>
<glyph name="Sigma" format="2">
  <advance width="886"/>
  <unicode hex="03A3"/>
  <outline>
    <contour>
      <point x="504" y="324" type="line" smooth="yes"/>
      <point x="515" y="333"/>
      <point x="517" y="335"/>
      <point x="517" y="342" type="curve" smooth="yes"/>
      <point x="517" y="347"/>
      <point x="514" y="354"/>
      <point x="512" y="357" type="curve"/>
      <point x="361" y="647" type="line"/>
      <point x="626" y="647" type="line" smooth="yes"/>
      <point x="658" y="647"/>
      <point x="735" y="645"/>
      <point x="780" y="629" type="curve" smooth="yes"/>
      <point x="822" y="614"/>
      <point x="838" y="568"/>
      <point x="838" y="509" type="curve" smooth="yes"/>
      <point x="838" y="487"/>
      <point x="836" y="476"/>
      <point x="836" y="470" type="curve" smooth="yes"/>
      <point x="836" y="461"/>
      <point x="839" y="453"/>
      <point x="853" y="453" type="curve" smooth="yes"/>
      <point x="868" y="453"/>
      <point x="869" y="462"/>
      <point x="871" y="479" type="curve" smooth="yes"/>
      <point x="889" y="653" type="line" smooth="yes"/>
      <point x="892" y="683"/>
      <point x="885" y="683"/>
      <point x="860" y="683" type="curve" smooth="yes"/>
      <point x="275" y="683" type="line" smooth="yes"/>
      <point x="256" y="683"/>
      <point x="242" y="683"/>
      <point x="242" y="660" type="curve"/>
      <point x="426" y="304" type="line"/>
      <point x="95" y="32" type="line" smooth="yes"/>
      <point x="83" y="22"/>
      <point x="81" y="21"/>
      <point x="81" y="14" type="curve" smooth="yes"/>
      <point x="81" y="0"/>
      <point x="94" y="0"/>
      <point x="111" y="0" type="curve" smooth="yes"/>
      <point x="696" y="0" type="line" smooth="yes"/>
      <point x="720" y="0"/>
      <point x="721" y="1"/>
      <point x="729" y="19" type="curve" smooth="yes"/>
      <point x="805" y="211" type="line" smooth="yes"/>
      <point x="807" y="216"/>
      <point x="809" y="222"/>
      <point x="809" y="227" type="curve" smooth="yes"/>
      <point x="809" y="228"/>
      <point x="809" y="241"/>
      <point x="793" y="241" type="curve" smooth="yes"/>
      <point x="789" y="241"/>
      <point x="781" y="241"/>
      <point x="776" y="230" type="curve" smooth="yes"/>
      <point x="740" y="144"/>
      <point x="697" y="91"/>
      <point x="651" y="72" type="curve" smooth="yes"/>
      <point x="635" y="66"/>
      <point x="588" y="47"/>
      <point x="462" y="47" type="curve" smooth="yes"/>
      <point x="168" y="47" type="line"/>
    </contour>
  </outline>
</glyph>
<glyph name="Upsilon" format="2">
  <advance width="677"/>
  <unicode hex="03A5"/>
  <outline>
    <contour>
      <point x="392" y="451" type="curve"/>
      <point x="393" y="460"/>
      <point x="393" y="462"/>
      <point x="393" y="486" type="curve" smooth="yes"/>
      <point x="393" y="637"/>
      <point x="326" y="703"/>
      <point x="233" y="703" type="curve" smooth="yes"/>
      <point x="113" y="703"/>
      <point x="46" y="575"/>
      <point x="46" y="543" type="curve" smooth="yes"/>
      <point x="46" y="534"/>
      <point x="55" y="532"/>
      <point x="61" y="532" type="curve" smooth="yes"/>
      <point x="77" y="532"/>
      <point x="80" y="541"/>
      <point x="84" y="551" type="curve" smooth="yes"/>
      <point x="102" y="602"/>
      <point x="161" y="624"/>
      <point x="211" y="624" type="curve" smooth="yes"/>
      <point x="310" y="624"/>
      <point x="334" y="536"/>
      <point x="334" y="459" type="curve" smooth="yes"/>
      <point x="334" y="406"/>
      <point x="332" y="396"/>
      <point x="296" y="255" type="curve" smooth="yes"/>
      <point x="250" y="68" type="line" smooth="yes"/>
      <point x="241" y="37"/>
      <point x="210" y="36"/>
      <point x="140" y="36" type="curve" smooth="yes"/>
      <point x="121" y="36"/>
      <point x="108" y="36"/>
      <point x="108" y="15" type="curve" smooth="yes"/>
      <point x="108" y="5"/>
      <point x="115" y="0"/>
      <point x="125" y="0" type="curve" smooth="yes"/>
      <point x="148" y="0"/>
      <point x="175" y="2"/>
      <point x="199" y="3" type="curve" smooth="yes"/>
      <point x="224" y="4"/>
      <point x="255" y="4"/>
      <point x="280" y="4" type="curve" smooth="yes"/>
      <point x="305" y="4"/>
      <point x="332" y="3"/>
      <point x="357" y="3" type="curve" smooth="yes"/>
      <point x="383" y="3"/>
      <point x="412" y="0"/>
      <point x="438" y="0" type="curve" smooth="yes"/>
      <point x="444" y="0"/>
      <point x="460" y="0"/>
      <point x="460" y="21" type="curve" smooth="yes"/>
      <point x="460" y="36"/>
      <point x="449" y="36"/>
      <point x="427" y="36" type="curve" smooth="yes"/>
      <point x="418" y="36"/>
      <point x="399" y="36"/>
      <point x="375" y="38" type="curve" smooth="yes"/>
      <point x="351" y="40"/>
      <point x="342" y="41"/>
      <point x="342" y="55" type="curve" smooth="yes"/>
      <point x="342" y="58"/>
      <point x="342" y="60"/>
      <point x="349" y="92" type="curve" smooth="yes"/>
      <point x="411" y="337" type="line" smooth="yes"/>
      <point x="453" y="506"/>
      <point x="548" y="624"/>
      <point x="658" y="624" type="curve" smooth="yes"/>
      <point x="719" y="624"/>
      <point x="751" y="595"/>
      <point x="751" y="562" type="curve" smooth="yes"/>
      <point x="751" y="557"/>
      <point x="748" y="545"/>
      <point x="748" y="544" type="curve" smooth="yes"/>
      <point x="748" y="534"/>
      <point x="757" y="532"/>
      <point x="763" y="532" type="curve" smooth="yes"/>
      <point x="780" y="532"/>
      <point x="790" y="543"/>
      <point x="790" y="587" type="curve" smooth="yes"/>
      <point x="790" y="648"/>
      <point x="751" y="703"/>
      <point x="677" y="703" type="curve" smooth="yes"/>
      <point x="592" y="703"/>
      <point x="528" y="646"/>
      <point x="512" y="631" type="curve" smooth="yes"/>
      <point x="475" y="595"/>
      <point x="437" y="551"/>
    </contour>
  </outline>
</glyph>
<glyph name="Phi" format="2">
  <advance width="769"/>
  <unicode hex="03A6"/>
  <outline>
    <contour>
      <point x="491" y="595" type="line" smooth="yes"/>
      <point x="503" y="640"/>
      <point x="504" y="647"/>
      <point x="598" y="647" type="curve" smooth="yes"/>
      <point x="627" y="647"/>
      <point x="638" y="647"/>
      <point x="638" y="669" type="curve" smooth="yes"/>
      <point x="638" y="670"/>
      <point x="637" y="683"/>
      <point x="621" y="683" type="curve" smooth="yes"/>
      <point x="597" y="683"/>
      <point x="571" y="680"/>
      <point x="547" y="680" type="curve" smooth="yes"/>
      <point x="524" y="680"/>
      <point x="491" y="679"/>
      <point x="469" y="679" type="curve"/>
      <point x="469" y="679"/>
      <point x="392" y="680"/>
      <point x="392" y="680" type="curve"/>
      <point x="367" y="680"/>
      <point x="339" y="683"/>
      <point x="315" y="683" type="curve" smooth="yes"/>
      <point x="309" y="683"/>
      <point x="293" y="683"/>
      <point x="293" y="662" type="curve" smooth="yes"/>
      <point x="293" y="647"/>
      <point x="304" y="647"/>
      <point x="326" y="647" type="curve" smooth="yes"/>
      <point x="327" y="647"/>
      <point x="356" y="647"/>
      <point x="378" y="645" type="curve" smooth="yes"/>
      <point x="405" y="643"/>
      <point x="411" y="642"/>
      <point x="411" y="627" type="curve" smooth="yes"/>
      <point x="411" y="621"/>
      <point x="405" y="599"/>
      <point x="402" y="584" type="curve"/>
      <point x="394" y="555"/>
      <point x="398" y="572"/>
      <point x="391" y="543" type="curve"/>
      <point x="218" y="533"/>
      <point x="43" y="431"/>
      <point x="43" y="311" type="curve" smooth="yes"/>
      <point x="43" y="215"/>
      <point x="160" y="147"/>
      <point x="290" y="140" type="curve"/>
      <point x="278" y="90" type="line" smooth="yes"/>
      <point x="266" y="43"/>
      <point x="264" y="36"/>
      <point x="171" y="36" type="curve" smooth="yes"/>
      <point x="141" y="36"/>
      <point x="131" y="36"/>
      <point x="131" y="14" type="curve" smooth="yes"/>
      <point x="131" y="12"/>
      <point x="132" y="0"/>
      <point x="148" y="0" type="curve" smooth="yes"/>
      <point x="171" y="0"/>
      <point x="198" y="3"/>
      <point x="222" y="3" type="curve"/>
      <point x="222" y="3"/>
      <point x="300" y="4"/>
      <point x="300" y="4" type="curve"/>
      <point x="300" y="4"/>
      <point x="377" y="3"/>
      <point x="377" y="3" type="curve"/>
      <point x="402" y="3"/>
      <point x="429" y="0"/>
      <point x="454" y="0" type="curve" smooth="yes"/>
      <point x="461" y="0"/>
      <point x="476" y="0"/>
      <point x="476" y="22" type="curve" smooth="yes"/>
      <point x="476" y="36"/>
      <point x="464" y="36"/>
      <point x="441" y="36" type="curve" smooth="yes"/>
      <point x="439" y="36"/>
      <point x="414" y="36"/>
      <point x="389" y="38" type="curve" smooth="yes"/>
      <point x="368" y="40"/>
      <point x="358" y="41"/>
      <point x="358" y="55" type="curve" smooth="yes"/>
      <point x="358" y="57"/>
      <point x="358" y="59"/>
      <point x="377" y="140" type="curve"/>
      <point x="560" y="152"/>
      <point x="726" y="255"/>
      <point x="726" y="372" type="curve" smooth="yes"/>
      <point x="726" y="463"/>
      <point x="621" y="534"/>
      <point x="478" y="543" type="curve"/>
    </contour>
    <contour>
      <point x="297" y="168" type="line"/>
      <point x="210" y="176"/>
      <point x="141" y="211"/>
      <point x="141" y="296" type="curve" smooth="yes"/>
      <point x="141" y="317"/>
      <point x="149" y="495"/>
      <point x="384" y="515" type="curve"/>
    </contour>
    <contour>
      <point x="471" y="515" type="line"/>
      <point x="528" y="510"/>
      <point x="561" y="494"/>
      <point x="582" y="480" type="curve" smooth="yes"/>
      <point x="627" y="449"/>
      <point x="627" y="407"/>
      <point x="627" y="387" type="curve" smooth="yes"/>
      <point x="627" y="327"/>
      <point x="592" y="186"/>
      <point x="385" y="168" type="curve"/>
    </contour>
  </outline>
</glyph>
<glyph name="Psi" format="2">
  <advance width="716"/>
  <unicode hex="03A8"/>
  <outline>
    <contour>
      <point x="473" y="601" type="line" smooth="yes"/>
      <point x="482" y="637"/>
      <point x="485" y="647"/>
      <point x="577" y="647" type="curve" smooth="yes"/>
      <point x="608" y="647"/>
      <point x="618" y="647"/>
      <point x="618" y="669" type="curve" smooth="yes"/>
      <point x="618" y="671"/>
      <point x="617" y="683"/>
      <point x="601" y="683" type="curve" smooth="yes"/>
      <point x="578" y="683"/>
      <point x="551" y="680"/>
      <point x="527" y="680" type="curve"/>
      <point x="527" y="680"/>
      <point x="449" y="679"/>
      <point x="449" y="679" type="curve"/>
      <point x="449" y="679"/>
      <point x="372" y="680"/>
      <point x="372" y="680" type="curve"/>
      <point x="347" y="680"/>
      <point x="319" y="683"/>
      <point x="295" y="683" type="curve" smooth="yes"/>
      <point x="288" y="683"/>
      <point x="273" y="683"/>
      <point x="273" y="661" type="curve" smooth="yes"/>
      <point x="273" y="647"/>
      <point x="284" y="647"/>
      <point x="308" y="647" type="curve" smooth="yes"/>
      <point x="329" y="647"/>
      <point x="338" y="647"/>
      <point x="360" y="645" type="curve" smooth="yes"/>
      <point x="390" y="642"/>
      <point x="391" y="639"/>
      <point x="391" y="627" type="curve" smooth="yes"/>
      <point x="391" y="621"/>
      <point x="391" y="619"/>
      <point x="387" y="604" type="curve" smooth="yes"/>
      <point x="278" y="169" type="line"/>
      <point x="188" y="185"/>
      <point x="165" y="250"/>
      <point x="165" y="314" type="curve" smooth="yes"/>
      <point x="165" y="334"/>
      <point x="168" y="365"/>
      <point x="176" y="399" type="curve" smooth="yes"/>
      <point x="183" y="427"/>
      <point x="186" y="448"/>
      <point x="186" y="463" type="curve" smooth="yes"/>
      <point x="186" y="552"/>
      <point x="127" y="552"/>
      <point x="106" y="552" type="curve" smooth="yes"/>
      <point x="75" y="552" type="line" smooth="yes"/>
      <point x="59" y="552"/>
      <point x="45" y="552"/>
      <point x="45" y="538" type="curve" smooth="yes"/>
      <point x="45" y="526"/>
      <point x="55" y="525"/>
      <point x="63" y="524" type="curve" smooth="yes"/>
      <point x="94" y="520"/>
      <point x="100" y="490"/>
      <point x="100" y="463" type="curve" smooth="yes"/>
      <point x="100" y="446"/>
      <point x="96" y="424"/>
      <point x="91" y="407" type="curve"/>
      <point x="86" y="383"/>
      <point x="82" y="356"/>
      <point x="82" y="331" type="curve" smooth="yes"/>
      <point x="82" y="212"/>
      <point x="159" y="153"/>
      <point x="270" y="140" type="curve"/>
      <point x="258" y="90" type="line" smooth="yes"/>
      <point x="246" y="43"/>
      <point x="244" y="36"/>
      <point x="151" y="36" type="curve" smooth="yes"/>
      <point x="122" y="36"/>
      <point x="111" y="36"/>
      <point x="111" y="15" type="curve" smooth="yes"/>
      <point x="111" y="5"/>
      <point x="118" y="0"/>
      <point x="128" y="0" type="curve" smooth="yes"/>
      <point x="151" y="0"/>
      <point x="178" y="3"/>
      <point x="202" y="3" type="curve"/>
      <point x="202" y="3"/>
      <point x="280" y="4"/>
      <point x="280" y="4" type="curve"/>
      <point x="280" y="4"/>
      <point x="357" y="3"/>
      <point x="357" y="3" type="curve"/>
      <point x="382" y="3"/>
      <point x="410" y="0"/>
      <point x="434" y="0" type="curve" smooth="yes"/>
      <point x="440" y="0"/>
      <point x="456" y="0"/>
      <point x="456" y="21" type="curve" smooth="yes"/>
      <point x="456" y="36"/>
      <point x="445" y="36"/>
      <point x="423" y="36" type="curve" smooth="yes"/>
      <point x="414" y="36"/>
      <point x="395" y="36"/>
      <point x="371" y="38" type="curve" smooth="yes"/>
      <point x="347" y="40"/>
      <point x="338" y="41"/>
      <point x="338" y="55" type="curve" smooth="yes"/>
      <point x="338" y="57"/>
      <point x="338" y="59"/>
      <point x="357" y="140" type="curve"/>
      <point x="501" y="151"/>
      <point x="623" y="234"/>
      <point x="668" y="399" type="curve" smooth="yes"/>
      <point x="676" y="429"/>
      <point x="700" y="516"/>
      <point x="764" y="524" type="curve" smooth="yes"/>
      <point x="772" y="525"/>
      <point x="782" y="526"/>
      <point x="782" y="538" type="curve" smooth="yes"/>
      <point x="782" y="552"/>
      <point x="770" y="552"/>
      <point x="752" y="552" type="curve" smooth="yes"/>
      <point x="721" y="552" type="line" smooth="yes"/>
      <point x="638" y="552"/>
      <point x="605" y="484"/>
      <point x="581" y="398" type="curve" smooth="yes"/>
      <point x="553" y="296"/>
      <point x="490" y="195"/>
      <point x="365" y="171" type="curve"/>
    </contour>
  </outline>
</glyph>
<glyph name="alpha" format="2">
  <advance width="742"/>
  <unicode hex="03B1"/>
  <outline>
    <contour>
      <point x="547" y="141" type="curve"/>
      <point x="639" y="236"/>
      <point x="676" y="369"/>
      <point x="676" y="380" type="curve" smooth="yes"/>
      <point x="676" y="393"/>
      <point x="664" y="393"/>
      <point x="659" y="393" type="curve" smooth="yes"/>
      <point x="645" y="393"/>
      <point x="645" y="390"/>
      <point x="638" y="368" type="curve" smooth="yes"/>
      <point x="620" y="302"/>
      <point x="587" y="241"/>
      <point x="545" y="187" type="curve"/>
      <point x="544" y="202"/>
      <point x="542" y="269"/>
      <point x="540" y="278" type="curve"/>
      <point x="525" y="377"/>
      <point x="450" y="441"/>
      <point x="350" y="441" type="curve" smooth="yes"/>
      <point x="203" y="441"/>
      <point x="62" y="304"/>
      <point x="62" y="164" type="curve" smooth="yes"/>
      <point x="62" y="72"/>
      <point x="129" y="-10"/>
      <point x="245" y="-10" type="curve" smooth="yes"/>
      <point x="337" y="-10"/>
      <point x="420" y="32"/>
      <point x="476" y="75" type="curve"/>
      <point x="499" y="2"/>
      <point x="550" y="-10"/>
      <point x="580" y="-10" type="curve" smooth="yes"/>
      <point x="638" y="-10"/>
      <point x="674" y="39"/>
      <point x="674" y="60" type="curve" smooth="yes"/>
      <point x="674" y="72"/>
      <point x="662" y="72"/>
      <point x="657" y="72" type="curve" smooth="yes"/>
      <point x="644" y="72"/>
      <point x="642" y="68"/>
      <point x="640" y="62" type="curve" smooth="yes"/>
      <point x="626" y="24"/>
      <point x="595" y="18"/>
      <point x="583" y="18" type="curve" smooth="yes"/>
      <point x="569" y="18"/>
      <point x="552" y="18"/>
    </contour>
    <contour>
      <point x="469" y="107" type="curve"/>
      <point x="371" y="27"/>
      <point x="286" y="18"/>
      <point x="248" y="18" type="curve" smooth="yes"/>
      <point x="182" y="18"/>
      <point x="145" y="62"/>
      <point x="145" y="129" type="curve" smooth="yes"/>
      <point x="145" y="158"/>
      <point x="159" y="267"/>
      <point x="211" y="336" type="curve" smooth="yes"/>
      <point x="257" y="396"/>
      <point x="314" y="413"/>
      <point x="349" y="413" type="curve" smooth="yes"/>
      <point x="429" y="413"/>
      <point x="452" y="336"/>
      <point x="460" y="274" type="curve" smooth="yes"/>
      <point x="466" y="231"/>
      <point x="464" y="160"/>
    </contour>
  </outline>
</glyph>
<glyph name="beta" format="2">
  <advance width="647"/>
  <unicode hex="03B2"/>
  <outline>
    <contour>
      <point x="633.0" y="566" type="curve" smooth="yes"/>
      <point x="633.0" y="654"/>
      <point x="557.0" y="705"/>
      <point x="469.0" y="705" type="curve" smooth="yes"/>
      <point x="332.0" y="705"/>
      <point x="231.0" y="549"/>
      <point x="206.0" y="448" type="curve" smooth="yes"/>
      <point x="49.0" y="-182" type="line" smooth="yes"/>
      <point x="47.0" y="-189"/>
      <point x="57.0" y="-194"/>
      <point x="63.0" y="-194" type="curve" smooth="yes"/>
      <point x="72.0" y="-194"/>
      <point x="80.0" y="-193"/>
      <point x="82.0" y="-187" type="curve"/>
      <point x="149.0" y="80" type="line"/>
      <point x="170.0" y="34"/>
      <point x="218.0" y="-9"/>
      <point x="299.0" y="-9" type="curve" smooth="yes"/>
      <point x="439.0" y="-9"/>
      <point x="597.0" y="92"/>
      <point x="597.0" y="245" type="curve" smooth="yes"/>
      <point x="597.0" y="304"/>
      <point x="570.0" y="364"/>
      <point x="519.0" y="397" type="curve"/>
      <point x="568.0" y="428"/>
      <point x="633.0" y="485"/>
    </contour>
    <contour>
      <point x="435.0" y="398" type="curve"/>
      <point x="420.0" y="395"/>
      <point x="413.0" y="391"/>
      <point x="384.0" y="391" type="curve" smooth="yes"/>
      <point x="368.0" y="391"/>
      <point x="344.0" y="392"/>
      <point x="337.0" y="396" type="curve"/>
      <point x="347.0" y="402"/>
      <point x="375.0" y="403"/>
      <point x="384.0" y="403" type="curve" smooth="yes"/>
      <point x="399.0" y="403"/>
      <point x="421.0" y="402"/>
    </contour>
    <contour>
      <point x="567.0" y="584" type="curve" smooth="yes"/>
      <point x="567.0" y="531"/>
      <point x="541.0" y="453"/>
      <point x="479.0" y="418" type="curve"/>
      <point x="460.0" y="424"/>
      <point x="441.0" y="431"/>
      <point x="385.0" y="431" type="curve" smooth="yes"/>
      <point x="350.0" y="431"/>
      <point x="300.0" y="429"/>
      <point x="300.0" y="393" type="curve" smooth="yes"/>
      <point x="300.0" y="368"/>
      <point x="331.0" y="364"/>
      <point x="382.0" y="364" type="curve" smooth="yes"/>
      <point x="416.0" y="364"/>
      <point x="446.0" y="369"/>
      <point x="477.0" y="378" type="curve"/>
      <point x="507.0" y="357"/>
      <point x="523.0" y="316"/>
      <point x="523.0" y="272" type="curve" smooth="yes"/>
      <point x="523.0" y="127"/>
      <point x="424.0" y="19"/>
      <point x="302.0" y="19" type="curve" smooth="yes"/>
      <point x="225.0" y="19"/>
      <point x="170.0" y="66"/>
      <point x="170.0" y="145" type="curve" smooth="yes"/>
      <point x="170.0" y="155"/>
      <point x="171.0" y="165"/>
      <point x="173.0" y="174" type="curve" smooth="yes"/>
      <point x="239.0" y="440" type="line" smooth="yes"/>
      <point x="263.0" y="535"/>
      <point x="351.0" y="677"/>
      <point x="467.0" y="677" type="curve" smooth="yes"/>
      <point x="526.0" y="677"/>
      <point x="567.0" y="645"/>
    </contour>
  </outline>
</glyph>
<glyph name="gamma" format="2">
  <advance width="600"/>
  <unicode hex="03B3"/>
  <outline>
    <contour>
      <point x="447" y="140" type="curve"/>
      <point x="442" y="198"/>
      <point x="408" y="441"/>
      <point x="245" y="441" type="curve" smooth="yes"/>
      <point x="186" y="441"/>
      <point x="135" y="409"/>
      <point x="107" y="383" type="curve" smooth="yes"/>
      <point x="46" y="328"/>
      <point x="34" y="264"/>
      <point x="34" y="261" type="curve" smooth="yes"/>
      <point x="34" y="249"/>
      <point x="47" y="249"/>
      <point x="50" y="249" type="curve" smooth="yes"/>
      <point x="63" y="249"/>
      <point x="64" y="251"/>
      <point x="69" y="266" type="curve" smooth="yes"/>
      <point x="90" y="325"/>
      <point x="164" y="361"/>
      <point x="231" y="361" type="curve" smooth="yes"/>
      <point x="392" y="361"/>
      <point x="413" y="200"/>
      <point x="413" y="98" type="curve" smooth="yes"/>
      <point x="413" y="48"/>
      <point x="410" y="37"/>
      <point x="406" y="26" type="curve"/>
      <point x="383" y="-49"/>
      <point x="353" y="-160"/>
      <point x="353" y="-190" type="curve" smooth="yes"/>
      <point x="353" y="-201"/>
      <point x="357" y="-214"/>
      <point x="370" y="-214" type="curve" smooth="yes"/>
      <point x="377" y="-214"/>
      <point x="388" y="-214"/>
      <point x="404" y="-162" type="curve" smooth="yes"/>
      <point x="416" y="-123"/>
      <point x="435" y="-49"/>
      <point x="443" y="23" type="curve" smooth="yes"/>
      <point x="447" y="58"/>
      <point x="503" y="193"/>
      <point x="524" y="241" type="curve" smooth="yes"/>
      <point x="538" y="272"/>
      <point x="559" y="319"/>
      <point x="606" y="406" type="curve" smooth="yes"/>
      <point x="609" y="411"/>
      <point x="611" y="415"/>
      <point x="611" y="419" type="curve" smooth="yes"/>
      <point x="611" y="431"/>
      <point x="598" y="431"/>
      <point x="595" y="431" type="curve" smooth="yes"/>
      <point x="592" y="431"/>
      <point x="583" y="431"/>
      <point x="580" y="426" type="curve" smooth="yes"/>
      <point x="568" y="405"/>
      <point x="492" y="262"/>
    </contour>
  </outline>
</glyph>
<glyph name="delta" format="2">
  <advance width="519"/>
  <unicode hex="03B4"/>
  <outline>
    <contour>
      <point x="295" y="435" type="curve"/>
      <point x="145" y="397"/>
      <point x="61" y="268"/>
      <point x="61" y="163" type="curve" smooth="yes"/>
      <point x="61" y="57"/>
      <point x="142" y="-12"/>
      <point x="241" y="-12" type="curve" smooth="yes"/>
      <point x="362" y="-12"/>
      <point x="456" y="130"/>
      <point x="456" y="276" type="curve" smooth="yes"/>
      <point x="456" y="373"/>
      <point x="404" y="430"/>
      <point x="373" y="464" type="curve" smooth="yes"/>
      <point x="336" y="506"/>
      <point x="261" y="588"/>
      <point x="261" y="634" type="curve" smooth="yes"/>
      <point x="261" y="647"/>
      <point x="275" y="676"/>
      <point x="316" y="676" type="curve" smooth="yes"/>
      <point x="350" y="676"/>
      <point x="378" y="660"/>
      <point x="400" y="648" type="curve" smooth="yes"/>
      <point x="409" y="643"/>
      <point x="445" y="622"/>
      <point x="460" y="622" type="curve" smooth="yes"/>
      <point x="484" y="622"/>
      <point x="502" y="644"/>
      <point x="502" y="664" type="curve" smooth="yes"/>
      <point x="502" y="689"/>
      <point x="489" y="691"/>
      <point x="435" y="702" type="curve" smooth="yes"/>
      <point x="423" y="704"/>
      <point x="377" y="714"/>
      <point x="345" y="714" type="curve" smooth="yes"/>
      <point x="270" y="714"/>
      <point x="228" y="670"/>
      <point x="228" y="609" type="curve" smooth="yes"/>
      <point x="228" y="556"/>
      <point x="260" y="495"/>
    </contour>
    <contour>
      <point x="312" y="408" type="curve"/>
      <point x="340" y="363"/>
      <point x="376" y="305"/>
      <point x="376" y="233" type="curve" smooth="yes"/>
      <point x="376" y="151"/>
      <point x="327" y="16"/>
      <point x="243" y="16" type="curve" smooth="yes"/>
      <point x="188" y="16"/>
      <point x="134" y="52"/>
      <point x="134" y="135" type="curve" smooth="yes"/>
      <point x="134" y="201"/>
      <point x="172" y="374"/>
    </contour>
  </outline>
</glyph>
<glyph name="epsilon" format="2">
  <advance width="539"/>
  <unicode hex="03B5"/>
  <outline>
    <contour>
      <point x="166" y="223" type="curve"/>
      <point x="204" y="208"/>
      <point x="234" y="208"/>
      <point x="263" y="208" type="curve" smooth="yes"/>
      <point x="295" y="208"/>
      <point x="354" y="208"/>
      <point x="354" y="245" type="curve" smooth="yes"/>
      <point x="354" y="272"/>
      <point x="316" y="276"/>
      <point x="273" y="276" type="curve" smooth="yes"/>
      <point x="259" y="276"/>
      <point x="216" y="276"/>
      <point x="167" y="256" type="curve"/>
      <point x="144" y="267"/>
      <point x="129" y="286"/>
      <point x="129" y="308" type="curve" smooth="yes"/>
      <point x="129" y="362"/>
      <point x="226" y="396"/>
      <point x="327" y="396" type="curve" smooth="yes"/>
      <point x="343" y="396"/>
      <point x="386" y="396"/>
      <point x="431" y="368" type="curve" smooth="yes"/>
      <point x="437" y="364"/>
      <point x="443" y="359"/>
      <point x="451" y="359" type="curve" smooth="yes"/>
      <point x="465" y="359"/>
      <point x="483" y="374"/>
      <point x="483" y="391" type="curve" smooth="yes"/>
      <point x="483" y="411"/>
      <point x="450" y="425"/>
      <point x="431" y="433" type="curve" smooth="yes"/>
      <point x="388" y="451"/>
      <point x="353" y="451"/>
      <point x="338" y="451" type="curve" smooth="yes"/>
      <point x="216" y="451"/>
      <point x="95" y="387"/>
      <point x="95" y="307" type="curve" smooth="yes"/>
      <point x="95" y="266"/>
      <point x="133" y="240"/>
      <point x="134" y="239" type="curve"/>
      <point x="97" y="217"/>
      <point x="47" y="173"/>
      <point x="47" y="110" type="curve" smooth="yes"/>
      <point x="47" y="37"/>
      <point x="119" y="-20"/>
      <point x="230" y="-20" type="curve" smooth="yes"/>
      <point x="382" y="-20"/>
      <point x="436" y="70"/>
      <point x="436" y="86" type="curve" smooth="yes"/>
      <point x="436" y="93"/>
      <point x="430" y="99"/>
      <point x="422" y="99" type="curve" smooth="yes"/>
      <point x="416" y="99"/>
      <point x="413" y="95"/>
      <point x="410" y="91" type="curve"/>
      <point x="385" y="52"/>
      <point x="352" y="35"/>
      <point x="246" y="35" type="curve" smooth="yes"/>
      <point x="221" y="35"/>
      <point x="174" y="35"/>
      <point x="138" y="49" type="curve" smooth="yes"/>
      <point x="98" y="64"/>
      <point x="81" y="91"/>
      <point x="81" y="116" type="curve" smooth="yes"/>
      <point x="81" y="139"/>
      <point x="98" y="188"/>
    </contour>
    <contour>
      <point x="210" y="240" type="curve"/>
      <point x="221" y="243"/>
      <point x="241" y="248"/>
      <point x="271" y="248" type="curve" smooth="yes"/>
      <point x="293" y="248"/>
      <point x="298" y="247"/>
      <point x="318" y="243" type="curve"/>
      <point x="303" y="237"/>
      <point x="300" y="236"/>
      <point x="263" y="236" type="curve" smooth="yes"/>
      <point x="248" y="236"/>
      <point x="228" y="236"/>
    </contour>
  </outline>
</glyph>
<glyph name="zeta" format="2">
  <advance width="519"/>
  <unicode hex="03B6"/>
  <outline>
    <contour>
      <point x="359" y="568" type="curve"/>
      <point x="379" y="548"/>
      <point x="409" y="548"/>
      <point x="427" y="548" type="curve" smooth="yes"/>
      <point x="458" y="548"/>
      <point x="526" y="548"/>
      <point x="526" y="585" type="curve" smooth="yes"/>
      <point x="526" y="615"/>
      <point x="474" y="616"/>
      <point x="437" y="616" type="curve" smooth="yes"/>
      <point x="420" y="616"/>
      <point x="397" y="616"/>
      <point x="371" y="606" type="curve"/>
      <point x="370" y="610"/>
      <point x="365" y="624"/>
      <point x="365" y="642" type="curve" smooth="yes"/>
      <point x="365" y="646"/>
      <point x="367" y="665"/>
      <point x="369" y="676" type="curve"/>
      <point x="370" y="677"/>
      <point x="371" y="681"/>
      <point x="371" y="683" type="curve" smooth="yes"/>
      <point x="371" y="691"/>
      <point x="364" y="699"/>
      <point x="355" y="699" type="curve" smooth="yes"/>
      <point x="332" y="699"/>
      <point x="332" y="661"/>
      <point x="332" y="644" type="curve" smooth="yes"/>
      <point x="332" y="632"/>
      <point x="332" y="614"/>
      <point x="342" y="593" type="curve"/>
      <point x="213" y="527"/>
      <point x="65" y="351"/>
      <point x="65" y="172" type="curve" smooth="yes"/>
      <point x="65" y="117"/>
      <point x="80" y="70"/>
      <point x="121" y="28" type="curve" smooth="yes"/>
      <point x="154" y="-5"/>
      <point x="180" y="-12"/>
      <point x="307" y="-51" type="curve" smooth="yes"/>
      <point x="343" y="-61"/>
      <point x="380" y="-73"/>
      <point x="380" y="-117" type="curve" smooth="yes"/>
      <point x="380" y="-144"/>
      <point x="363" y="-176"/>
      <point x="330" y="-176" type="curve" smooth="yes"/>
      <point x="313" y="-176"/>
      <point x="282" y="-172"/>
      <point x="248" y="-148" type="curve" smooth="yes"/>
      <point x="242" y="-144"/>
      <point x="240" y="-142"/>
      <point x="235" y="-142" type="curve" smooth="yes"/>
      <point x="224" y="-142"/>
      <point x="221" y="-151"/>
      <point x="221" y="-156" type="curve" smooth="yes"/>
      <point x="221" y="-171"/>
      <point x="279" y="-204"/>
      <point x="330" y="-204" type="curve" smooth="yes"/>
      <point x="400" y="-204"/>
      <point x="443" y="-133"/>
      <point x="443" y="-81" type="curve" smooth="yes"/>
      <point x="443" y="-37"/>
      <point x="416" y="-4"/>
      <point x="380" y="12" type="curve" smooth="yes"/>
      <point x="370" y="16"/>
      <point x="324" y="30"/>
      <point x="296" y="38" type="curve" smooth="yes"/>
      <point x="219" y="61"/>
      <point x="192" y="69"/>
      <point x="167" y="98" type="curve" smooth="yes"/>
      <point x="140" y="128"/>
      <point x="130" y="162"/>
      <point x="130" y="204" type="curve" smooth="yes"/>
      <point x="130" y="352"/>
      <point x="254" y="512"/>
    </contour>
    <contour>
      <point x="487" y="582" type="line"/>
      <point x="473" y="578"/>
      <point x="456" y="576"/>
      <point x="428" y="576" type="curve" smooth="yes"/>
      <point x="404" y="576"/>
      <point x="402" y="576"/>
      <point x="391" y="582" type="curve"/>
      <point x="407" y="588"/>
      <point x="421" y="588"/>
      <point x="436" y="588" type="curve" smooth="yes"/>
      <point x="464" y="588"/>
      <point x="468" y="587"/>
      <point x="487" y="583" type="curve"/>
    </contour>
  </outline>
</glyph>
